<?xml version="1.0" encoding="utf-8" standalone="no"?>
<!DOCTYPE svg PUBLIC "-//W3C//DTD SVG 1.1//EN"
  "http://www.w3.org/Graphics/SVG/1.1/DTD/svg11.dtd">
<!-- Created with matplotlib (https://matplotlib.org/) -->
<svg height="261.104835pt" version="1.1" viewBox="0 0 382.864991 261.104835" width="382.864991pt" xmlns="http://www.w3.org/2000/svg" xmlns:xlink="http://www.w3.org/1999/xlink">
 <metadata>
  <rdf:RDF xmlns:cc="http://creativecommons.org/ns#" xmlns:dc="http://purl.org/dc/elements/1.1/" xmlns:rdf="http://www.w3.org/1999/02/22-rdf-syntax-ns#">
   <cc:Work>
    <dc:type rdf:resource="http://purl.org/dc/dcmitype/StillImage"/>
    <dc:date>2021-04-25T12:41:21.677553</dc:date>
    <dc:format>image/svg+xml</dc:format>
    <dc:creator>
     <cc:Agent>
      <dc:title>Matplotlib v3.3.4, https://matplotlib.org/</dc:title>
     </cc:Agent>
    </dc:creator>
   </cc:Work>
  </rdf:RDF>
 </metadata>
 <defs>
  <style type="text/css">*{stroke-linecap:butt;stroke-linejoin:round;}</style>
 </defs>
 <g id="figure_1">
  <g id="patch_1">
   <path d="M 0 261.104835 
L 382.864991 261.104835 
L 382.864991 0 
L 0 0 
z
" style="fill:none;"/>
  </g>
  <g id="axes_1">
   <g id="patch_2">
    <path d="M 40.864991 106.036364 
L 375.664991 106.036364 
L 375.664991 7.2 
L 40.864991 7.2 
z
" style="fill:#ffffff;"/>
   </g>
   <g id="matplotlib.axis_1">
    <g id="xtick_1">
     <g id="line2d_1">
      <defs>
       <path d="M 0 0 
L 0 3.5 
" id="mb14320ead3" style="stroke:#000000;stroke-width:0.8;"/>
      </defs>
      <g>
       <use style="stroke:#000000;stroke-width:0.8;" x="56.083173" xlink:href="#mb14320ead3" y="106.036364"/>
      </g>
     </g>
    </g>
    <g id="xtick_2">
     <g id="line2d_2">
      <g>
       <use style="stroke:#000000;stroke-width:0.8;" x="96.692064" xlink:href="#mb14320ead3" y="106.036364"/>
      </g>
     </g>
    </g>
    <g id="xtick_3">
     <g id="line2d_3">
      <g>
       <use style="stroke:#000000;stroke-width:0.8;" x="137.300954" xlink:href="#mb14320ead3" y="106.036364"/>
      </g>
     </g>
    </g>
    <g id="xtick_4">
     <g id="line2d_4">
      <g>
       <use style="stroke:#000000;stroke-width:0.8;" x="177.909845" xlink:href="#mb14320ead3" y="106.036364"/>
      </g>
     </g>
    </g>
    <g id="xtick_5">
     <g id="line2d_5">
      <g>
       <use style="stroke:#000000;stroke-width:0.8;" x="218.518736" xlink:href="#mb14320ead3" y="106.036364"/>
      </g>
     </g>
    </g>
    <g id="xtick_6">
     <g id="line2d_6">
      <g>
       <use style="stroke:#000000;stroke-width:0.8;" x="259.127627" xlink:href="#mb14320ead3" y="106.036364"/>
      </g>
     </g>
    </g>
    <g id="xtick_7">
     <g id="line2d_7">
      <g>
       <use style="stroke:#000000;stroke-width:0.8;" x="299.736517" xlink:href="#mb14320ead3" y="106.036364"/>
      </g>
     </g>
    </g>
    <g id="xtick_8">
     <g id="line2d_8">
      <g>
       <use style="stroke:#000000;stroke-width:0.8;" x="340.345408" xlink:href="#mb14320ead3" y="106.036364"/>
      </g>
     </g>
    </g>
   </g>
   <g id="matplotlib.axis_2">
    <g id="ytick_1">
     <g id="line2d_9">
      <defs>
       <path d="M 0 0 
L -3.5 0 
" id="md1b82eccde" style="stroke:#000000;stroke-width:0.8;"/>
      </defs>
      <g>
       <use style="stroke:#000000;stroke-width:0.8;" x="40.864991" xlink:href="#md1b82eccde" y="101.613154"/>
      </g>
     </g>
     <g id="text_1">
      <!-- $\mathdefault{−2}$ -->
      <g transform="translate(20.885907 105.072403)scale(0.1 -0.1)">
       <defs>
        <path d="M 9.796875 28 
C 8 27.390625 7.796875 24.6875 9.796875 24.1875 
C 10.296875 23.984375 10.90625 24.09375 11.5 24.09375 
L 64.703125 24.09375 
C 65.90625 24.09375 67.796875 23.6875 68.796875 24.6875 
C 69.90625 25.796875 69.296875 27.796875 67.703125 28.09375 
C 66.5 28.296875 65.09375 28.09375 63.90625 28.09375 
L 11.40625 28.09375 
C 10.90625 28.09375 10.296875 28.1875 9.796875 28 
z
" id="Computer_Modern_Bright_Math_Symbols-0"/>
        <path d="M 7.296875 45.890625 
C 8.703125 51.5 11.09375 57.890625 16.796875 60.390625 
C 19.203125 61.390625 21.796875 61.59375 24.40625 61.390625 
C 29.296875 61 34.09375 59 37.09375 55 
C 39.296875 52 40.09375 48.296875 39.703125 44.6875 
C 38.5 34.296875 28.296875 26.796875 21.703125 21.1875 
C 17.90625 18 7.09375 7.796875 7.09375 7.796875 
L 5.40625 6.1875 
C 4.5 5.296875 4.40625 5.296875 4.40625 3.5 
L 4.40625 0 
L 46.40625 0 
L 46.40625 5.59375 
L 10.203125 5.59375 
C 13.40625 8.6875 26.703125 20.390625 28.5 21.796875 
C 34.296875 26.5 40.796875 31.1875 44.296875 38 
C 48.203125 45.796875 46.5 55.59375 39.90625 61.390625 
C 35.90625 64.890625 30.40625 66.59375 25.09375 66.796875 
C 20.203125 66.890625 15.203125 65.890625 11.296875 62.796875 
C 8.296875 60.296875 5.796875 56.59375 4.40625 52.796875 
C 4.09375 52.203125 3.59375 51.203125 3.703125 50.5 
C 3.796875 49.890625 4.40625 49.390625 4.703125 49 
C 5.5 48 6.296875 46.796875 7.296875 45.890625 
z
" id="Computer_Modern_Bright-50"/>
       </defs>
       <use transform="scale(0.996264)" xlink:href="#Computer_Modern_Bright_Math_Symbols-0"/>
       <use transform="translate(77.487468 0)scale(0.996264)" xlink:href="#Computer_Modern_Bright-50"/>
      </g>
     </g>
    </g>
    <g id="ytick_2">
     <g id="line2d_10">
      <g>
       <use style="stroke:#000000;stroke-width:0.8;" x="40.864991" xlink:href="#md1b82eccde" y="56.618182"/>
      </g>
     </g>
     <g id="text_2">
      <!-- $\mathdefault{0}$ -->
      <g transform="translate(28.634651 60.077431)scale(0.1 -0.1)">
       <defs>
        <path d="M 14.796875 63.796875 
C 11.90625 61.796875 9.90625 59.09375 8.40625 56 
C 4.796875 49 4.40625 40.796875 4.40625 31.890625 
C 4.40625 20.6875 6.40625 10.390625 12 4.5 
C 17.296875 -1.015625 25.703125 -2.40625 32.796875 0.484375 
C 37.203125 2.1875 40.40625 5.890625 42.40625 9.890625 
C 46 17 46.40625 25.5 46.40625 34.296875 
C 46.40625 37.09375 46.296875 39.890625 46 42.6875 
C 45.296875 49.390625 43 56.796875 39.296875 60.890625 
C 33.203125 67.59375 22.296875 69.09375 14.796875 63.796875 
z
M 34.90625 58.09375 
C 39.59375 53.09375 40 43.5 40 34.390625 
L 40 29 
C 40 24.390625 39.203125 18.390625 38.203125 15 
C 36.796875 10.296875 34.5 6.890625 29.90625 4.796875 
C 24.296875 2.796875 18.5 4.6875 15.296875 9.09375 
C 11 14.796875 10.796875 24.890625 10.796875 33.796875 
C 10.796875 42.1875 10.90625 51.5 15 57 
C 19.5 62.984375 29.203125 63.984375 34.90625 58.09375 
z
" id="Computer_Modern_Bright-48"/>
       </defs>
       <use transform="scale(0.996264)" xlink:href="#Computer_Modern_Bright-48"/>
      </g>
     </g>
    </g>
    <g id="ytick_3">
     <g id="line2d_11">
      <g>
       <use style="stroke:#000000;stroke-width:0.8;" x="40.864991" xlink:href="#md1b82eccde" y="11.62321"/>
      </g>
     </g>
     <g id="text_3">
      <!-- $\mathdefault{2}$ -->
      <g transform="translate(28.634651 15.082459)scale(0.1 -0.1)">
       <use transform="scale(0.996264)" xlink:href="#Computer_Modern_Bright-50"/>
      </g>
     </g>
    </g>
    <g id="text_4">
     <!-- $x(t)$ -->
     <g transform="translate(14.67198 65.727265)rotate(-90)scale(0.1 -0.1)">
      <defs>
       <path d="M 10.59375 47.1875 
C 15.296875 39.59375 20.203125 32.1875 24.703125 24.390625 
L 24.296875 23.796875 
L 5.40625 5.296875 
L 0.09375 0 
C 2.40625 0 4.796875 0 7 0.09375 
L 8.90625 1.890625 
L 27 20.6875 
C 30.90625 13.890625 34.5 6.796875 38.59375 0.1875 
C 40.703125 -0.109375 43.296875 0 45.703125 0 
C 44.40625 2.296875 32.59375 21.09375 31.703125 22.5 
C 31.40625 23 30.703125 23.6875 30.796875 24.296875 
C 31 25 31.90625 25.59375 32.40625 26.09375 
L 36.796875 30.390625 
L 49 42.296875 
C 50.59375 43.890625 52.5 45.390625 53.90625 47.1875 
C 51.59375 47.1875 49.203125 47.1875 47 47.09375 
C 42.09375 42.6875 37.703125 37.796875 33 33.1875 
L 28.59375 28.890625 
L 25.90625 33.5 
C 23.09375 38 20.703125 42.890625 17.59375 47.09375 
C 15.40625 47.1875 13 47.1875 10.59375 47.1875 
z
" id="Computer_Modern_Bright_Math_Slanted-120"/>
       <path d="M 34.203125 -22.203125 
C 33.40625 -21.3125 32.40625 -20.515625 31.5 -19.703125 
C 30.703125 -19.015625 30 -18.203125 29.296875 -17.40625 
C 19.296875 -6.40625 14.09375 11.1875 14.90625 29.890625 
C 15.296875 40.09375 17.296875 50.5 22.09375 59.703125 
C 24.296875 63.796875 28.09375 69.59375 31.5 72.5 
C 32.40625 73.296875 33.40625 74.09375 34.203125 75 
L 30.90625 75 
C 30.40625 75 29.703125 75.09375 29.203125 74.890625 
C 28 74.296875 25 71.296875 24.59375 70.890625 
C 15 61.296875 9.296875 46.796875 8.5 29.890625 
C 8 17.796875 10 5.5 15.40625 -5.3125 
C 17.796875 -10.109375 21 -14.515625 24.796875 -18.3125 
C 25.796875 -19.3125 28 -21.515625 29.203125 -22.109375 
C 29.703125 -22.3125 30.40625 -22.203125 30.90625 -22.203125 
z
" id="Computer_Modern_Bright-40"/>
       <path d="M 11.90625 47 
L 10.90625 42 
L 20.5 42 
C 19.703125 39.1875 19.296875 36.296875 18.703125 33.484375 
L 14.59375 14.1875 
C 13.703125 10.390625 12.59375 4.890625 14.5 1.59375 
C 15.796875 -0.515625 17.90625 -1.015625 20.203125 -1.015625 
C 23.90625 -1.015625 27.59375 -0.109375 31 1.1875 
C 31.90625 1.484375 35 2.796875 35.5 3.390625 
C 35.703125 3.6875 35.59375 4.296875 35.59375 4.6875 
C 35.59375 5.890625 35.40625 6.984375 35.40625 8.1875 
C 34.59375 7.796875 33.90625 7.1875 33.09375 6.6875 
C 32.09375 6.09375 31.09375 5.59375 30 5.1875 
C 28.296875 4.59375 24.796875 3.59375 22.703125 4.296875 
C 20.203125 5.09375 19.90625 8.09375 20 10.390625 
C 20.203125 12.6875 24.796875 34.09375 26.296875 40.59375 
C 26.59375 41.6875 26.5 42 27.90625 42 
L 42.09375 42 
L 43.09375 47 
L 27.59375 47 
L 30.5 60.5 
C 28.5 60.5 26.296875 60.59375 24.59375 60.296875 
C 23.09375 56.390625 23 51.09375 21.5 47.1875 
L 20.703125 47 
z
" id="Computer_Modern_Bright_Math_Slanted-116"/>
       <path d="M 5 75 
C 5.796875 74.09375 6.796875 73.296875 7.703125 72.5 
C 8.5 71.796875 9.203125 71 9.90625 70.203125 
C 18.59375 60.203125 23.59375 46.59375 24.296875 29.890625 
C 24.796875 17.5 22.90625 4.59375 17.203125 -6.609375 
C 15.296875 -10.515625 12.796875 -14.203125 9.90625 -17.40625 
C 9.203125 -18.203125 8.5 -19.015625 7.703125 -19.703125 
C 6.796875 -20.515625 5.796875 -21.3125 5 -22.203125 
L 8.296875 -22.203125 
C 8.796875 -22.203125 9.5 -22.3125 10 -22.109375 
C 11.203125 -21.515625 14.203125 -18.515625 14.59375 -18.109375 
C 24.203125 -8.515625 29.90625 6 30.703125 22.890625 
C 31.203125 35 29.203125 47.296875 23.796875 58.09375 
C 21.40625 62.890625 18.203125 67.296875 14.40625 71.09375 
C 13.40625 72.09375 11.203125 74.296875 10 74.890625 
C 9.5 75.09375 8.796875 75 8.296875 75 
z
" id="Computer_Modern_Bright-41"/>
      </defs>
      <use transform="scale(0.996264)" xlink:href="#Computer_Modern_Bright_Math_Slanted-120"/>
      <use transform="translate(55.370957 0)scale(0.996264)" xlink:href="#Computer_Modern_Bright-40"/>
      <use transform="translate(94.391166 0)scale(0.996264)" xlink:href="#Computer_Modern_Bright_Math_Slanted-116"/>
      <use transform="translate(139.841166 0)scale(0.996264)" xlink:href="#Computer_Modern_Bright-41"/>
     </g>
    </g>
   </g>
   <g id="line2d_12">
    <path clip-path="url(#p0c528c713c)" d="M 56.083173 56.618182 
L 56.692306 37.357557 
L 56.895351 33.809172 
L 57.098395 32.355563 
L 57.30144 33.104601 
L 57.504484 35.948587 
L 57.910573 46.496153 
L 58.722751 70.256826 
L 58.925795 73.106888 
L 59.12884 73.863734 
L 59.331884 72.419665 
L 59.737973 63.565274 
L 60.95624 26.939924 
L 61.159284 25.511281 
L 61.362329 26.286972 
L 61.565373 29.159295 
L 61.971462 39.768551 
L 62.78364 63.672456 
L 62.986684 66.56241 
L 63.189729 67.360764 
L 63.392773 65.959807 
L 63.798862 57.196409 
L 65.017129 20.881364 
L 65.220173 19.509747 
L 65.423218 20.343947 
L 65.626262 23.276244 
L 66.032351 34.009788 
L 66.844529 58.17919 
L 67.047573 61.138949 
L 67.250618 62.008445 
L 67.453662 60.679952 
L 67.859751 52.065371 
L 69.078018 16.226545 
L 69.281062 14.938436 
L 69.484107 15.857269 
L 69.687151 18.875308 
L 70.09324 29.783571 
L 70.905418 54.314748 
L 71.108462 57.367391 
L 71.311507 58.330701 
L 71.514551 57.096929 
L 71.92064 48.67442 
L 73.138907 13.431115 
L 73.341951 12.244817 
L 73.544996 13.266127 
L 73.74804 16.387282 
L 74.154129 27.503593 
L 74.966307 52.457408 
L 75.169352 55.616921 
L 75.372396 56.687534 
L 75.57544 55.56147 
L 75.778485 52.346519 
L 76.184574 41.075577 
L 76.996752 15.944822 
L 77.199796 12.768709 
L 77.402841 11.692562 
L 77.605885 12.82416 
L 77.808929 16.055711 
L 78.215018 27.393033 
L 79.027196 52.788979 
L 79.230241 56.058889 
L 79.433285 57.239789 
L 79.636329 56.223876 
L 79.839374 53.118913 
L 80.245463 42.067347 
L 81.057641 17.372194 
L 81.260685 14.304168 
L 81.46373 13.335729 
L 81.666774 14.574629 
L 82.072863 23.038157 
L 83.29113 58.650031 
L 83.494174 59.933408 
L 83.697219 59.019307 
L 83.900263 56.015466 
L 84.306352 45.163975 
L 85.11853 20.859611 
L 85.321574 17.88719 
L 85.524619 17.013473 
L 85.727663 18.346188 
L 86.133752 26.99453 
L 87.352019 63.136708 
L 87.555063 64.504719 
L 87.758108 63.674125 
L 87.961152 60.752642 
L 88.367241 50.062342 
L 89.179419 26.0657 
L 89.382463 23.167045 
L 89.585508 22.365792 
L 89.788552 23.769649 
L 90.194641 32.556245 
L 91.412908 69.079733 
L 91.615952 70.506253 
L 91.818997 69.732686 
L 92.022041 66.866735 
L 92.42813 56.28296 
L 93.240308 32.480853 
L 93.443352 29.626904 
L 93.646397 28.868762 
L 93.849441 30.314127 
L 94.25553 39.178883 
L 95.473797 75.897362 
L 95.676841 77.350535 
L 95.879886 76.601934 
L 96.08293 73.759254 
L 96.489019 63.216912 
L 97.301197 39.47711 
L 97.504241 36.63443 
L 97.707286 35.885828 
L 97.91033 37.339002 
L 98.316419 46.214174 
L 99.534686 82.922237 
L 99.73773 84.367602 
L 99.940775 83.60946 
L 100.143819 80.755511 
L 100.549908 70.185455 
L 101.362086 46.369629 
L 101.565131 43.503678 
L 101.768175 42.730111 
L 101.971219 44.15663 
L 102.377308 52.973455 
L 103.595575 89.466715 
L 103.79862 90.870572 
L 104.001664 90.069318 
L 104.204708 87.170664 
L 104.610797 76.50646 
L 105.422975 52.483721 
L 105.62602 49.562238 
L 105.829064 48.731644 
L 106.032108 50.099656 
L 106.438197 58.79508 
L 107.656464 94.890176 
L 107.859509 96.22289 
L 108.062553 95.349173 
L 108.265597 92.376753 
L 108.671686 81.561182 
L 109.483864 57.220898 
L 109.686909 54.217057 
L 109.889953 53.302956 
L 110.092998 54.586333 
L 110.499086 63.109189 
L 111.717353 98.661734 
L 111.920398 99.900635 
L 112.123442 98.932196 
L 112.326487 95.864169 
L 112.732575 84.854829 
L 113.544753 60.11745 
L 113.747798 57.012487 
L 113.950842 55.996574 
L 114.153887 57.177475 
L 114.559976 65.493485 
L 115.778242 100.412204 
L 115.981287 101.543802 
L 116.184331 100.467655 
L 116.387376 97.291541 
L 116.793465 86.064998 
L 117.605642 60.889844 
L 117.808687 57.674894 
L 118.011731 56.54883 
L 118.214776 57.619443 
L 118.41782 60.778956 
L 118.823909 71.93912 
L 119.636087 96.849082 
L 119.839131 99.970236 
L 120.042176 100.991547 
L 120.24522 99.805249 
L 120.651309 91.446066 
L 121.869576 56.139435 
L 122.07262 54.905663 
L 122.275665 55.868973 
L 122.478709 58.921616 
L 122.884798 69.869439 
L 123.696976 94.361056 
L 123.90002 97.379094 
L 124.103065 98.297928 
L 124.306109 97.009818 
L 124.712198 88.449106 
L 125.930465 52.556412 
L 126.133509 51.227918 
L 126.336554 52.097414 
L 126.539598 55.057174 
L 126.945687 65.822113 
L 127.757865 89.96012 
L 127.96091 92.892417 
L 128.163954 93.726616 
L 128.366998 92.355 
L 128.773087 83.63074 
L 129.991354 47.276557 
L 130.194399 45.8756 
L 130.397443 46.673953 
L 130.600487 49.563908 
L 131.006576 60.193321 
L 131.818754 84.077069 
L 132.021799 86.949392 
L 132.224843 87.725083 
L 132.427888 86.296439 
L 132.833976 77.462624 
L 134.052243 40.816698 
L 134.255288 39.37263 
L 134.458332 40.129476 
L 134.661376 42.979538 
L 135.067465 53.534049 
L 135.879643 77.287776 
L 136.082688 80.131763 
L 136.285732 80.8808 
L 136.488777 79.427191 
L 136.894865 70.548535 
L 138.113132 33.809172 
L 138.316177 32.355563 
L 138.519221 33.104601 
L 138.722266 35.948587 
L 139.128354 46.496153 
L 139.940532 70.256826 
L 140.143577 73.106888 
L 140.346621 73.863734 
L 140.549666 72.419665 
L 140.955755 63.565274 
L 142.174021 26.939924 
L 142.377066 25.511281 
L 142.58011 26.286972 
L 142.783155 29.159295 
L 143.189244 39.768551 
L 144.001421 63.672456 
L 144.204466 66.56241 
L 144.40751 67.360764 
L 144.610555 65.959807 
L 145.016644 57.196409 
L 146.23491 20.881364 
L 146.437955 19.509747 
L 146.640999 20.343947 
L 146.844044 23.276244 
L 147.250133 34.009788 
L 148.06231 58.17919 
L 148.265355 61.138949 
L 148.468399 62.008445 
L 148.671444 60.679952 
L 149.077533 52.065371 
L 150.295799 16.226545 
L 150.498844 14.938436 
L 150.701888 15.857269 
L 150.904933 18.875308 
L 151.311022 29.783571 
L 152.1232 54.314748 
L 152.326244 57.367391 
L 152.529288 58.330701 
L 152.732333 57.096929 
L 153.138422 48.67442 
L 154.356689 13.431115 
L 154.559733 12.244817 
L 154.762777 13.266127 
L 154.965822 16.387282 
L 155.371911 27.503593 
L 156.184089 52.457408 
L 156.387133 55.616921 
L 156.590178 56.687534 
L 156.793222 55.56147 
L 156.996266 52.346519 
L 157.402355 41.075577 
L 158.214533 15.944822 
L 158.417578 12.768709 
L 158.620622 11.692562 
L 158.823667 12.82416 
L 159.026711 16.055711 
L 159.4328 27.393033 
L 160.244978 52.788979 
L 160.448022 56.058889 
L 160.651067 57.239789 
L 160.854111 56.223876 
L 161.057155 53.118913 
L 161.463244 42.067347 
L 162.275422 17.372194 
L 162.478467 14.304168 
L 162.681511 13.335729 
L 162.884556 14.574629 
L 163.290644 23.038157 
L 164.508911 58.650031 
L 164.711956 59.933408 
L 164.915 59.019307 
L 165.118045 56.015466 
L 165.524133 45.163975 
L 166.336311 20.859611 
L 166.539356 17.88719 
L 166.7424 17.013473 
L 166.945445 18.346188 
L 167.351534 26.99453 
L 168.5698 63.136708 
L 168.772845 64.504719 
L 168.975889 63.674125 
L 169.178934 60.752642 
L 169.585023 50.062342 
L 170.3972 26.0657 
L 170.600245 23.167045 
L 170.803289 22.365792 
L 171.006334 23.769649 
L 171.412423 32.556245 
L 172.630689 69.079733 
L 172.833734 70.506253 
L 173.036778 69.732686 
L 173.239823 66.866735 
L 173.645912 56.28296 
L 174.458089 32.480853 
L 174.661134 29.626904 
L 174.864178 28.868762 
L 175.067223 30.314127 
L 175.473312 39.178883 
L 176.691578 75.897362 
L 176.894623 77.350535 
L 177.097667 76.601934 
L 177.300712 73.759254 
L 177.706801 63.216912 
L 178.518979 39.47711 
L 178.722023 36.63443 
L 178.925067 35.885828 
L 179.128112 37.339002 
L 179.534201 46.214174 
L 180.752468 82.922237 
L 180.955512 84.367602 
L 181.158556 83.60946 
L 181.361601 80.755511 
L 181.76769 70.185455 
L 182.579868 46.369629 
L 182.782912 43.503678 
L 182.985957 42.730111 
L 183.189001 44.15663 
L 183.59509 52.973455 
L 184.813357 89.466715 
L 185.016401 90.870572 
L 185.219446 90.069318 
L 185.42249 87.170664 
L 185.828579 76.50646 
L 186.640757 52.483721 
L 186.843801 49.562238 
L 187.046846 48.731644 
L 187.24989 50.099656 
L 187.655979 58.79508 
L 188.874246 94.890176 
L 189.07729 96.22289 
L 189.280335 95.349173 
L 189.483379 92.376753 
L 189.889468 81.561182 
L 190.701646 57.220898 
L 190.90469 54.217057 
L 191.107735 53.302956 
L 191.310779 54.586333 
L 191.716868 63.109189 
L 192.935135 98.661734 
L 193.138179 99.900635 
L 193.341224 98.932196 
L 193.544268 95.864169 
L 193.950357 84.854829 
L 194.762535 60.11745 
L 194.965579 57.012487 
L 195.168624 55.996574 
L 195.371668 57.177475 
L 195.777757 65.493485 
L 196.996024 100.412204 
L 197.199068 101.543802 
L 197.402113 100.467655 
L 197.605157 97.291541 
L 198.011246 86.064998 
L 198.823424 60.889844 
L 199.026468 57.674894 
L 199.229513 56.54883 
L 199.432557 57.619443 
L 199.635602 60.778956 
L 200.041691 71.93912 
L 200.853868 96.849082 
L 201.056913 99.970236 
L 201.259957 100.991547 
L 201.463002 99.805249 
L 201.869091 91.446066 
L 203.087357 56.139435 
L 203.290402 54.905663 
L 203.493446 55.868973 
L 203.696491 58.921616 
L 204.10258 69.869439 
L 204.914758 94.361056 
L 205.117802 97.379094 
L 205.320846 98.297928 
L 205.523891 97.009818 
L 205.92998 88.449106 
L 207.148247 52.556412 
L 207.351291 51.227918 
L 207.554335 52.097414 
L 207.75738 55.057174 
L 208.163469 65.822113 
L 208.975647 89.96012 
L 209.178691 92.892417 
L 209.381736 93.726616 
L 209.58478 92.355 
L 209.990869 83.63074 
L 211.209136 47.276557 
L 211.41218 45.8756 
L 211.615225 46.673953 
L 211.818269 49.563908 
L 212.224358 60.193321 
L 213.036536 84.077069 
L 213.23958 86.949392 
L 213.442625 87.725083 
L 213.645669 86.296439 
L 214.051758 77.462624 
L 215.270025 40.816698 
L 215.473069 39.37263 
L 215.676114 40.129476 
L 215.879158 42.979538 
L 216.285247 53.534049 
L 217.097425 77.287776 
L 217.300469 80.131763 
L 217.503514 80.8808 
L 217.706558 79.427191 
L 218.112647 70.548535 
L 219.330914 33.809172 
L 219.533958 32.355563 
L 219.737003 33.104601 
L 219.940047 35.948587 
L 220.346136 46.496153 
L 221.158314 70.256826 
L 221.361358 73.106888 
L 221.564403 73.863734 
L 221.767447 72.419665 
L 222.173536 63.565274 
L 223.391803 26.939924 
L 223.594847 25.511281 
L 223.797892 26.286972 
L 224.000936 29.159295 
L 224.407025 39.768551 
L 225.219203 63.672456 
L 225.422247 66.56241 
L 225.625292 67.360764 
L 225.828336 65.959807 
L 226.234425 57.196409 
L 227.452692 20.881364 
L 227.655736 19.509747 
L 227.858781 20.343947 
L 228.061825 23.276244 
L 228.467914 34.009788 
L 229.280092 58.17919 
L 229.483136 61.138949 
L 229.686181 62.008445 
L 229.889225 60.679952 
L 230.295314 52.065371 
L 231.513581 16.226545 
L 231.716625 14.938436 
L 231.91967 15.857269 
L 232.122714 18.875308 
L 232.528803 29.783571 
L 233.340981 54.314748 
L 233.544026 57.367391 
L 233.74707 58.330701 
L 233.950114 57.096929 
L 234.356203 48.67442 
L 235.57447 13.431115 
L 235.777515 12.244817 
L 235.980559 13.266127 
L 236.183603 16.387282 
L 236.589692 27.503593 
L 237.40187 52.457408 
L 237.604915 55.616921 
L 237.807959 56.687534 
L 238.011004 55.56147 
L 238.214048 52.346519 
L 238.620137 41.075577 
L 239.432315 15.944822 
L 239.635359 12.768709 
L 239.838404 11.692562 
L 240.041448 12.82416 
L 240.244493 16.055711 
L 240.650581 27.393033 
L 241.462759 52.788979 
L 241.665804 56.058889 
L 241.868848 57.239789 
L 242.071893 56.223876 
L 242.274937 53.118913 
L 242.681026 42.067347 
L 243.493204 17.372194 
L 243.696248 14.304168 
L 243.899293 13.335729 
L 244.102337 14.574629 
L 244.508426 23.038157 
L 245.726693 58.650031 
L 245.929737 59.933408 
L 246.132782 59.019307 
L 246.335826 56.015466 
L 246.741915 45.163975 
L 247.554093 20.859611 
L 247.757137 17.88719 
L 247.960182 17.013473 
L 248.163226 18.346188 
L 248.569315 26.99453 
L 249.787582 63.136708 
L 249.990626 64.504719 
L 250.193671 63.674125 
L 250.396715 60.752642 
L 250.802804 50.062342 
L 251.614982 26.0657 
L 251.818026 23.167045 
L 252.021071 22.365792 
L 252.224115 23.769649 
L 252.630204 32.556245 
L 253.848471 69.079733 
L 254.051515 70.506253 
L 254.25456 69.732686 
L 254.457604 66.866735 
L 254.863693 56.28296 
L 255.675871 32.480853 
L 255.878915 29.626904 
L 256.08196 28.868762 
L 256.285004 30.314127 
L 256.691093 39.178883 
L 257.90936 75.897362 
L 258.112404 77.350535 
L 258.315449 76.601934 
L 258.518493 73.759254 
L 258.924582 63.216912 
L 259.73676 39.47711 
L 259.939805 36.63443 
L 260.142849 35.885828 
L 260.345893 37.339002 
L 260.751982 46.214174 
L 261.970249 82.922237 
L 262.173294 84.367602 
L 262.376338 83.60946 
L 262.579382 80.755511 
L 262.985471 70.185455 
L 263.797649 46.369629 
L 264.000694 43.503678 
L 264.203738 42.730111 
L 264.406783 44.15663 
L 264.812871 52.973455 
L 266.031138 89.466715 
L 266.234183 90.870572 
L 266.437227 90.069318 
L 266.640272 87.170664 
L 267.04636 76.50646 
L 267.858538 52.483721 
L 268.061583 49.562238 
L 268.264627 48.731644 
L 268.467672 50.099656 
L 268.873761 58.79508 
L 270.092027 94.890176 
L 270.295072 96.22289 
L 270.498116 95.349173 
L 270.701161 92.376753 
L 271.10725 81.561182 
L 271.919427 57.220898 
L 272.122472 54.217057 
L 272.325516 53.302956 
L 272.528561 54.586333 
L 272.93465 63.109189 
L 274.152916 98.661734 
L 274.355961 99.900635 
L 274.559005 98.932196 
L 274.76205 95.864169 
L 275.168139 84.854829 
L 275.980316 60.11745 
L 276.183361 57.012487 
L 276.386405 55.996574 
L 276.58945 57.177475 
L 276.995539 65.493485 
L 278.213805 100.412204 
L 278.41685 101.543802 
L 278.619894 100.467655 
L 278.822939 97.291541 
L 279.229028 86.064998 
L 280.041205 60.889844 
L 280.24425 57.674894 
L 280.447294 56.54883 
L 280.650339 57.619443 
L 280.853383 60.778956 
L 281.259472 71.93912 
L 282.07165 96.849082 
L 282.274694 99.970236 
L 282.477739 100.991547 
L 282.680783 99.805249 
L 283.086872 91.446066 
L 284.305139 56.139435 
L 284.508183 54.905663 
L 284.711228 55.868973 
L 284.914272 58.921616 
L 285.320361 69.869439 
L 286.132539 94.361056 
L 286.335584 97.379094 
L 286.538628 98.297928 
L 286.741672 97.009818 
L 287.147761 88.449106 
L 288.366028 52.556412 
L 288.569073 51.227918 
L 288.772117 52.097414 
L 288.975161 55.057174 
L 289.38125 65.822113 
L 290.193428 89.96012 
L 290.396473 92.892417 
L 290.599517 93.726616 
L 290.802562 92.355 
L 291.20865 83.63074 
L 292.426917 47.276557 
L 292.629962 45.8756 
L 292.833006 46.673953 
L 293.036051 49.563908 
L 293.442139 60.193321 
L 294.254317 84.077069 
L 294.457362 86.949392 
L 294.660406 87.725083 
L 294.863451 86.296439 
L 295.26954 77.462624 
L 296.487806 40.816698 
L 296.690851 39.37263 
L 296.893895 40.129476 
L 297.09694 42.979538 
L 297.503029 53.534049 
L 298.315206 77.287776 
L 298.518251 80.131763 
L 298.721295 80.8808 
L 298.92434 79.427191 
L 299.330429 70.548535 
L 300.548695 33.809172 
L 300.75174 32.355563 
L 300.954784 33.104601 
L 301.157829 35.948587 
L 301.563918 46.496153 
L 302.376095 70.256826 
L 302.57914 73.106888 
L 302.782184 73.863734 
L 302.985229 72.419665 
L 303.391318 63.565274 
L 304.609584 26.939924 
L 304.812629 25.511281 
L 305.015673 26.286972 
L 305.218718 29.159295 
L 305.624807 39.768551 
L 306.436984 63.672456 
L 306.640029 66.56241 
L 306.843073 67.360764 
L 307.046118 65.959807 
L 307.452207 57.196409 
L 308.670473 20.881364 
L 308.873518 19.509747 
L 309.076562 20.343947 
L 309.279607 23.276244 
L 309.685696 34.009788 
L 310.497874 58.17919 
L 310.700918 61.138949 
L 310.903962 62.008445 
L 311.107007 60.679952 
L 311.513096 52.065371 
L 312.731363 16.226545 
L 312.934407 14.938436 
L 313.137451 15.857269 
L 313.340496 18.875308 
L 313.746585 29.783571 
L 314.558763 54.314748 
L 314.761807 57.367391 
L 314.964852 58.330701 
L 315.167896 57.096929 
L 315.573985 48.67442 
L 316.792252 13.431115 
L 316.995296 12.244817 
L 317.198341 13.266127 
L 317.401385 16.387282 
L 317.807474 27.503593 
L 318.619652 52.457408 
L 318.822696 55.616921 
L 319.025741 56.687534 
L 319.228785 55.56147 
L 319.43183 52.346519 
L 319.837918 41.075577 
L 320.650096 15.944822 
L 320.853141 12.768709 
L 321.056185 11.692562 
L 321.25923 12.82416 
L 321.462274 16.055711 
L 321.868363 27.393033 
L 322.680541 52.788979 
L 322.883585 56.058889 
L 323.08663 57.239789 
L 323.289674 56.223876 
L 323.492719 53.118913 
L 323.898808 42.067347 
L 324.710985 17.372194 
L 324.91403 14.304168 
L 325.117074 13.335729 
L 325.320119 14.574629 
L 325.726208 23.038157 
L 326.944474 58.650031 
L 327.147519 59.933408 
L 327.350563 59.019307 
L 327.553608 56.015466 
L 327.959697 45.163975 
L 328.771874 20.859611 
L 328.974919 17.88719 
L 329.177963 17.013473 
L 329.381008 18.346188 
L 329.787097 26.99453 
L 331.005363 63.136708 
L 331.208408 64.504719 
L 331.411452 63.674125 
L 331.614497 60.752642 
L 332.020586 50.062342 
L 332.832763 26.0657 
L 333.035808 23.167045 
L 333.238852 22.365792 
L 333.441897 23.769649 
L 333.847986 32.556245 
L 335.066252 69.079733 
L 335.269297 70.506253 
L 335.472341 69.732686 
L 335.675386 66.866735 
L 336.081475 56.28296 
L 336.893653 32.480853 
L 337.096697 29.626904 
L 337.299741 28.868762 
L 337.502786 30.314127 
L 337.908875 39.178883 
L 339.127142 75.897362 
L 339.330186 77.350535 
L 339.53323 76.601934 
L 339.736275 73.759254 
L 340.142364 63.216912 
L 340.954542 39.47711 
L 341.157586 36.63443 
L 341.360631 35.885828 
L 341.563675 37.339002 
L 341.969764 46.214174 
L 343.188031 82.922237 
L 343.391075 84.367602 
L 343.59412 83.60946 
L 343.797164 80.755511 
L 344.203253 70.185455 
L 345.015431 46.369629 
L 345.218475 43.503678 
L 345.42152 42.730111 
L 345.624564 44.15663 
L 346.030653 52.973455 
L 347.24892 89.466715 
L 347.451964 90.870572 
L 347.655009 90.069318 
L 347.858053 87.170664 
L 348.264142 76.50646 
L 349.07632 52.483721 
L 349.279364 49.562238 
L 349.482409 48.731644 
L 349.685453 50.099656 
L 350.091542 58.79508 
L 351.309809 94.890176 
L 351.512853 96.22289 
L 351.715898 95.349173 
L 351.918942 92.376753 
L 352.325031 81.561182 
L 353.137209 57.220898 
L 353.340253 54.217057 
L 353.543298 53.302956 
L 353.746342 54.586333 
L 354.152431 63.109189 
L 355.370698 98.661734 
L 355.573742 99.900635 
L 355.776787 98.932196 
L 355.979831 95.864169 
L 356.38592 84.854829 
L 357.198098 60.11745 
L 357.401142 57.012487 
L 357.604187 55.996574 
L 357.807231 57.177475 
L 358.21332 65.493485 
L 359.431587 100.412204 
L 359.634631 101.543802 
L 359.837676 100.467655 
L 360.04072 97.291541 
L 360.446809 86.064998 
L 360.446809 86.064998 
" style="fill:none;stroke:#1f77b4;stroke-linecap:square;stroke-opacity:0.5;stroke-width:1.5;"/>
   </g>
   <g id="line2d_13">
    <path clip-path="url(#p0c528c713c)" d="M 56.083173 56.618182 
L 60.95624 48.336305 
L 63.595818 44.266549 
L 65.829307 41.217593 
L 67.656707 39.06046 
L 69.484107 37.25365 
L 71.108462 35.97101 
L 72.529774 35.115242 
L 73.951085 34.519188 
L 75.372396 34.190048 
L 76.590663 34.123471 
L 77.808929 34.256559 
L 79.027196 34.58813 
L 80.448507 35.221801 
L 81.869818 36.113899 
L 83.29113 37.25365 
L 84.915485 38.84168 
L 86.742885 40.961893 
L 88.77333 43.682009 
L 91.209863 47.360143 
L 94.25553 52.402573 
L 102.986442 67.145426 
L 105.422975 70.68457 
L 107.45342 73.258022 
L 109.28082 75.225415 
L 110.905175 76.663589 
L 112.326487 77.663321 
L 113.747798 78.408868 
L 115.169109 78.891225 
L 116.387376 79.090693 
L 117.605642 79.090693 
L 118.823909 78.891225 
L 120.24522 78.408868 
L 121.666531 77.663321 
L 123.087843 76.663589 
L 124.712198 75.225415 
L 126.336554 73.493795 
L 128.163954 71.22913 
L 130.397443 68.070334 
L 133.037021 63.905509 
L 136.894865 57.324845 
L 142.377066 48.008767 
L 145.016644 43.972719 
L 147.250133 40.961893 
L 149.077533 38.84168 
L 150.701888 37.25365 
L 152.326244 35.97101 
L 153.747555 35.115242 
L 155.168866 34.519188 
L 156.590178 34.190048 
L 157.808444 34.123471 
L 159.026711 34.256559 
L 160.244978 34.58813 
L 161.666289 35.221801 
L 163.0876 36.113899 
L 164.508911 37.25365 
L 166.133267 38.84168 
L 167.960667 40.961893 
L 169.991111 43.682009 
L 172.427645 47.360143 
L 175.473312 52.402573 
L 184.204223 67.145426 
L 186.640757 70.68457 
L 188.671201 73.258022 
L 190.498601 75.225415 
L 192.122957 76.663589 
L 193.544268 77.663321 
L 194.965579 78.408868 
L 196.38689 78.891225 
L 197.605157 79.090693 
L 198.823424 79.090693 
L 200.041691 78.891225 
L 201.463002 78.408868 
L 202.884313 77.663321 
L 204.305624 76.663589 
L 205.92998 75.225415 
L 207.554335 73.493795 
L 209.381736 71.22913 
L 211.615225 68.070334 
L 214.254802 63.905509 
L 218.112647 57.324845 
L 223.594847 48.008767 
L 226.234425 43.972719 
L 228.467914 40.961893 
L 230.295314 38.84168 
L 231.91967 37.25365 
L 233.544026 35.97101 
L 234.965337 35.115242 
L 236.386648 34.519188 
L 237.807959 34.190048 
L 239.026226 34.123471 
L 240.244493 34.256559 
L 241.462759 34.58813 
L 242.88407 35.221801 
L 244.305382 36.113899 
L 245.726693 37.25365 
L 247.351048 38.84168 
L 249.178448 40.961893 
L 251.208893 43.682009 
L 253.645426 47.360143 
L 256.691093 52.402573 
L 265.422005 67.145426 
L 267.858538 70.68457 
L 269.888983 73.258022 
L 271.716383 75.225415 
L 273.340738 76.663589 
L 274.76205 77.663321 
L 276.183361 78.408868 
L 277.604672 78.891225 
L 278.822939 79.090693 
L 280.041205 79.090693 
L 281.259472 78.891225 
L 282.680783 78.408868 
L 284.102095 77.663321 
L 285.523406 76.663589 
L 287.147761 75.225415 
L 288.772117 73.493795 
L 290.599517 71.22913 
L 292.833006 68.070334 
L 295.472584 63.905509 
L 299.330429 57.324845 
L 304.812629 48.008767 
L 307.452207 43.972719 
L 309.685696 40.961893 
L 311.513096 38.84168 
L 313.137451 37.25365 
L 314.761807 35.97101 
L 316.183118 35.115242 
L 317.604429 34.519188 
L 319.025741 34.190048 
L 320.244007 34.123471 
L 321.462274 34.256559 
L 322.680541 34.58813 
L 324.101852 35.221801 
L 325.523163 36.113899 
L 326.944474 37.25365 
L 328.56883 38.84168 
L 330.39623 40.961893 
L 332.426675 43.682009 
L 334.863208 47.360143 
L 337.908875 52.402573 
L 346.639786 67.145426 
L 349.07632 70.68457 
L 351.106764 73.258022 
L 352.934164 75.225415 
L 354.55852 76.663589 
L 355.979831 77.663321 
L 357.401142 78.408868 
L 358.822454 78.891225 
L 360.04072 79.090693 
L 360.446809 79.112892 
L 360.446809 79.112892 
" style="fill:none;stroke:#ff7f0e;stroke-linecap:square;stroke-width:1.5;"/>
   </g>
   <g id="patch_3">
    <path d="M 40.864991 106.036364 
L 40.864991 7.2 
" style="fill:none;stroke:#000000;stroke-linecap:square;stroke-linejoin:miter;stroke-width:0.8;"/>
   </g>
   <g id="patch_4">
    <path d="M 375.664991 106.036364 
L 375.664991 7.2 
" style="fill:none;stroke:#000000;stroke-linecap:square;stroke-linejoin:miter;stroke-width:0.8;"/>
   </g>
   <g id="patch_5">
    <path d="M 40.864991 106.036364 
L 375.664991 106.036364 
" style="fill:none;stroke:#000000;stroke-linecap:square;stroke-linejoin:miter;stroke-width:0.8;"/>
   </g>
   <g id="patch_6">
    <path d="M 40.864991 7.2 
L 375.664991 7.2 
" style="fill:none;stroke:#000000;stroke-linecap:square;stroke-linejoin:miter;stroke-width:0.8;"/>
   </g>
   <g id="legend_1">
    <g id="patch_7">
     <path d="M 47.864991 101.036364 
L 185.412015 101.036364 
Q 187.412015 101.036364 187.412015 99.036364 
L 187.412015 70.411635 
Q 187.412015 68.411635 185.412015 68.411635 
L 47.864991 68.411635 
Q 45.864991 68.411635 45.864991 70.411635 
L 45.864991 99.036364 
Q 45.864991 101.036364 47.864991 101.036364 
z
" style="fill:#ffffff;opacity:0.8;stroke:#cccccc;stroke-linejoin:miter;"/>
    </g>
    <g id="line2d_14">
     <path d="M 49.864991 76.510073 
L 69.864991 76.510073 
" style="fill:none;stroke:#1f77b4;stroke-linecap:square;stroke-opacity:0.5;stroke-width:1.5;"/>
    </g>
    <g id="line2d_15"/>
    <g id="text_5">
     <!-- $x_1+x_2$ (input) -->
     <g transform="translate(77.864991 80.010073)scale(0.1 -0.1)">
      <defs>
       <path d="M 9.703125 60 
L 9.703125 55 
C 15.203125 55 19 56 23.40625 57.890625 
L 23.40625 5 
L 10.296875 5 
L 10.296875 0 
L 43 0 
L 43 5 
L 29.90625 5 
L 29.90625 66.59375 
C 27.5 66.59375 27.90625 66 26 64.59375 
C 21.90625 61.59375 16.203125 60 9.703125 60 
z
" id="Computer_Modern_Bright-49"/>
       <path d="M 36.09375 28.09375 
L 8.296875 28.09375 
C 7.703125 28.09375 6.90625 28.1875 6.296875 28 
C 5.40625 27.796875 4.796875 26.984375 4.796875 26.09375 
C 4.796875 25.1875 5.40625 24.390625 6.296875 24.1875 
C 6.90625 23.984375 7.703125 24.09375 8.296875 24.09375 
L 36.09375 24.09375 
L 36.09375 -3.703125 
C 36.09375 -4.3125 36 -5.109375 36.203125 -5.703125 
C 36.40625 -6.609375 37.203125 -7.203125 38.09375 -7.203125 
C 39 -7.203125 39.796875 -6.609375 40 -5.703125 
C 40.203125 -5.109375 40.09375 -4.3125 40.09375 -3.703125 
L 40.09375 24.09375 
L 67.796875 24.09375 
C 68.40625 24.09375 69.203125 23.984375 69.796875 24.1875 
C 70.703125 24.390625 71.296875 25.1875 71.296875 26.09375 
C 71.296875 26.984375 70.703125 27.796875 69.796875 28 
C 69.203125 28.1875 68.40625 28.09375 67.796875 28.09375 
L 40.09375 28.09375 
L 40.09375 55.890625 
C 40.09375 56.5 40.203125 57.296875 40 57.890625 
C 39.796875 58.796875 39 59.390625 38.09375 59.390625 
C 37.203125 59.390625 36.40625 58.796875 36.203125 57.890625 
C 36 57.1875 36.09375 56.5 36.09375 55.796875 
z
" id="Computer_Modern_Bright-43"/>
       <path d="M 6.40625 69.296875 
L 6.40625 63 
L 12.703125 63 
L 12.703125 69.296875 
z
M 6.40625 47 
L 6.40625 0 
L 12.703125 0 
L 12.703125 47 
z
" id="Computer_Modern_Bright-105"/>
       <path d="M 12.59375 37.03125 
L 12.5 37.03125 
L 12.5 47 
L 6.40625 47 
L 6.40625 0 
L 12.796875 0 
L 12.796875 21.796875 
C 12.796875 26.671875 12.5 31.65625 14.703125 36.234375 
C 15.796875 38.515625 17.5 40.515625 19.796875 41.703125 
C 21.703125 42.609375 23.703125 42.703125 25.796875 42.5 
C 28.796875 42.296875 31.703125 41.5 33.59375 39.015625 
C 35.40625 36.734375 35.5 33.75 35.5 30.953125 
L 35.5 0 
L 41.90625 0 
L 41.90625 26.671875 
C 41.90625 31.65625 42.40625 37.125 40 41.609375 
C 38.09375 45.1875 34.40625 46.890625 30.5 47.390625 
C 28.5 47.6875 26.40625 47.6875 24.40625 47.296875 
C 19.203125 46.1875 14.40625 42 12.59375 37.03125 
z
" id="Computer_Modern_Bright-110"/>
       <path d="M 12.703125 40.390625 
L 12.703125 47 
L 6.40625 47 
L 6.40625 -17 
L 12.796875 -17 
L 12.796875 6.03125 
C 14.203125 4.03125 15.796875 2.21875 17.90625 1.015625 
C 25 -3.28125 34 0.125 38.90625 6.53125 
C 45.40625 14.84375 46.09375 27.265625 41.59375 36.6875 
C 39 42.09375 34.09375 47.09375 27.796875 47.59375 
C 22.296875 47.890625 18.09375 45.6875 15.09375 43 
C 14.203125 42.1875 13.5 41.296875 12.703125 40.390625 
z
M 21.90625 42.484375 
C 26 42.796875 30 40.890625 32.796875 37.890625 
C 34.5 35.984375 35.796875 33.78125 36.59375 31.375 
C 40.09375 21.953125 36.90625 8.9375 26.796875 5.03125 
C 21 2.828125 15.296875 4.828125 13.09375 10.234375 
C 12.59375 11.234375 12.796875 12.546875 12.796875 13.640625 
L 12.796875 34.28125 
C 12.796875 36.578125 13 36.78125 14.5 38.484375 
C 16.296875 40.6875 19 42.1875 21.90625 42.484375 
z
" id="Computer_Modern_Bright-112"/>
       <path d="M 6.40625 47 
L 6.40625 13.234375 
C 6.40625 10.359375 6.5 7.46875 7.703125 4.78125 
C 9.59375 0.890625 13.59375 -0.609375 17.703125 -0.609375 
C 23.203125 -0.609375 28.703125 1.1875 32.703125 5.078125 
C 33.796875 6.171875 34.796875 7.265625 35.5 8.65625 
L 35.59375 8.65625 
L 35.59375 0 
L 41.90625 0 
L 41.90625 47 
L 35.5 47 
L 35.5 23.09375 
C 35.5 18.90625 36.09375 14.328125 33.90625 10.546875 
C 32.296875 7.765625 29.5 5.578125 26.40625 4.578125 
C 24.296875 3.984375 22.09375 3.984375 19.90625 4.1875 
C 17.796875 4.375 15.5 4.578125 14.09375 6.375 
C 12.09375 8.765625 12.796875 14.4375 12.796875 17.921875 
L 12.796875 47 
z
" id="Computer_Modern_Bright-117"/>
       <path d="M 10.796875 60.5 
L 10.796875 47 
L 1.09375 47 
L 1.09375 42 
L 10.703125 42 
L 10.703125 15.1875 
C 10.703125 10.796875 10.40625 5.484375 13.296875 1.796875 
C 15 -0.40625 17.296875 -1.015625 20.796875 -0.703125 
C 23.703125 -0.515625 26.59375 0.09375 29.296875 1.09375 
C 30.203125 1.484375 33.5 2.890625 33.90625 3.59375 
C 34.09375 3.984375 32.796875 8.390625 32.796875 8.390625 
L 30.40625 6.59375 
C 27.296875 4.6875 21.09375 2.6875 18.5 6.296875 
C 16.203125 9.390625 16.796875 13.984375 16.796875 17.59375 
L 16.796875 42 
L 32.296875 42 
L 32.296875 47 
L 16.796875 47 
L 16.796875 60.5 
z
" id="Computer_Modern_Bright-116"/>
      </defs>
      <use transform="scale(0.996264)" xlink:href="#Computer_Modern_Bright_Math_Slanted-120"/>
      <use transform="translate(45.661776 -14.943915)scale(0.697382)" xlink:href="#Computer_Modern_Bright-49"/>
      <use transform="translate(103.7492 0)scale(0.996264)" xlink:href="#Computer_Modern_Bright-43"/>
      <use transform="translate(201.714518 0)scale(0.996264)" xlink:href="#Computer_Modern_Bright_Math_Slanted-120"/>
      <use transform="translate(247.376294 -14.943915)scale(0.697382)" xlink:href="#Computer_Modern_Bright-50"/>
      <use transform="translate(314.789723 0)scale(0.996264)" xlink:href="#Computer_Modern_Bright-40"/>
      <use transform="translate(353.809932 0)scale(0.996264)" xlink:href="#Computer_Modern_Bright-105"/>
      <use transform="translate(372.90489 0)scale(0.996264)" xlink:href="#Computer_Modern_Bright-110"/>
      <use transform="translate(421.057387 0)scale(0.996264)" xlink:href="#Computer_Modern_Bright-112"/>
      <use transform="translate(469.209884 0)scale(0.996264)" xlink:href="#Computer_Modern_Bright-117"/>
      <use transform="translate(517.362381 0)scale(0.996264)" xlink:href="#Computer_Modern_Bright-116"/>
      <use transform="translate(553.476769 0)scale(0.996264)" xlink:href="#Computer_Modern_Bright-41"/>
     </g>
    </g>
    <g id="line2d_16">
     <path d="M 49.864991 91.322437 
L 69.864991 91.322437 
" style="fill:none;stroke:#ff7f0e;stroke-linecap:square;stroke-width:1.5;"/>
    </g>
    <g id="line2d_17"/>
    <g id="text_6">
     <!-- $x_1$ (low-frequency signal) -->
     <g transform="translate(77.864991 94.822437)scale(0.1 -0.1)">
      <defs>
       <path d="M 6.40625 69 
L 6.40625 0 
L 12.703125 0 
L 12.703125 69 
z
" id="Computer_Modern_Bright-108"/>
       <path d="M 10.703125 41.8125 
C 1.796875 33.125 0.796875 18.015625 8.5 8.25 
C 9.59375 6.765625 10.90625 5.484375 12.40625 4.390625 
C 16.09375 1.390625 21.5 -0.8125 27.796875 -0.109375 
C 37.796875 1.09375 44.703125 9.140625 46.796875 17.53125 
C 49.59375 29.265625 43.703125 42.390625 32.703125 46.59375 
C 24.09375 50.09375 15.5 46.59375 10.703125 41.8125 
z
M 35.703125 39.234375 
C 40.5 35 41.40625 28.1875 41 22.171875 
C 40.703125 17.53125 39.40625 12.6875 36.09375 9.234375 
C 30.703125 3.484375 20.703125 3.484375 14.90625 9.03125 
C 11.90625 12.203125 10.09375 16.734375 9.796875 22.171875 
C 9.296875 30.15625 11.296875 38.640625 19.296875 41.8125 
C 25.203125 44.390625 32 42.5 35.703125 39.234375 
z
" id="Computer_Modern_Bright-111"/>
       <path d="M 0.703125 47 
C 0.90625 45.6875 14.40625 0.796875 14.40625 0.796875 
C 14.703125 -0.109375 15.203125 -0.109375 16.5 -0.109375 
L 19.59375 -0.109375 
C 20.09375 -0.109375 20.796875 -0.203125 21.09375 0.1875 
C 21.40625 0.484375 22.296875 3.6875 22.296875 3.6875 
C 25.296875 14.40625 30.5 30.59375 32.5 40.625 
L 32.59375 40.625 
C 32.59375 39.234375 33.09375 37.84375 33.40625 36.453125 
C 35 29.40625 43.5 0.890625 43.90625 0.1875 
C 44.203125 -0.3125 45 -0.109375 45.5 -0.109375 
L 49.296875 -0.109375 
C 49.796875 -0.109375 50.5 -0.203125 50.90625 -0.015625 
C 51.203125 0.1875 51.296875 0.59375 51.40625 0.890625 
C 54.40625 11.421875 64.703125 44.6875 65.09375 47 
C 63 47 60.90625 47.09375 59.09375 46.796875 
L 58.703125 45.796875 
C 54.90625 32.671875 50.796875 19.96875 47.40625 6.453125 
L 47.296875 6.453125 
L 46.203125 11.03125 
L 35.703125 47 
L 29.796875 47 
C 26 33.46875 21.59375 20.5625 18.40625 6.453125 
L 16.703125 13.40625 
C 13.40625 24.53125 10.296875 35.859375 6.90625 46.796875 
C 5.09375 47.09375 2.796875 47 0.703125 47 
z
" id="Computer_Modern_Bright-119"/>
       <path d="M 0.40625 26 
L 0.40625 21 
L 28.296875 21 
L 28.296875 26 
z
" id="Computer_Modern_Bright-45"/>
       <path d="M 10.59375 47 
L 2 47 
L 2 42 
L 10.59375 42 
L 10.59375 0 
L 16.90625 0 
L 16.90625 42 
L 29.296875 42 
L 29.296875 47 
L 16.796875 47 
L 16.796875 55.84375 
C 16.796875 57.265625 16.5 58.984375 17.09375 60.421875 
C 19.203125 64.890625 26.296875 65.6875 32.09375 64.6875 
C 33.296875 64.484375 34.40625 64.078125 35.59375 63.875 
L 35.59375 69.484375 
C 28.796875 70.390625 21.296875 70.890625 15.703125 66.296875 
C 14.796875 65.484375 14 64.6875 13.296875 63.671875 
C 11.203125 61.03125 10.59375 58.078125 10.59375 53.5 
z
" id="Computer_Modern_Bright-102"/>
       <path d="M 12.5 34.515625 
L 12.40625 34.4375 
L 12.40625 47 
L 6.40625 47 
L 6.40625 0 
L 12.703125 0 
L 12.703125 22.703125 
C 12.703125 24.1875 12.703125 25.6875 12.90625 27.171875 
C 14.296875 35.703125 21.703125 42 31.40625 42 
L 31.40625 47.6875 
C 25 47.6875 19.09375 44.59375 15.296875 39.5 
C 14.203125 38 13 36.3125 12.5 34.515625 
z
" id="Computer_Modern_Bright-114"/>
       <path d="M 41.796875 10.71875 
C 39.5 8.984375 38.796875 8.0625 35.90625 6.546875 
C 29.796875 3.390625 22.59375 3 17.40625 6.75 
C 12.40625 10.40625 9.5 16.421875 9.5 25 
L 42.5 25 
C 42.5 32.375 40.796875 38.71875 36.59375 43.1875 
C 32 47.6875 24.796875 49.09375 18.703125 47.1875 
C 16.40625 46.5 14.296875 45.296875 12.40625 43.796875 
C 6.09375 38.71875 3.40625 30.671875 3.5 22.75 
C 3.703125 12.140625 10.796875 1.59375 21.296875 -0.609375 
C 26.796875 -1.703125 32.59375 -0.5 37.5 2 
C 38.40625 2.5 41.703125 4.296875 42.09375 5.21875 
C 42.40625 5.71875 41.796875 10.71875 41.796875 10.71875 
z
M 37.203125 28.890625 
L 10 28.890625 
C 11.203125 36.140625 17.203125 43.796875 25.296875 42.890625 
C 31.90625 42.296875 35.40625 37.625 36.703125 31.765625 
C 36.90625 30.78125 37 29.890625 37.203125 28.890625 
z
" id="Computer_Modern_Bright-101"/>
       <path d="M 35.40625 7.09375 
L 35.5 7.09375 
L 35.5 -17 
L 41.90625 -17 
L 41.90625 47.5 
L 35.59375 47.5 
L 35.59375 39.390625 
C 33.703125 42.796875 31.796875 45.296875 27.90625 46.796875 
C 22.09375 48.890625 15.40625 46.203125 11.203125 42.09375 
C 10.296875 41.203125 9.5 40.203125 8.703125 39.09375 
C 2.09375 29.890625 2.40625 16.09375 8.796875 6.890625 
C 12.59375 1.5 19 -2 25.59375 -0.609375 
C 26.796875 -0.3125 27.796875 0.09375 28.90625 0.59375 
C 31.5 1.890625 34.203125 4.6875 35.40625 7.09375 
z
M 25.5 42.390625 
C 26.40625 42.390625 27.40625 42.390625 28.296875 42.203125 
C 31.796875 41.5 33.796875 38.5 35 35.296875 
C 35.703125 33.1875 35.59375 33.5 35.59375 30.296875 
L 35.59375 14 
C 35.59375 11.796875 35.40625 11.6875 34.40625 9.6875 
C 32.59375 6.6875 29.796875 4.390625 26.296875 4.09375 
C 19.296875 3.5 13.703125 9.296875 11.59375 15.390625 
C 8.796875 23.5 10.40625 33.6875 17.5 39.203125 
C 19.796875 40.890625 22 42 25.5 42.390625 
z
" id="Computer_Modern_Bright-113"/>
       <path d="M 42.40625 11.515625 
C 40.5 10.140625 38.796875 8.65625 36.703125 7.46875 
C 32 5 24.796875 3.796875 19.40625 6.28125 
C 11.59375 10.234375 9.5 19.828125 10.59375 27.75 
C 10.796875 29.328125 11.09375 30.921875 11.59375 32.40625 
C 13.796875 38.828125 19.296875 43.890625 28.296875 42.890625 
C 33.09375 42.5 35.5 41.703125 39.296875 39.625 
C 40 39.234375 40.59375 38.734375 41.40625 38.53125 
C 41.5 39.71875 41.796875 41.015625 42 42.203125 
C 42.296875 43.796875 42.296875 44 40.796875 44.6875 
C 39.703125 45.1875 38.59375 45.796875 37.40625 46.1875 
C 32.796875 48.1875 25.203125 48.796875 20 47.296875 
C 12.90625 45.296875 7.59375 39.234375 5.296875 32.5 
C 4.203125 29.4375 3.90625 26.171875 3.90625 22.90625 
C 4 12.515625 11.203125 2.296875 21.703125 0.1875 
C 27.5 -1.015625 34.203125 0.6875 38.203125 2.796875 
C 39.203125 3.296875 42.203125 5.09375 42.703125 5.984375 
C 43 6.46875 42.40625 11.515625 42.40625 11.515625 
z
" id="Computer_Modern_Bright-99"/>
       <path d="M 0.703125 47 
C 1.296875 45.09375 5.40625 35.0625 5.5 34.765625 
L 17.40625 4.375 
L 18.40625 1.890625 
C 19 0.5 19.203125 0.3125 18.59375 -1.28125 
L 17.5 -4.15625 
C 16.59375 -6.546875 15.59375 -9.03125 13.703125 -10.515625 
C 10.296875 -13.3125 4.90625 -11.703125 0.796875 -10.8125 
L 1.296875 -16.40625 
C 3.203125 -16.703125 5.09375 -16.90625 7 -17.015625 
C 11.296875 -17.515625 14.09375 -16.515625 16.703125 -14.3125 
C 20 -11.515625 21.59375 -7.640625 23.09375 -3.671875 
L 26.203125 4.875 
L 36.40625 32.375 
C 38.09375 37.34375 40.203125 42.015625 41.796875 47 
L 37.296875 47 
C 36.796875 47 36 47.1875 35.59375 46.796875 
C 35.40625 46.5 35.296875 46.09375 35.203125 45.796875 
L 34.40625 43.703125 
C 33.40625 41.125 32.5 38.640625 31.59375 36.0625 
L 25.796875 19.875 
C 24.296875 15.5 22.59375 11.03125 21.796875 6.46875 
C 20.703125 11.03125 19.203125 15.40625 17.59375 19.765625 
C 16.296875 23.140625 8.5 43.90625 7.5 45.890625 
C 7.09375 47 6.703125 47 5.203125 47 
z
" id="Computer_Modern_Bright-121"/>
       <path d="M 3.09375 10.21875 
C 2.90625 8.84375 2.59375 7.5625 2.40625 6.171875 
C 2.203125 5.09375 1.90625 4.59375 2.90625 4.09375 
C 7 1.6875 11.90625 0.390625 17.703125 -0.109375 
C 24.203125 -0.703125 32.40625 0.796875 35.59375 7.15625 
C 36.5 8.9375 37 10.921875 37.09375 12.890625 
C 37.5 20 31.796875 24.53125 26.90625 26.21875 
C 21.40625 28.28125 13.90625 27.59375 10.09375 31.75 
C 8.09375 34.015625 8 37.375 9.90625 39.734375 
C 13.90625 45.296875 26.796875 42.890625 31.90625 40.421875 
C 32.703125 40.03125 33.40625 39.546875 34.296875 39.34375 
L 35.203125 44.6875 
C 30.5 46.796875 26.40625 48 19.90625 48 
C 14.296875 48 9.203125 46.6875 6 43.484375 
C 2.796875 40.234375 1.703125 34.796875 3.59375 30.65625 
C 5.40625 26.703125 9.203125 24.140625 13.296875 22.859375 
C 19.203125 20.78125 25.90625 21.765625 29.796875 17.03125 
C 32 14.265625 31.59375 10.125 29.09375 7.65625 
C 24.296875 3.296875 14.09375 4.890625 8.5 7.265625 
C 6.59375 8.046875 4.90625 9.234375 3.09375 10.21875 
z
" id="Computer_Modern_Bright-115"/>
       <path d="M 35.40625 12 
L 35.5 12 
L 35.5 2.6875 
C 35.5 -0.109375 35.5 -2.8125 34.59375 -5.515625 
C 33.09375 -9.109375 30.5 -12.40625 26.203125 -13.015625 
C 25 -13.109375 23.703125 -13.015625 22.5 -12.90625 
C 16 -12.703125 11.703125 -10.8125 6.5 -8.515625 
L 6.5 -12.3125 
C 6.5 -14.203125 6.796875 -14.3125 8.703125 -14.90625 
C 13.796875 -17.015625 23 -19.109375 29.296875 -17.515625 
C 36.296875 -15.703125 41.40625 -9.109375 41.90625 -1.109375 
C 42 0.296875 41.90625 1.796875 41.90625 3.1875 
L 41.90625 47.796875 
L 35.59375 47.796875 
L 35.59375 39.796875 
C 34.09375 42.296875 32.5 44.59375 29.90625 46.1875 
C 22.90625 50.390625 13.40625 45.796875 9.5 40.390625 
C 3.09375 32.5 1.90625 20.296875 7 11.5 
C 8 9.796875 9.203125 8.1875 10.59375 6.796875 
C 15.40625 2.09375 23.59375 -0.40625 29.5 3.796875 
C 31.90625 5.390625 34.703125 9.09375 35.40625 12 
z
M 25.5 42.796875 
C 26.40625 42.796875 27.40625 42.796875 28.296875 42.59375 
C 31.90625 41.890625 33.90625 38.6875 35.09375 35.5 
C 35.796875 33.296875 35.59375 30.890625 35.59375 28.59375 
C 35.59375 23.59375 35.5 18.390625 33.796875 13.6875 
C 32.59375 10.1875 30.09375 7.09375 26.203125 6.6875 
C 24.90625 6.59375 23.59375 6.796875 22.296875 7.09375 
C 16.203125 8.5 12 13.6875 10.703125 19.6875 
C 8.90625 28.390625 13.203125 39 22 42 
C 23.09375 42.390625 24.296875 42.6875 25.5 42.796875 
z
" id="Computer_Modern_Bright-103"/>
       <path d="M 7.90625 38.375 
C 9.59375 39.140625 11 40.296875 12.703125 41.078125 
C 15.40625 42.234375 18.203125 43 21.203125 43.203125 
C 22.59375 43.296875 24.203125 43.484375 25.59375 43.203125 
C 28.09375 42.8125 30.296875 41.359375 31.796875 39.34375 
C 33.296875 37.03125 33.90625 35 33.90625 31.234375 
L 33.90625 27 
C 29.09375 27 24.296875 26.59375 19.703125 25.390625 
C 13.90625 24.09375 7.59375 21.125 5.5 15.8125 
C 3.40625 10.6875 5.59375 3.9375 10.09375 0.890625 
C 12.296875 -0.609375 14.90625 -0.703125 17.5 -0.515625 
C 21.703125 -0.203125 25.90625 0.796875 29.5 3.015625 
C 31.203125 4.03125 32.90625 5.375 33.90625 7.109375 
L 34 7.109375 
L 34 0 
L 40.296875 0 
L 40.296875 26.890625 
C 40.296875 29.6875 40.59375 32.6875 40 35.484375 
C 39.40625 39.34375 36.90625 42.515625 34 44.796875 
C 30.59375 47.390625 26.703125 48.296875 21.5 47.890625 
C 16.703125 47.6875 13 46.484375 9.40625 44.796875 
C 8.90625 44.59375 7.90625 44.296875 7.59375 43.6875 
C 7.296875 43.296875 7.5 42.625 7.5 42.140625 
C 7.703125 40.890625 7.796875 39.625 7.90625 38.375 
z
M 33.90625 23.984375 
L 33.90625 16.21875 
C 33.90625 13.859375 34 11.71875 32.703125 9.671875 
C 31.59375 8.03125 30.09375 6.90625 28.5 6.078125 
C 22.796875 3.109375 14.09375 4.03125 11.59375 8.953125 
C 9.59375 12.53125 11.703125 16.734375 14.59375 19.078125 
C 18.90625 22.453125 27.296875 23.984375 33.90625 23.984375 
z
" id="Computer_Modern_Bright-97"/>
      </defs>
      <use transform="scale(0.996264)" xlink:href="#Computer_Modern_Bright_Math_Slanted-120"/>
      <use transform="translate(45.661776 -14.943915)scale(0.697382)" xlink:href="#Computer_Modern_Bright-49"/>
      <use transform="translate(113.075205 0)scale(0.996264)" xlink:href="#Computer_Modern_Bright-40"/>
      <use transform="translate(152.095414 0)scale(0.996264)" xlink:href="#Computer_Modern_Bright-108"/>
      <use transform="translate(171.190373 0)scale(0.996264)" xlink:href="#Computer_Modern_Bright-111"/>
      <use transform="translate(218.927861 0)scale(0.996264)" xlink:href="#Computer_Modern_Bright-119"/>
      <use transform="translate(284.514902 0)scale(0.996264)" xlink:href="#Computer_Modern_Bright-45"/>
      <use transform="translate(317.723576 0)scale(0.996264)" xlink:href="#Computer_Modern_Bright-102"/>
      <use transform="translate(348.02652 0)scale(0.996264)" xlink:href="#Computer_Modern_Bright-114"/>
      <use transform="translate(379.989879 0)scale(0.996264)" xlink:href="#Computer_Modern_Bright-101"/>
      <use transform="translate(424.821546 0)scale(0.996264)" xlink:href="#Computer_Modern_Bright-113"/>
      <use transform="translate(472.974043 0)scale(0.996264)" xlink:href="#Computer_Modern_Bright-117"/>
      <use transform="translate(521.12654 0)scale(0.996264)" xlink:href="#Computer_Modern_Bright-101"/>
      <use transform="translate(565.958208 0)scale(0.996264)" xlink:href="#Computer_Modern_Bright-110"/>
      <use transform="translate(614.110705 0)scale(0.996264)" xlink:href="#Computer_Modern_Bright-99"/>
      <use transform="translate(658.942372 0)scale(0.996264)" xlink:href="#Computer_Modern_Bright-121"/>
      <use transform="translate(732.748622 0)scale(0.996264)" xlink:href="#Computer_Modern_Bright-115"/>
      <use transform="translate(771.187651 0)scale(0.996264)" xlink:href="#Computer_Modern_Bright-105"/>
      <use transform="translate(790.28261 0)scale(0.996264)" xlink:href="#Computer_Modern_Bright-103"/>
      <use transform="translate(838.435107 0)scale(0.996264)" xlink:href="#Computer_Modern_Bright-110"/>
      <use transform="translate(886.587604 0)scale(0.996264)" xlink:href="#Computer_Modern_Bright-97"/>
      <use transform="translate(933.079687 0)scale(0.996264)" xlink:href="#Computer_Modern_Bright-108"/>
      <use transform="translate(952.174645 0)scale(0.996264)" xlink:href="#Computer_Modern_Bright-41"/>
     </g>
    </g>
   </g>
  </g>
  <g id="axes_2">
   <g id="patch_8">
    <path d="M 40.864991 224.64 
L 375.664991 224.64 
L 375.664991 125.803636 
L 40.864991 125.803636 
z
" style="fill:#ffffff;"/>
   </g>
   <g id="matplotlib.axis_3">
    <g id="xtick_9">
     <g id="line2d_18">
      <g>
       <use style="stroke:#000000;stroke-width:0.8;" x="56.083173" xlink:href="#mb14320ead3" y="224.64"/>
      </g>
     </g>
     <g id="text_7">
      <!-- $\mathdefault{0}$ -->
      <g transform="translate(53.468003 238.558498)scale(0.1 -0.1)">
       <use transform="scale(0.996264)" xlink:href="#Computer_Modern_Bright-48"/>
      </g>
     </g>
    </g>
    <g id="xtick_10">
     <g id="line2d_19">
      <g>
       <use style="stroke:#000000;stroke-width:0.8;" x="96.692064" xlink:href="#mb14320ead3" y="224.64"/>
      </g>
     </g>
     <g id="text_8">
      <!-- $\mathdefault{2}$ -->
      <g transform="translate(94.076893 238.558498)scale(0.1 -0.1)">
       <use transform="scale(0.996264)" xlink:href="#Computer_Modern_Bright-50"/>
      </g>
     </g>
    </g>
    <g id="xtick_11">
     <g id="line2d_20">
      <g>
       <use style="stroke:#000000;stroke-width:0.8;" x="137.300954" xlink:href="#mb14320ead3" y="224.64"/>
      </g>
     </g>
     <g id="text_9">
      <!-- $\mathdefault{4}$ -->
      <g transform="translate(134.685784 238.558498)scale(0.1 -0.1)">
       <defs>
        <path d="M 2.09375 18 
L 31 18 
L 31 0 
L 37.296875 0 
L 37.296875 18 
L 48.703125 18 
L 48.703125 23.296875 
L 37.296875 23.296875 
L 37.296875 66.09375 
L 31.90625 66.09375 
C 30.09375 66.09375 29.59375 66.1875 28.796875 64.6875 
C 24.796875 58.1875 3.703125 25.6875 3 24.796875 
C 2.203125 23.390625 2.09375 23.5 2.09375 21.390625 
z
M 31.296875 60.6875 
L 31.296875 23.296875 
L 8.59375 23.296875 
C 9.296875 24.6875 10.296875 26 11.203125 27.390625 
C 16.203125 35.09375 28.09375 53.390625 30.59375 59.09375 
C 30.90625 59.59375 31 60.1875 31.296875 60.6875 
z
" id="Computer_Modern_Bright-52"/>
       </defs>
       <use transform="scale(0.996264)" xlink:href="#Computer_Modern_Bright-52"/>
      </g>
     </g>
    </g>
    <g id="xtick_12">
     <g id="line2d_21">
      <g>
       <use style="stroke:#000000;stroke-width:0.8;" x="177.909845" xlink:href="#mb14320ead3" y="224.64"/>
      </g>
     </g>
     <g id="text_10">
      <!-- $\mathdefault{6}$ -->
      <g transform="translate(175.294675 238.558498)scale(0.1 -0.1)">
       <defs>
        <path d="M 11.296875 32.796875 
L 11.203125 32.796875 
C 11.203125 41.921875 12.796875 52.5625 20.59375 58.375 
C 24.90625 61.484375 30.703125 63.09375 38.203125 61.28125 
C 39.796875 60.890625 41.296875 60.28125 42.796875 59.875 
L 42.796875 63.390625 
C 42.796875 63.796875 42.90625 64.484375 42.59375 64.890625 
C 41.90625 65.796875 36.296875 66.6875 36.09375 66.6875 
C 27.40625 67.6875 21.703125 65.796875 16.40625 61.28125 
C 10 55.765625 6.296875 47.640625 5.09375 39.40625 
C 4 32.796875 4.90625 22.15625 6.203125 16.9375 
C 8.296875 9.203125 12.296875 2.390625 19.703125 -0.203125 
C 24.09375 -1.8125 29.5 -1.515625 33.703125 0.484375 
C 37.09375 2.09375 39.90625 4.890625 42.09375 7.90625 
C 45.59375 12.71875 46.5 18.546875 46.09375 24.46875 
C 45.90625 27.375 45.5 30.28125 44.296875 32.984375 
C 42.40625 37.3125 39.203125 41.828125 35.09375 43.828125 
C 33.203125 44.625 31.203125 44.734375 29.203125 44.734375 
C 23.90625 44.625 18.90625 42.328125 15.203125 38.515625 
C 13.59375 36.90625 12 34.890625 11.296875 32.796875 
z
M 24.40625 39.71875 
C 28.203125 40.015625 32.203125 39.40625 35.09375 36.703125 
C 38.90625 33.09375 39.59375 27.96875 39.59375 23.0625 
C 39.59375 19.75 39.703125 16.328125 38.703125 13.21875 
C 38.09375 11.625 37.296875 10.21875 36.40625 8.90625 
C 34.203125 6 31.40625 4.59375 26.796875 4 
C 22.296875 3.6875 17.796875 5.5 15.203125 9.3125 
C 13.59375 11.515625 12.796875 14.234375 12.296875 16.84375 
C 11.703125 19.546875 11.296875 22.359375 11.5 25.0625 
C 12 32.1875 17 38.703125 24.40625 39.71875 
z
" id="Computer_Modern_Bright-54"/>
       </defs>
       <use transform="scale(0.996264)" xlink:href="#Computer_Modern_Bright-54"/>
      </g>
     </g>
    </g>
    <g id="xtick_13">
     <g id="line2d_22">
      <g>
       <use style="stroke:#000000;stroke-width:0.8;" x="218.518736" xlink:href="#mb14320ead3" y="224.64"/>
      </g>
     </g>
     <g id="text_11">
      <!-- $\mathdefault{8}$ -->
      <g transform="translate(215.903566 238.558498)scale(0.1 -0.1)">
       <defs>
        <path d="M 18.703125 35.546875 
L 18.703125 35.453125 
C 12.5 33.640625 7.296875 30.234375 4.796875 24.421875 
C 2.203125 18.3125 4 10.90625 8.40625 6.09375 
C 13.09375 1.09375 19.5 -1.3125 26.296875 -1.203125 
C 36.296875 -1.015625 45.90625 6.296875 47.09375 16.515625 
C 47.296875 18.015625 47.203125 19.625 47 21.125 
C 45.203125 28.828125 39.5 33.4375 32.09375 35.453125 
C 32.90625 35.75 33.796875 35.953125 34.59375 36.25 
C 38.796875 37.953125 42.296875 40.453125 44.5 44.46875 
C 47.796875 50.875 44.59375 58.390625 39.203125 62.5 
C 33.796875 66.59375 26.5 67.6875 19.90625 66.296875 
C 12 64.59375 4.5 57.890625 5 49.265625 
C 5.203125 46.265625 6.5 43.765625 8 41.953125 
C 10.296875 39.15625 14.796875 36.140625 18.703125 35.546875 
z
M 23.796875 61.890625 
C 28.203125 62.1875 33.703125 61.390625 36.90625 57.984375 
C 40.703125 53.875 40.90625 46.46875 37.09375 42.265625 
C 34.703125 39.65625 31.203125 38.359375 27.703125 38.046875 
C 22.796875 37.65625 17.203125 38.453125 13.703125 42.265625 
C 9.796875 46.5625 10.09375 54.375 14.296875 58.390625 
C 16.90625 60.796875 20.40625 61.59375 23.796875 61.890625 
z
M 23.703125 32.9375 
C 28.40625 33.25 33.5 32.140625 36.90625 28.734375 
C 38.203125 27.328125 39.203125 25.625 39.796875 23.828125 
C 41.5 18.625 40.703125 12 36.796875 8 
C 34.09375 5.296875 30.40625 4.296875 26.703125 4 
C 22.203125 3.6875 17 4.796875 13.796875 8.203125 
C 9.40625 13.015625 8.5 22.921875 13.703125 28.53125 
C 16.296875 31.234375 20 32.640625 23.703125 32.9375 
z
" id="Computer_Modern_Bright-56"/>
       </defs>
       <use transform="scale(0.996264)" xlink:href="#Computer_Modern_Bright-56"/>
      </g>
     </g>
    </g>
    <g id="xtick_14">
     <g id="line2d_23">
      <g>
       <use style="stroke:#000000;stroke-width:0.8;" x="259.127627" xlink:href="#mb14320ead3" y="224.64"/>
      </g>
     </g>
     <g id="text_12">
      <!-- $\mathdefault{10}$ -->
      <g transform="translate(253.897286 238.558498)scale(0.1 -0.1)">
       <use transform="scale(0.996264)" xlink:href="#Computer_Modern_Bright-49"/>
       <use transform="translate(50.643218 0)scale(0.996264)" xlink:href="#Computer_Modern_Bright-48"/>
      </g>
     </g>
    </g>
    <g id="xtick_15">
     <g id="line2d_24">
      <g>
       <use style="stroke:#000000;stroke-width:0.8;" x="299.736517" xlink:href="#mb14320ead3" y="224.64"/>
      </g>
     </g>
     <g id="text_13">
      <!-- $\mathdefault{12}$ -->
      <g transform="translate(294.506177 238.558498)scale(0.1 -0.1)">
       <use transform="scale(0.996264)" xlink:href="#Computer_Modern_Bright-49"/>
       <use transform="translate(50.643218 0)scale(0.996264)" xlink:href="#Computer_Modern_Bright-50"/>
      </g>
     </g>
    </g>
    <g id="xtick_16">
     <g id="line2d_25">
      <g>
       <use style="stroke:#000000;stroke-width:0.8;" x="340.345408" xlink:href="#mb14320ead3" y="224.64"/>
      </g>
     </g>
     <g id="text_14">
      <!-- $\mathdefault{14}$ -->
      <g transform="translate(335.115068 238.558498)scale(0.1 -0.1)">
       <use transform="scale(0.996264)" xlink:href="#Computer_Modern_Bright-49"/>
       <use transform="translate(50.643218 0)scale(0.996264)" xlink:href="#Computer_Modern_Bright-52"/>
      </g>
     </g>
    </g>
    <g id="text_15">
     <!-- $t$ [s] -->
     <g transform="translate(199.397829 251.690908)scale(0.1 -0.1)">
      <defs>
       <path d="M 10.59375 75 
L 10.59375 -22.015625 
L 26.296875 -22.015625 
L 26.296875 -17 
L 16.703125 -17 
L 16.703125 70 
L 26.296875 70 
L 26.296875 75 
z
" id="Computer_Modern_Bright-91"/>
       <path d="M 1.5 75 
L 1.5 70 
L 11.09375 70 
L 11.09375 -17 
L 1.5 -17 
L 1.5 -22.015625 
L 17.203125 -22.015625 
L 17.203125 75 
z
" id="Computer_Modern_Bright-93"/>
      </defs>
      <use transform="scale(0.996264)" xlink:href="#Computer_Modern_Bright_Math_Slanted-116"/>
      <use transform="translate(76.915212 0)scale(0.996264)" xlink:href="#Computer_Modern_Bright-91"/>
      <use transform="translate(104.589099 0)scale(0.996264)" xlink:href="#Computer_Modern_Bright-115"/>
      <use transform="translate(143.028128 0)scale(0.996264)" xlink:href="#Computer_Modern_Bright-93"/>
     </g>
    </g>
   </g>
   <g id="matplotlib.axis_4">
    <g id="ytick_4">
     <g id="line2d_26">
      <g>
       <use style="stroke:#000000;stroke-width:0.8;" x="40.864991" xlink:href="#md1b82eccde" y="212.075421"/>
      </g>
     </g>
     <g id="text_16">
      <!-- $\mathdefault{−1}$ -->
      <g transform="translate(20.885907 215.53467)scale(0.1 -0.1)">
       <use transform="scale(0.996264)" xlink:href="#Computer_Modern_Bright_Math_Symbols-0"/>
       <use transform="translate(77.487468 0)scale(0.996264)" xlink:href="#Computer_Modern_Bright-49"/>
      </g>
     </g>
    </g>
    <g id="ytick_5">
     <g id="line2d_27">
      <g>
       <use style="stroke:#000000;stroke-width:0.8;" x="40.864991" xlink:href="#md1b82eccde" y="175.313595"/>
      </g>
     </g>
     <g id="text_17">
      <!-- $\mathdefault{0}$ -->
      <g transform="translate(28.634651 178.772844)scale(0.1 -0.1)">
       <use transform="scale(0.996264)" xlink:href="#Computer_Modern_Bright-48"/>
      </g>
     </g>
    </g>
    <g id="ytick_6">
     <g id="line2d_28">
      <g>
       <use style="stroke:#000000;stroke-width:0.8;" x="40.864991" xlink:href="#md1b82eccde" y="138.551769"/>
      </g>
     </g>
     <g id="text_18">
      <!-- $\mathdefault{1}$ -->
      <g transform="translate(28.634651 142.011018)scale(0.1 -0.1)">
       <use transform="scale(0.996264)" xlink:href="#Computer_Modern_Bright-49"/>
      </g>
     </g>
    </g>
    <g id="text_19">
     <!-- $y(t)$ -->
     <g transform="translate(14.67198 184.418083)rotate(-90)scale(0.1 -0.1)">
      <defs>
       <path d="M 11.5 47 
C 12 43.484375 12.796875 40.0625 13.5 36.65625 
L 19.703125 4.578125 
C 19.90625 3.78125 20.703125 0.46875 20.59375 -0.234375 
C 20.59375 -0.84375 20.203125 -1.34375 19.90625 -1.84375 
C 19.203125 -2.859375 18.59375 -3.953125 18 -4.96875 
C 16.296875 -7.875 14 -11.40625 10.59375 -12.609375 
C 7.703125 -13.703125 2.09375 -12.203125 0.09375 -11.703125 
L -0.609375 -17.3125 
C 2 -17.703125 7 -18.3125 9.59375 -17.8125 
C 16.5 -16.3125 20.796875 -9.484375 23.703125 -4.46875 
L 51.40625 42.078125 
L 53.09375 45 
C 53.5 45.6875 53.90625 46.296875 54.203125 47 
C 52.09375 47 49.796875 47.09375 48 46.796875 
C 45.5 43.390625 43.59375 39.359375 41.296875 35.75 
L 30 16.140625 
C 28.203125 12.828125 26.296875 9.609375 24.796875 5.984375 
C 24.59375 10.8125 23.796875 15.640625 22.90625 20.359375 
C 22.40625 22.984375 18.40625 46.09375 17.90625 46.796875 
C 17.5 47.1875 16.703125 47 16.203125 47 
z
" id="Computer_Modern_Bright_Math_Slanted-121"/>
      </defs>
      <use transform="scale(0.996264)" xlink:href="#Computer_Modern_Bright_Math_Slanted-121"/>
      <use transform="translate(57.11451 0)scale(0.996264)" xlink:href="#Computer_Modern_Bright-40"/>
      <use transform="translate(96.134719 0)scale(0.996264)" xlink:href="#Computer_Modern_Bright_Math_Slanted-116"/>
      <use transform="translate(141.584719 0)scale(0.996264)" xlink:href="#Computer_Modern_Bright-41"/>
     </g>
    </g>
   </g>
   <g id="line2d_29">
    <path clip-path="url(#pb24c38de6b)" d="M 56.083173 175.313595 
L 56.286217 174.40415 
L 56.692306 170.537677 
L 57.504484 161.741375 
L 57.707528 160.778154 
L 57.910573 160.625453 
L 58.113617 161.306335 
L 58.519706 164.835385 
L 59.534929 176.294377 
L 59.737973 177.084487 
L 59.941017 176.991517 
L 60.144062 175.998232 
L 60.550151 171.665413 
L 61.565373 157.363259 
L 61.768418 155.892132 
L 61.971462 155.274162 
L 62.174506 155.529372 
L 62.377551 156.591554 
L 62.78364 160.488045 
L 63.392773 167.079733 
L 63.595818 168.435181 
L 63.798862 169.031189 
L 64.001907 168.764864 
L 64.204951 167.617582 
L 64.61104 163.029813 
L 65.626262 148.350207 
L 65.829307 146.841009 
L 66.032351 146.195694 
L 66.235396 146.433644 
L 66.43844 147.488059 
L 66.844529 151.395331 
L 67.453662 158.06186 
L 67.859751 160.097539 
L 68.062796 159.882564 
L 68.26584 158.792376 
L 68.671929 154.334906 
L 69.687151 140.063814 
L 69.890196 138.648852 
L 70.09324 138.101536 
L 70.296285 138.441091 
L 70.499329 139.600568 
L 70.905418 143.727789 
L 71.514551 150.746936 
L 71.92064 153.031522 
L 72.123685 152.944846 
L 72.326729 151.985396 
L 72.732818 147.796375 
L 73.74804 134.233375 
L 73.951085 132.965784 
L 74.154129 132.567597 
L 74.357174 133.057977 
L 74.763263 136.356778 
L 75.778485 147.979506 
L 75.981529 148.908835 
L 76.184574 148.98559 
L 76.387618 148.190699 
L 76.793707 144.333965 
L 77.808929 131.617819 
L 78.011974 130.521969 
L 78.215018 130.296198 
L 78.418063 130.959623 
L 78.824152 134.606206 
L 79.839374 147.106058 
L 80.042418 148.211753 
L 80.245463 148.465078 
L 80.448507 147.846916 
L 80.854596 144.343934 
L 81.869818 132.511753 
L 82.072863 131.592263 
L 82.275907 131.542604 
L 82.478952 132.381846 
L 82.885041 136.379005 
L 83.900263 149.747068 
L 84.103307 151.024645 
L 84.306352 151.449166 
L 84.509396 151.001469 
L 84.915485 147.837059 
L 85.930708 136.835581 
L 86.133752 136.079204 
L 86.336796 136.191555 
L 86.539841 137.191663 
L 86.94593 141.506962 
L 87.961152 155.647595 
L 88.164197 157.075475 
L 88.367241 157.648807 
L 88.570285 157.348392 
L 88.77333 156.241202 
L 89.179419 152.258057 
L 89.788552 145.553859 
L 90.194641 143.545077 
L 90.397686 143.789364 
L 90.60073 144.919534 
L 91.006819 149.489207 
L 92.022041 164.230789 
L 92.225086 165.772622 
L 92.42813 166.457762 
L 92.631175 166.266982 
L 92.834219 165.267227 
L 93.240308 161.492244 
L 93.849441 155.083142 
L 94.052486 153.790654 
L 94.25553 153.259376 
L 94.458575 153.592588 
L 94.661619 154.809263 
L 95.067708 159.544606 
L 96.08293 174.656617 
L 96.489019 177.013878 
L 96.692064 176.884344 
L 96.895108 175.943214 
L 97.301197 172.277567 
L 97.91033 166.012481 
L 98.113375 164.762619 
L 98.316419 164.271262 
L 98.519464 164.641676 
L 98.722508 165.892828 
L 99.128597 170.688913 
L 100.143819 185.904557 
L 100.549908 188.283876 
L 100.752953 188.1612 
L 100.955997 187.224148 
L 101.362086 183.558303 
L 101.971219 177.27205 
L 102.174264 176.009574 
L 102.377308 175.502826 
L 102.580353 175.855079 
L 102.783397 177.085304 
L 103.189486 181.831254 
L 104.204708 196.873589 
L 104.610797 199.164574 
L 104.813842 198.993699 
L 105.016886 198.005775 
L 105.422975 194.230219 
L 106.032108 187.759688 
L 106.235153 186.430589 
L 106.438197 185.854649 
L 106.641242 186.135154 
L 106.844286 187.291094 
L 107.250375 191.880942 
L 108.265597 206.489989 
L 108.468642 207.973995 
L 108.671686 208.590896 
L 108.874731 208.321482 
L 109.077775 207.232716 
L 109.483864 203.248674 
L 110.092998 196.448792 
L 110.499086 194.313421 
L 110.702131 194.475616 
L 110.905175 195.511187 
L 111.311264 199.854242 
L 112.326487 213.812436 
L 112.529531 215.160721 
L 112.732575 215.640127 
L 112.93562 215.231479 
L 113.341709 212.097621 
L 114.356931 200.895182 
L 114.559976 200.05114 
L 114.76302 200.060041 
L 114.966064 200.940942 
L 115.372153 204.970674 
L 116.387376 218.12416 
L 116.59042 219.308151 
L 116.793465 219.62224 
L 116.996509 219.047292 
L 117.402598 215.578052 
L 118.41782 203.522863 
L 118.620865 202.506157 
L 118.823909 202.341789 
L 119.026954 203.048856 
L 119.433042 206.729406 
L 120.448265 219.003097 
L 120.651309 220.010305 
L 120.854354 220.147438 
L 121.057398 219.395404 
L 121.463487 215.571777 
L 122.478709 202.631415 
L 122.681754 201.438159 
L 122.884798 201.097504 
L 123.087843 201.628593 
L 123.493932 204.958279 
L 124.509154 216.363213 
L 124.712198 217.198452 
L 124.915243 217.16431 
L 125.118287 216.241738 
L 125.524376 212.07941 
L 126.539598 198.308097 
L 126.742643 196.951688 
L 126.945687 196.448988 
L 127.148732 196.819178 
L 127.351776 197.995268 
L 127.757865 202.113526 
L 128.366998 209.013423 
L 128.773087 211.147836 
L 128.976132 210.964867 
L 129.179176 209.894997 
L 129.585265 205.442808 
L 130.600487 190.976106 
L 130.803532 189.485912 
L 131.006576 188.851268 
L 131.209621 189.091389 
L 131.412665 190.139317 
L 131.818754 194.007097 
L 132.427888 200.546351 
L 132.630932 201.879769 
L 132.833976 202.450732 
L 133.037021 202.155952 
L 133.240065 200.976444 
L 133.646154 196.311608 
L 134.661376 181.353149 
L 135.067465 179.048063 
L 135.27051 179.201677 
L 135.473554 180.165538 
L 135.879643 183.872587 
L 136.488777 190.189545 
L 136.691821 191.453951 
L 136.894865 191.958475 
L 137.09791 191.599844 
L 137.300954 190.35909 
L 137.707043 185.579636 
L 138.722266 170.381188 
L 139.128354 167.998978 
L 139.331399 168.118115 
L 139.534443 169.050234 
L 139.940532 172.702033 
L 140.549666 178.9568 
L 140.75271 180.206013 
L 140.955755 180.698118 
L 141.158799 180.329848 
L 141.361843 179.082235 
L 141.767932 174.29741 
L 142.783155 159.134235 
L 143.189244 156.785576 
L 143.392288 156.92564 
L 143.595332 157.881449 
L 144.001421 161.588887 
L 144.610555 167.947657 
L 144.813599 169.236982 
L 145.016644 169.771906 
L 145.219688 169.44915 
L 145.422733 168.249736 
L 145.828821 163.569316 
L 146.844044 148.713219 
L 147.047088 147.176365 
L 147.250133 146.505501 
L 147.453177 146.719849 
L 147.656222 147.75246 
L 148.06231 151.62098 
L 148.671444 158.239766 
L 149.077533 160.24937 
L 149.280577 160.022828 
L 149.483622 158.921954 
L 149.889711 154.445492 
L 150.904933 140.138223 
L 151.107977 138.717593 
L 151.311022 138.16504 
L 151.514066 138.499757 
L 151.717111 139.654764 
L 152.1232 143.774042 
L 152.732333 150.783403 
L 153.138422 153.062644 
L 153.341466 152.973597 
L 153.544511 152.011957 
L 153.9506 147.819043 
L 154.965822 134.248627 
L 155.168866 132.979874 
L 155.371911 132.580614 
L 155.574955 133.070002 
L 155.981044 136.367041 
L 156.996266 147.986411 
L 157.199311 148.915214 
L 157.402355 148.991484 
L 157.6054 148.196143 
L 158.011489 144.338612 
L 159.026711 131.620945 
L 159.229755 130.524857 
L 159.4328 130.298867 
L 159.635844 130.962088 
L 160.041933 134.60831 
L 161.057155 147.107474 
L 161.2602 148.21306 
L 161.463244 148.466286 
L 161.666289 147.848032 
L 162.072378 144.344887 
L 163.0876 132.512394 
L 163.290644 131.592855 
L 163.493689 131.543151 
L 163.696733 132.382351 
L 164.102822 136.379436 
L 165.118045 149.747358 
L 165.321089 151.024913 
L 165.524133 151.449414 
L 165.727178 151.001698 
L 166.133267 147.837254 
L 167.148489 136.835712 
L 167.351534 136.079326 
L 167.554578 136.191667 
L 167.757622 137.191766 
L 168.163711 141.50705 
L 169.178934 155.647655 
L 169.381978 157.07553 
L 169.585023 157.648857 
L 169.788067 157.348439 
L 169.991111 156.241246 
L 170.3972 152.258094 
L 171.006334 145.553888 
L 171.412423 143.545102 
L 171.615467 143.789387 
L 171.818512 144.919555 
L 172.2246 149.489225 
L 173.239823 164.230801 
L 173.442867 165.772633 
L 173.645912 166.457772 
L 173.848956 166.266991 
L 174.052001 165.267236 
L 174.458089 161.492252 
L 175.067223 155.083148 
L 175.270267 153.790659 
L 175.473312 153.259381 
L 175.676356 153.592592 
L 175.879401 154.809267 
L 176.28549 159.54461 
L 177.300712 174.656619 
L 177.706801 177.01388 
L 177.909845 176.884346 
L 178.11289 175.943216 
L 178.518979 172.277569 
L 179.128112 166.012482 
L 179.331156 164.76262 
L 179.534201 164.271263 
L 179.737245 164.641677 
L 179.94029 165.892829 
L 180.346379 170.688914 
L 181.361601 185.904558 
L 181.76769 188.283876 
L 181.970734 188.161201 
L 182.173779 187.224148 
L 182.579868 183.558303 
L 183.189001 177.27205 
L 183.392045 176.009574 
L 183.59509 175.502826 
L 183.798134 175.85508 
L 184.001179 177.085304 
L 184.407268 181.831254 
L 185.42249 196.873589 
L 185.828579 199.164574 
L 186.031623 198.9937 
L 186.234668 198.005775 
L 186.640757 194.230219 
L 187.24989 187.759688 
L 187.452935 186.430589 
L 187.655979 185.854649 
L 187.859023 186.135154 
L 188.062068 187.291095 
L 188.468157 191.880942 
L 189.483379 206.489989 
L 189.686423 207.973995 
L 189.889468 208.590896 
L 190.092512 208.321482 
L 190.295557 207.232716 
L 190.701646 203.248674 
L 191.310779 196.448792 
L 191.716868 194.313421 
L 191.919912 194.475616 
L 192.122957 195.511187 
L 192.529046 199.854242 
L 193.544268 213.812436 
L 193.747313 215.160721 
L 193.950357 215.640127 
L 194.153401 215.231479 
L 194.55949 212.097621 
L 195.574713 200.895182 
L 195.777757 200.05114 
L 195.980802 200.060041 
L 196.183846 200.940942 
L 196.589935 204.970674 
L 197.605157 218.12416 
L 197.808202 219.308151 
L 198.011246 219.62224 
L 198.214291 219.047292 
L 198.620379 215.578052 
L 199.635602 203.522863 
L 199.838646 202.506157 
L 200.041691 202.341789 
L 200.244735 203.048856 
L 200.650824 206.729406 
L 201.666046 219.003097 
L 201.869091 220.010305 
L 202.072135 220.147438 
L 202.27518 219.395404 
L 202.681269 215.571777 
L 203.696491 202.631415 
L 203.899535 201.438159 
L 204.10258 201.097504 
L 204.305624 201.628593 
L 204.711713 204.958279 
L 205.726935 216.363213 
L 205.92998 217.198452 
L 206.133024 217.16431 
L 206.336069 216.241738 
L 206.742158 212.07941 
L 207.75738 198.308097 
L 207.960424 196.951688 
L 208.163469 196.448988 
L 208.366513 196.819178 
L 208.569558 197.995268 
L 208.975647 202.113526 
L 209.58478 209.013423 
L 209.990869 211.147836 
L 210.193913 210.964867 
L 210.396958 209.894997 
L 210.803047 205.442808 
L 211.818269 190.976106 
L 212.021313 189.485912 
L 212.224358 188.851268 
L 212.427402 189.091389 
L 212.630447 190.139317 
L 213.036536 194.007097 
L 213.645669 200.546351 
L 213.848714 201.879769 
L 214.051758 202.450732 
L 214.254802 202.155952 
L 214.457847 200.976444 
L 214.863936 196.311608 
L 215.879158 181.353149 
L 216.285247 179.048063 
L 216.488291 179.201677 
L 216.691336 180.165538 
L 217.097425 183.872587 
L 217.706558 190.189545 
L 217.909603 191.453951 
L 218.112647 191.958475 
L 218.315691 191.599844 
L 218.518736 190.35909 
L 218.924825 185.579636 
L 219.940047 170.381188 
L 220.346136 167.998978 
L 220.54918 168.118115 
L 220.752225 169.050234 
L 221.158314 172.702033 
L 221.767447 178.9568 
L 221.970492 180.206013 
L 222.173536 180.698118 
L 222.376581 180.329848 
L 222.579625 179.082235 
L 222.985714 174.29741 
L 224.000936 159.134235 
L 224.407025 156.785576 
L 224.61007 156.92564 
L 224.813114 157.881449 
L 225.219203 161.588887 
L 225.828336 167.947657 
L 226.031381 169.236982 
L 226.234425 169.771906 
L 226.43747 169.44915 
L 226.640514 168.249736 
L 227.046603 163.569316 
L 228.061825 148.713219 
L 228.26487 147.176365 
L 228.467914 146.505501 
L 228.670959 146.719849 
L 228.874003 147.75246 
L 229.280092 151.62098 
L 229.889225 158.239766 
L 230.295314 160.24937 
L 230.498359 160.022828 
L 230.701403 158.921954 
L 231.107492 154.445492 
L 232.122714 140.138223 
L 232.325759 138.717593 
L 232.528803 138.16504 
L 232.731848 138.499757 
L 232.934892 139.654764 
L 233.340981 143.774042 
L 233.950114 150.783403 
L 234.356203 153.062644 
L 234.559248 152.973597 
L 234.762292 152.011957 
L 235.168381 147.819043 
L 236.183603 134.248627 
L 236.386648 132.979874 
L 236.589692 132.580614 
L 236.792737 133.070002 
L 237.198826 136.367041 
L 238.214048 147.986411 
L 238.417092 148.915214 
L 238.620137 148.991484 
L 238.823181 148.196143 
L 239.22927 144.338612 
L 240.244493 131.620945 
L 240.447537 130.524857 
L 240.650581 130.298867 
L 240.853626 130.962088 
L 241.259715 134.60831 
L 242.274937 147.107474 
L 242.477982 148.21306 
L 242.681026 148.466286 
L 242.88407 147.848032 
L 243.290159 144.344887 
L 244.305382 132.512394 
L 244.508426 131.592855 
L 244.71147 131.543151 
L 244.914515 132.382351 
L 245.320604 136.379436 
L 246.335826 149.747358 
L 246.538871 151.024913 
L 246.741915 151.449414 
L 246.944959 151.001698 
L 247.351048 147.837254 
L 248.366271 136.835712 
L 248.569315 136.079326 
L 248.77236 136.191667 
L 248.975404 137.191766 
L 249.381493 141.50705 
L 250.396715 155.647655 
L 250.59976 157.07553 
L 250.802804 157.648857 
L 251.005849 157.348439 
L 251.208893 156.241246 
L 251.614982 152.258094 
L 252.224115 145.553888 
L 252.630204 143.545102 
L 252.833249 143.789387 
L 253.036293 144.919555 
L 253.442382 149.489225 
L 254.457604 164.230801 
L 254.660649 165.772633 
L 254.863693 166.457772 
L 255.066738 166.266991 
L 255.269782 165.267236 
L 255.675871 161.492252 
L 256.285004 155.083148 
L 256.488049 153.790659 
L 256.691093 153.259381 
L 256.894138 153.592592 
L 257.097182 154.809267 
L 257.503271 159.54461 
L 258.518493 174.656619 
L 258.924582 177.01388 
L 259.127627 176.884346 
L 259.330671 175.943216 
L 259.73676 172.277569 
L 260.345893 166.012482 
L 260.548938 164.76262 
L 260.751982 164.271263 
L 260.955027 164.641677 
L 261.158071 165.892829 
L 261.56416 170.688914 
L 262.579382 185.904558 
L 262.985471 188.283876 
L 263.188516 188.161201 
L 263.39156 187.224148 
L 263.797649 183.558303 
L 264.406783 177.27205 
L 264.609827 176.009574 
L 264.812871 175.502826 
L 265.015916 175.85508 
L 265.21896 177.085304 
L 265.625049 181.831254 
L 266.640272 196.873589 
L 267.04636 199.164574 
L 267.249405 198.9937 
L 267.452449 198.005775 
L 267.858538 194.230219 
L 268.467672 187.759688 
L 268.670716 186.430589 
L 268.873761 185.854649 
L 269.076805 186.135154 
L 269.279849 187.291095 
L 269.685938 191.880942 
L 270.701161 206.489989 
L 270.904205 207.973995 
L 271.10725 208.590896 
L 271.310294 208.321482 
L 271.513338 207.232716 
L 271.919427 203.248674 
L 272.528561 196.448792 
L 272.93465 194.313421 
L 273.137694 194.475616 
L 273.340738 195.511187 
L 273.746827 199.854242 
L 274.76205 213.812436 
L 274.965094 215.160721 
L 275.168139 215.640127 
L 275.371183 215.231479 
L 275.777272 212.097621 
L 276.792494 200.895182 
L 276.995539 200.05114 
L 277.198583 200.060041 
L 277.401628 200.940942 
L 277.807716 204.970674 
L 278.822939 218.12416 
L 279.025983 219.308151 
L 279.229028 219.62224 
L 279.432072 219.047292 
L 279.838161 215.578052 
L 280.853383 203.522863 
L 281.056428 202.506157 
L 281.259472 202.341789 
L 281.462517 203.048856 
L 281.868606 206.729406 
L 282.883828 219.003097 
L 283.086872 220.010305 
L 283.289917 220.147438 
L 283.492961 219.395404 
L 283.89905 215.571777 
L 284.914272 202.631415 
L 285.117317 201.438159 
L 285.320361 201.097504 
L 285.523406 201.628593 
L 285.929495 204.958279 
L 286.944717 216.363213 
L 287.147761 217.198452 
L 287.350806 217.16431 
L 287.55385 216.241738 
L 287.959939 212.07941 
L 288.975161 198.308097 
L 289.178206 196.951688 
L 289.38125 196.448988 
L 289.584295 196.819178 
L 289.787339 197.995268 
L 290.193428 202.113526 
L 290.802562 209.013423 
L 291.20865 211.147836 
L 291.411695 210.964867 
L 291.614739 209.894997 
L 292.020828 205.442808 
L 293.036051 190.976106 
L 293.239095 189.485912 
L 293.442139 188.851268 
L 293.645184 189.091389 
L 293.848228 190.139317 
L 294.254317 194.007097 
L 294.863451 200.546351 
L 295.066495 201.879769 
L 295.26954 202.450732 
L 295.472584 202.155952 
L 295.675628 200.976444 
L 296.081717 196.311608 
L 297.09694 181.353149 
L 297.503029 179.048063 
L 297.706073 179.201677 
L 297.909117 180.165538 
L 298.315206 183.872587 
L 298.92434 190.189545 
L 299.127384 191.453951 
L 299.330429 191.958475 
L 299.533473 191.599844 
L 299.736517 190.35909 
L 300.142606 185.579636 
L 301.157829 170.381188 
L 301.563918 167.998978 
L 301.766962 168.118115 
L 301.970006 169.050234 
L 302.376095 172.702033 
L 302.985229 178.9568 
L 303.188273 180.206013 
L 303.391318 180.698118 
L 303.594362 180.329848 
L 303.797407 179.082235 
L 304.203495 174.29741 
L 305.218718 159.134235 
L 305.624807 156.785576 
L 305.827851 156.92564 
L 306.030896 157.881449 
L 306.436984 161.588887 
L 307.046118 167.947657 
L 307.249162 169.236982 
L 307.452207 169.771906 
L 307.655251 169.44915 
L 307.858296 168.249736 
L 308.264385 163.569316 
L 309.279607 148.713219 
L 309.482651 147.176365 
L 309.685696 146.505501 
L 309.88874 146.719849 
L 310.091785 147.75246 
L 310.497874 151.62098 
L 311.107007 158.239766 
L 311.513096 160.24937 
L 311.71614 160.022828 
L 311.919185 158.921954 
L 312.325274 154.445492 
L 313.340496 140.138223 
L 313.54354 138.717593 
L 313.746585 138.16504 
L 313.949629 138.499757 
L 314.152674 139.654764 
L 314.558763 143.774042 
L 315.167896 150.783403 
L 315.573985 153.062644 
L 315.777029 152.973597 
L 315.980074 152.011957 
L 316.386163 147.819043 
L 317.401385 134.248627 
L 317.604429 132.979874 
L 317.807474 132.580614 
L 318.010518 133.070002 
L 318.416607 136.367041 
L 319.43183 147.986411 
L 319.634874 148.915214 
L 319.837918 148.991484 
L 320.040963 148.196143 
L 320.447052 144.338612 
L 321.462274 131.620945 
L 321.665319 130.524857 
L 321.868363 130.298867 
L 322.071407 130.962088 
L 322.477496 134.60831 
L 323.492719 147.107474 
L 323.695763 148.21306 
L 323.898808 148.466286 
L 324.101852 147.848032 
L 324.507941 144.344887 
L 325.523163 132.512394 
L 325.726208 131.592855 
L 325.929252 131.543151 
L 326.132297 132.382351 
L 326.538385 136.379436 
L 327.553608 149.747358 
L 327.756652 151.024913 
L 327.959697 151.449414 
L 328.162741 151.001698 
L 328.56883 147.837254 
L 329.584052 136.835712 
L 329.787097 136.079326 
L 329.990141 136.191667 
L 330.193186 137.191766 
L 330.599274 141.50705 
L 331.614497 155.647655 
L 331.817541 157.07553 
L 332.020586 157.648857 
L 332.22363 157.348439 
L 332.426675 156.241246 
L 332.832763 152.258094 
L 333.441897 145.553888 
L 333.847986 143.545102 
L 334.05103 143.789387 
L 334.254075 144.919555 
L 334.660164 149.489225 
L 335.675386 164.230801 
L 335.87843 165.772633 
L 336.081475 166.457772 
L 336.284519 166.266991 
L 336.487564 165.267236 
L 336.893653 161.492252 
L 337.502786 155.083148 
L 337.70583 153.790659 
L 337.908875 153.259381 
L 338.111919 153.592592 
L 338.314964 154.809267 
L 338.721053 159.54461 
L 339.736275 174.656619 
L 340.142364 177.01388 
L 340.345408 176.884346 
L 340.548453 175.943216 
L 340.954542 172.277569 
L 341.563675 166.012482 
L 341.766719 164.76262 
L 341.969764 164.271263 
L 342.172808 164.641677 
L 342.375853 165.892829 
L 342.781942 170.688914 
L 343.797164 185.904558 
L 344.203253 188.283876 
L 344.406297 188.161201 
L 344.609342 187.224148 
L 345.015431 183.558303 
L 345.624564 177.27205 
L 345.827609 176.009574 
L 346.030653 175.502826 
L 346.233697 175.85508 
L 346.436742 177.085304 
L 346.842831 181.831254 
L 347.858053 196.873589 
L 348.264142 199.164574 
L 348.467186 198.9937 
L 348.670231 198.005775 
L 349.07632 194.230219 
L 349.685453 187.759688 
L 349.888498 186.430589 
L 350.091542 185.854649 
L 350.294587 186.135154 
L 350.497631 187.291095 
L 350.90372 191.880942 
L 351.918942 206.489989 
L 352.121987 207.973995 
L 352.325031 208.590896 
L 352.528076 208.321482 
L 352.73112 207.232716 
L 353.137209 203.248674 
L 353.746342 196.448792 
L 354.152431 194.313421 
L 354.355476 194.475616 
L 354.55852 195.511187 
L 354.964609 199.854242 
L 355.979831 213.812436 
L 356.182876 215.160721 
L 356.38592 215.640127 
L 356.588965 215.231479 
L 356.995053 212.097621 
L 358.010276 200.895182 
L 358.21332 200.05114 
L 358.416365 200.060041 
L 358.619409 200.940942 
L 359.025498 204.970674 
L 360.04072 218.12416 
L 360.243765 219.308151 
L 360.446809 219.62224 
L 360.446809 219.62224 
" style="fill:none;stroke:#1f77b4;stroke-linecap:square;stroke-opacity:0.5;stroke-width:1.5;"/>
   </g>
   <g id="line2d_30">
    <path clip-path="url(#pb24c38de6b)" d="M 56.083173 175.313595 
L 60.95624 161.780664 
L 63.595818 155.130513 
L 65.626262 150.572426 
L 67.453662 146.988121 
L 69.078018 144.274558 
L 70.499329 142.300461 
L 71.92064 140.725099 
L 73.138907 139.706709 
L 74.357174 139.004368 
L 75.372396 138.665093 
L 76.387618 138.551769 
L 77.402841 138.665093 
L 78.418063 139.004368 
L 79.433285 139.567501 
L 80.651552 140.533769 
L 81.869818 141.808746 
L 83.29113 143.671146 
L 84.712441 145.915726 
L 86.336796 148.913961 
L 88.164197 152.782012 
L 90.194641 157.60345 
L 92.834219 164.504135 
L 96.895108 175.891025 
L 101.565131 188.846526 
L 104.204708 195.496676 
L 106.235153 200.054764 
L 108.062553 203.639069 
L 109.686909 206.352631 
L 111.10822 208.326729 
L 112.529531 209.90209 
L 113.747798 210.920481 
L 114.966064 211.622822 
L 115.981287 211.962097 
L 116.996509 212.075421 
L 118.011731 211.962097 
L 119.026954 211.622822 
L 120.042176 211.059689 
L 121.260443 210.09342 
L 122.478709 208.818444 
L 123.90002 206.956044 
L 125.321332 204.711463 
L 126.945687 201.713229 
L 128.773087 197.845178 
L 130.803532 193.02374 
L 133.44311 186.123054 
L 137.503999 174.736165 
L 142.174021 161.780664 
L 144.813599 155.130513 
L 146.844044 150.572426 
L 148.671444 146.988121 
L 150.295799 144.274558 
L 151.717111 142.300461 
L 153.138422 140.725099 
L 154.356689 139.706709 
L 155.574955 139.004368 
L 156.590178 138.665093 
L 157.6054 138.551769 
L 158.620622 138.665093 
L 159.635844 139.004368 
L 160.651067 139.567501 
L 161.869333 140.533769 
L 163.0876 141.808746 
L 164.508911 143.671146 
L 165.930222 145.915726 
L 167.554578 148.913961 
L 169.381978 152.782012 
L 171.412423 157.60345 
L 174.052001 164.504135 
L 178.11289 175.891025 
L 182.782912 188.846526 
L 185.42249 195.496676 
L 187.452935 200.054764 
L 189.280335 203.639069 
L 190.90469 206.352631 
L 192.326001 208.326729 
L 193.747313 209.90209 
L 194.965579 210.920481 
L 196.183846 211.622822 
L 197.199068 211.962097 
L 198.214291 212.075421 
L 199.229513 211.962097 
L 200.244735 211.622822 
L 201.259957 211.059689 
L 202.478224 210.09342 
L 203.696491 208.818444 
L 205.117802 206.956044 
L 206.539113 204.711463 
L 208.163469 201.713229 
L 209.990869 197.845178 
L 212.021313 193.02374 
L 214.660891 186.123054 
L 218.72178 174.736165 
L 223.391803 161.780664 
L 226.031381 155.130513 
L 228.061825 150.572426 
L 229.889225 146.988121 
L 231.513581 144.274558 
L 232.934892 142.300461 
L 234.356203 140.725099 
L 235.57447 139.706709 
L 236.792737 139.004368 
L 237.807959 138.665093 
L 238.823181 138.551769 
L 239.838404 138.665093 
L 240.853626 139.004368 
L 241.868848 139.567501 
L 243.087115 140.533769 
L 244.305382 141.808746 
L 245.726693 143.671146 
L 247.148004 145.915726 
L 248.77236 148.913961 
L 250.59976 152.782012 
L 252.630204 157.60345 
L 255.269782 164.504135 
L 259.330671 175.891025 
L 264.000694 188.846526 
L 266.640272 195.496676 
L 268.670716 200.054764 
L 270.498116 203.639069 
L 272.122472 206.352631 
L 273.543783 208.326729 
L 274.965094 209.90209 
L 276.183361 210.920481 
L 277.401628 211.622822 
L 278.41685 211.962097 
L 279.432072 212.075421 
L 280.447294 211.962097 
L 281.462517 211.622822 
L 282.477739 211.059689 
L 283.696006 210.09342 
L 284.914272 208.818444 
L 286.335584 206.956044 
L 287.756895 204.711463 
L 289.38125 201.713229 
L 291.20865 197.845178 
L 293.239095 193.02374 
L 295.878673 186.123054 
L 299.939562 174.736165 
L 304.609584 161.780664 
L 307.249162 155.130513 
L 309.279607 150.572426 
L 311.107007 146.988121 
L 312.731363 144.274558 
L 314.152674 142.300461 
L 315.573985 140.725099 
L 316.792252 139.706709 
L 318.010518 139.004368 
L 319.025741 138.665093 
L 320.040963 138.551769 
L 321.056185 138.665093 
L 322.071407 139.004368 
L 323.08663 139.567501 
L 324.304896 140.533769 
L 325.523163 141.808746 
L 326.944474 143.671146 
L 328.365785 145.915726 
L 329.990141 148.913961 
L 331.817541 152.782012 
L 333.847986 157.60345 
L 336.487564 164.504135 
L 340.548453 175.891025 
L 345.218475 188.846526 
L 347.858053 195.496676 
L 349.888498 200.054764 
L 351.715898 203.639069 
L 353.340253 206.352631 
L 354.761564 208.326729 
L 356.182876 209.90209 
L 357.401142 210.920481 
L 358.619409 211.622822 
L 359.634631 211.962097 
L 360.446809 212.070886 
L 360.446809 212.070886 
" style="fill:none;stroke:#ff7f0e;stroke-linecap:square;stroke-width:1.5;"/>
   </g>
   <g id="patch_9">
    <path d="M 40.864991 224.64 
L 40.864991 125.803636 
" style="fill:none;stroke:#000000;stroke-linecap:square;stroke-linejoin:miter;stroke-width:0.8;"/>
   </g>
   <g id="patch_10">
    <path d="M 375.664991 224.64 
L 375.664991 125.803636 
" style="fill:none;stroke:#000000;stroke-linecap:square;stroke-linejoin:miter;stroke-width:0.8;"/>
   </g>
   <g id="patch_11">
    <path d="M 40.864991 224.64 
L 375.664991 224.64 
" style="fill:none;stroke:#000000;stroke-linecap:square;stroke-linejoin:miter;stroke-width:0.8;"/>
   </g>
   <g id="patch_12">
    <path d="M 40.864991 125.803636 
L 375.664991 125.803636 
" style="fill:none;stroke:#000000;stroke-linecap:square;stroke-linejoin:miter;stroke-width:0.8;"/>
   </g>
   <g id="legend_2">
    <g id="patch_13">
     <path d="M 47.864991 219.64 
L 185.412015 219.64 
Q 187.412015 219.64 187.412015 217.64 
L 187.412015 189.015271 
Q 187.412015 187.015271 185.412015 187.015271 
L 47.864991 187.015271 
Q 45.864991 187.015271 45.864991 189.015271 
L 45.864991 217.64 
Q 45.864991 219.64 47.864991 219.64 
z
" style="fill:#ffffff;opacity:0.8;stroke:#cccccc;stroke-linejoin:miter;"/>
    </g>
    <g id="line2d_31">
     <path d="M 49.864991 195.113709 
L 69.864991 195.113709 
" style="fill:none;stroke:#1f77b4;stroke-linecap:square;stroke-opacity:0.5;stroke-width:1.5;"/>
    </g>
    <g id="line2d_32"/>
    <g id="text_20">
     <!-- $y$ (filtered output) -->
     <g transform="translate(77.864991 198.613709)scale(0.1 -0.1)">
      <defs>
       <path d="M 10.59375 47 
L 2 47 
L 2 42 
L 10.59375 42 
L 10.59375 0 
L 16.90625 0 
L 16.90625 42 
L 30.09375 42 
L 30.09375 47 
L 16.796875 47 
L 16.796875 54.890625 
C 16.796875 58.796875 16.40625 60.890625 18.90625 63.09375 
C 21.90625 65.296875 25.703125 65.296875 30.09375 63.390625 
L 30.09375 69.1875 
C 27.703125 69.59375 25.203125 70 22.703125 69.796875 
C 20 69.59375 17.09375 68.296875 15.5 66.6875 
C 12.796875 64.59375 11 60.484375 10.59375 56.6875 
C 10.5 55.390625 10.59375 54.1875 10.59375 52.890625 
z
M 38.09375 69.296875 
L 38.09375 63 
L 44.40625 63 
L 44.40625 69.296875 
z
M 38.09375 47 
L 38.09375 0 
L 44.40625 0 
L 44.40625 47 
z
" id="Computer_Modern_Bright-12"/>
       <path d="M 35.59375 69 
L 35.59375 41.484375 
C 33.703125 43.59375 31.796875 45.59375 29.203125 46.796875 
C 20.296875 50.40625 11.703125 45.6875 7.296875 37.75 
C 2.203125 28.28125 2.796875 15.796875 8.90625 6.921875 
C 13.203125 0.796875 20.296875 -2.203125 27.796875 0.5 
C 30.703125 1.59375 34.203125 4.515625 35.40625 7.125 
L 35.5 7.125 
L 35.5 0 
L 41.90625 0 
L 41.90625 69 
z
M 35.203125 37.546875 
C 35.703125 36.640625 35.5 35.4375 35.5 34.421875 
L 35.5 13.671875 
C 35.5 11.359375 35.40625 11.15625 34.09375 9.34375 
C 32.296875 6.625 29.5 4.71875 26.203125 4.40625 
C 21.40625 4 16.5 6.328125 13.703125 10.25 
C 12.09375 12.5625 11.203125 15.390625 10.703125 18.203125 
C 10.5 19.3125 10.5 20.328125 10.40625 21.4375 
C 9.796875 28.078125 11.203125 35.9375 17 40.171875 
C 18 40.875 19.09375 41.375 20.203125 41.890625 
C 26 44.09375 32.40625 43.484375 35.203125 37.546875 
z
" id="Computer_Modern_Bright-100"/>
      </defs>
      <use transform="scale(0.996264)" xlink:href="#Computer_Modern_Bright_Math_Slanted-121"/>
      <use transform="translate(88.579722 0)scale(0.996264)" xlink:href="#Computer_Modern_Bright-40"/>
      <use transform="translate(127.59993 0)scale(0.996264)" xlink:href="#Computer_Modern_Bright-12"/>
      <use transform="translate(178.243148 0)scale(0.996264)" xlink:href="#Computer_Modern_Bright-108"/>
      <use transform="translate(197.338107 0)scale(0.996264)" xlink:href="#Computer_Modern_Bright-116"/>
      <use transform="translate(233.452495 0)scale(0.996264)" xlink:href="#Computer_Modern_Bright-101"/>
      <use transform="translate(278.284163 0)scale(0.996264)" xlink:href="#Computer_Modern_Bright-114"/>
      <use transform="translate(310.247522 0)scale(0.996264)" xlink:href="#Computer_Modern_Bright-101"/>
      <use transform="translate(355.079189 0)scale(0.996264)" xlink:href="#Computer_Modern_Bright-100"/>
      <use transform="translate(434.696898 0)scale(0.996264)" xlink:href="#Computer_Modern_Bright-111"/>
      <use transform="translate(485.340116 0)scale(0.996264)" xlink:href="#Computer_Modern_Bright-117"/>
      <use transform="translate(533.492613 0)scale(0.996264)" xlink:href="#Computer_Modern_Bright-116"/>
      <use transform="translate(569.607 0)scale(0.996264)" xlink:href="#Computer_Modern_Bright-112"/>
      <use transform="translate(617.759497 0)scale(0.996264)" xlink:href="#Computer_Modern_Bright-117"/>
      <use transform="translate(665.911994 0)scale(0.996264)" xlink:href="#Computer_Modern_Bright-116"/>
      <use transform="translate(702.026382 0)scale(0.996264)" xlink:href="#Computer_Modern_Bright-41"/>
     </g>
    </g>
    <g id="line2d_33">
     <path d="M 49.864991 209.926073 
L 69.864991 209.926073 
" style="fill:none;stroke:#ff7f0e;stroke-linecap:square;stroke-width:1.5;"/>
    </g>
    <g id="line2d_34"/>
    <g id="text_21">
     <!-- $x_1$ (low-frequency signal) -->
     <g transform="translate(77.864991 213.426073)scale(0.1 -0.1)">
      <use transform="scale(0.996264)" xlink:href="#Computer_Modern_Bright_Math_Slanted-120"/>
      <use transform="translate(45.661776 -14.943915)scale(0.697382)" xlink:href="#Computer_Modern_Bright-49"/>
      <use transform="translate(113.075205 0)scale(0.996264)" xlink:href="#Computer_Modern_Bright-40"/>
      <use transform="translate(152.095414 0)scale(0.996264)" xlink:href="#Computer_Modern_Bright-108"/>
      <use transform="translate(171.190373 0)scale(0.996264)" xlink:href="#Computer_Modern_Bright-111"/>
      <use transform="translate(218.927861 0)scale(0.996264)" xlink:href="#Computer_Modern_Bright-119"/>
      <use transform="translate(284.514902 0)scale(0.996264)" xlink:href="#Computer_Modern_Bright-45"/>
      <use transform="translate(317.723576 0)scale(0.996264)" xlink:href="#Computer_Modern_Bright-102"/>
      <use transform="translate(348.02652 0)scale(0.996264)" xlink:href="#Computer_Modern_Bright-114"/>
      <use transform="translate(379.989879 0)scale(0.996264)" xlink:href="#Computer_Modern_Bright-101"/>
      <use transform="translate(424.821546 0)scale(0.996264)" xlink:href="#Computer_Modern_Bright-113"/>
      <use transform="translate(472.974043 0)scale(0.996264)" xlink:href="#Computer_Modern_Bright-117"/>
      <use transform="translate(521.12654 0)scale(0.996264)" xlink:href="#Computer_Modern_Bright-101"/>
      <use transform="translate(565.958208 0)scale(0.996264)" xlink:href="#Computer_Modern_Bright-110"/>
      <use transform="translate(614.110705 0)scale(0.996264)" xlink:href="#Computer_Modern_Bright-99"/>
      <use transform="translate(658.942372 0)scale(0.996264)" xlink:href="#Computer_Modern_Bright-121"/>
      <use transform="translate(732.748622 0)scale(0.996264)" xlink:href="#Computer_Modern_Bright-115"/>
      <use transform="translate(771.187651 0)scale(0.996264)" xlink:href="#Computer_Modern_Bright-105"/>
      <use transform="translate(790.28261 0)scale(0.996264)" xlink:href="#Computer_Modern_Bright-103"/>
      <use transform="translate(838.435107 0)scale(0.996264)" xlink:href="#Computer_Modern_Bright-110"/>
      <use transform="translate(886.587604 0)scale(0.996264)" xlink:href="#Computer_Modern_Bright-97"/>
      <use transform="translate(933.079687 0)scale(0.996264)" xlink:href="#Computer_Modern_Bright-108"/>
      <use transform="translate(952.174645 0)scale(0.996264)" xlink:href="#Computer_Modern_Bright-41"/>
     </g>
    </g>
   </g>
  </g>
 </g>
 <defs>
  <clipPath id="p0c528c713c">
   <rect height="98.836364" width="334.8" x="40.864991" y="7.2"/>
  </clipPath>
  <clipPath id="pb24c38de6b">
   <rect height="98.836364" width="334.8" x="40.864991" y="125.803636"/>
  </clipPath>
 </defs>
</svg>