<?xml version="1.0" encoding="utf-8" standalone="no"?>
<!DOCTYPE svg PUBLIC "-//W3C//DTD SVG 1.1//EN"
  "http://www.w3.org/Graphics/SVG/1.1/DTD/svg11.dtd">
<svg xmlns:xlink="http://www.w3.org/1999/xlink" width="412.961463pt" height="310.330317pt" viewBox="0 0 412.961463 310.330317" xmlns="http://www.w3.org/2000/svg" version="1.1">
 <metadata>
  <rdf:RDF xmlns:dc="http://purl.org/dc/elements/1.1/" xmlns:cc="http://creativecommons.org/ns#" xmlns:rdf="http://www.w3.org/1999/02/22-rdf-syntax-ns#">
   <cc:Work>
    <dc:type rdf:resource="http://purl.org/dc/dcmitype/StillImage"/>
    <dc:date>2023-02-22T09:50:17.205910</dc:date>
    <dc:format>image/svg+xml</dc:format>
    <dc:creator>
     <cc:Agent>
      <dc:title>Matplotlib v3.6.2, https://matplotlib.org/</dc:title>
     </cc:Agent>
    </dc:creator>
   </cc:Work>
  </rdf:RDF>
 </metadata>
 <defs>
  <style type="text/css">*{stroke-linejoin: round; stroke-linecap: butt}</style>
 </defs>
 <g id="figure_1">
  <g id="patch_1">
   <path d="M 0 310.330317 
L 412.961463 310.330317 
L 412.961463 0 
L 0 0 
z
" style="fill: #ffffff"/>
  </g>
  <g id="axes_1">
   <g id="patch_2">
    <path d="M 48.641463 128.16 
L 405.761463 128.16 
L 405.761463 7.2 
L 48.641463 7.2 
z
" style="fill: #ffffff"/>
   </g>
   <g id="matplotlib.axis_1">
    <g id="xtick_1">
     <g id="line2d_1">
      <defs>
       <path id="mf2658e8221" d="M 0 0 
L 0 3.5 
" style="stroke: #000000; stroke-width: 0.8"/>
      </defs>
      <g>
       <use xlink:href="#mf2658e8221" x="64.87419" y="128.16" style="stroke: #000000; stroke-width: 0.8"/>
      </g>
     </g>
    </g>
    <g id="xtick_2">
     <g id="line2d_2">
      <g>
       <use xlink:href="#mf2658e8221" x="108.19034" y="128.16" style="stroke: #000000; stroke-width: 0.8"/>
      </g>
     </g>
    </g>
    <g id="xtick_3">
     <g id="line2d_3">
      <g>
       <use xlink:href="#mf2658e8221" x="151.50649" y="128.16" style="stroke: #000000; stroke-width: 0.8"/>
      </g>
     </g>
    </g>
    <g id="xtick_4">
     <g id="line2d_4">
      <g>
       <use xlink:href="#mf2658e8221" x="194.822641" y="128.16" style="stroke: #000000; stroke-width: 0.8"/>
      </g>
     </g>
    </g>
    <g id="xtick_5">
     <g id="line2d_5">
      <g>
       <use xlink:href="#mf2658e8221" x="238.138791" y="128.16" style="stroke: #000000; stroke-width: 0.8"/>
      </g>
     </g>
    </g>
    <g id="xtick_6">
     <g id="line2d_6">
      <g>
       <use xlink:href="#mf2658e8221" x="281.454941" y="128.16" style="stroke: #000000; stroke-width: 0.8"/>
      </g>
     </g>
    </g>
    <g id="xtick_7">
     <g id="line2d_7">
      <g>
       <use xlink:href="#mf2658e8221" x="324.771091" y="128.16" style="stroke: #000000; stroke-width: 0.8"/>
      </g>
     </g>
    </g>
    <g id="xtick_8">
     <g id="line2d_8">
      <g>
       <use xlink:href="#mf2658e8221" x="368.087241" y="128.16" style="stroke: #000000; stroke-width: 0.8"/>
      </g>
     </g>
    </g>
   </g>
   <g id="matplotlib.axis_2">
    <g id="ytick_1">
     <g id="line2d_9">
      <defs>
       <path id="mec98bc9513" d="M 0 0 
L -3.5 0 
" style="stroke: #000000; stroke-width: 0.8"/>
      </defs>
      <g>
       <use xlink:href="#mec98bc9513" x="48.641463" y="122.746694" style="stroke: #000000; stroke-width: 0.8"/>
      </g>
     </g>
     <g id="text_1">
      <!-- $\mathdefault{−2}$ -->
      <g transform="translate(28.911384 126.205943) scale(0.1 -0.1)">
       <defs>
        <path id="CMSY10-0" d="M 4218 1472 
C 4326 1472 4442 1472 4442 1600 
C 4442 1728 4326 1728 4218 1728 
L 755 1728 
C 646 1728 531 1728 531 1600 
C 531 1472 646 1472 755 1472 
L 4218 1472 
z
" transform="scale(0.015625)"/>
        <path id="CMR17-32" d="M 2669 989 
L 2554 989 
C 2490 536 2438 459 2413 420 
C 2381 369 1920 369 1830 369 
L 602 369 
C 832 619 1280 1072 1824 1597 
C 2214 1967 2669 2402 2669 3035 
C 2669 3790 2067 4224 1395 4224 
C 691 4224 262 3604 262 3030 
C 262 2780 448 2748 525 2748 
C 589 2748 781 2787 781 3010 
C 781 3207 614 3264 525 3264 
C 486 3264 448 3258 422 3245 
C 544 3790 915 4058 1306 4058 
C 1862 4058 2227 3617 2227 3035 
C 2227 2479 1901 2000 1536 1584 
L 262 146 
L 262 0 
L 2515 0 
L 2669 989 
z
" transform="scale(0.015625)"/>
       </defs>
       <use xlink:href="#CMSY10-0" transform="scale(0.996264)"/>
       <use xlink:href="#CMR17-32" transform="translate(77.487468 0) scale(0.996264)"/>
      </g>
     </g>
    </g>
    <g id="ytick_2">
     <g id="line2d_10">
      <g>
       <use xlink:href="#mec98bc9513" x="48.641463" y="95.213347" style="stroke: #000000; stroke-width: 0.8"/>
      </g>
     </g>
     <g id="text_2">
      <!-- $\mathdefault{−1}$ -->
      <g transform="translate(28.911384 98.672596) scale(0.1 -0.1)">
       <defs>
        <path id="CMR17-31" d="M 1702 4058 
C 1702 4192 1696 4192 1606 4192 
C 1357 3916 979 3827 621 3827 
C 602 3827 570 3827 563 3808 
C 557 3795 557 3782 557 3648 
C 755 3648 1088 3686 1344 3839 
L 1344 461 
C 1344 236 1331 160 781 160 
L 589 160 
L 589 0 
C 896 0 1216 0 1523 0 
C 1830 0 2150 0 2458 0 
L 2458 160 
L 2266 160 
C 1715 160 1702 230 1702 458 
L 1702 4058 
z
" transform="scale(0.015625)"/>
       </defs>
       <use xlink:href="#CMSY10-0" transform="scale(0.996264)"/>
       <use xlink:href="#CMR17-31" transform="translate(77.487468 0) scale(0.996264)"/>
      </g>
     </g>
    </g>
    <g id="ytick_3">
     <g id="line2d_11">
      <g>
       <use xlink:href="#mec98bc9513" x="48.641463" y="67.68" style="stroke: #000000; stroke-width: 0.8"/>
      </g>
     </g>
     <g id="text_3">
      <!-- $\mathdefault{0}$ -->
      <g transform="translate(36.660128 71.139249) scale(0.1 -0.1)">
       <defs>
        <path id="CMR17-30" d="M 2688 2025 
C 2688 2416 2682 3080 2413 3591 
C 2176 4039 1798 4198 1466 4198 
C 1158 4198 768 4058 525 3597 
C 269 3118 243 2524 243 2025 
C 243 1661 250 1106 448 619 
C 723 -39 1216 -128 1466 -128 
C 1760 -128 2208 -7 2470 600 
C 2662 1042 2688 1559 2688 2025 
z
M 1466 -26 
C 1056 -26 813 325 723 812 
C 653 1188 653 1738 653 2096 
C 653 2588 653 2997 736 3387 
C 858 3929 1216 4096 1466 4096 
C 1728 4096 2067 3923 2189 3400 
C 2272 3036 2278 2607 2278 2096 
C 2278 1680 2278 1169 2202 792 
C 2067 95 1690 -26 1466 -26 
z
" transform="scale(0.015625)"/>
       </defs>
       <use xlink:href="#CMR17-30" transform="scale(0.996264)"/>
      </g>
     </g>
    </g>
    <g id="ytick_4">
     <g id="line2d_12">
      <g>
       <use xlink:href="#mec98bc9513" x="48.641463" y="40.146653" style="stroke: #000000; stroke-width: 0.8"/>
      </g>
     </g>
     <g id="text_4">
      <!-- $\mathdefault{1}$ -->
      <g transform="translate(36.660128 43.605902) scale(0.1 -0.1)">
       <use xlink:href="#CMR17-31" transform="scale(0.996264)"/>
      </g>
     </g>
    </g>
    <g id="ytick_5">
     <g id="line2d_13">
      <g>
       <use xlink:href="#mec98bc9513" x="48.641463" y="12.613306" style="stroke: #000000; stroke-width: 0.8"/>
      </g>
     </g>
     <g id="text_5">
      <!-- $\mathdefault{2}$ -->
      <g transform="translate(36.660128 16.072555) scale(0.1 -0.1)">
       <use xlink:href="#CMR17-32" transform="scale(0.996264)"/>
      </g>
     </g>
    </g>
    <g id="text_6">
     <!-- $x(t)$ -->
     <g transform="translate(22.420724 76.200143) rotate(-90) scale(0.1 -0.1)">
      <defs>
       <path id="CMMI12-78" d="M 3034 2606 
C 2829 2567 2752 2414 2752 2293 
C 2752 2139 2874 2088 2963 2088 
C 3155 2088 3290 2254 3290 2427 
C 3290 2695 2982 2816 2714 2816 
C 2323 2816 2106 2433 2048 2312 
C 1901 2816 1504 2816 1389 2816 
C 736 2816 390 1980 390 1839 
C 390 1814 416 1782 461 1782 
C 512 1782 525 1820 538 1846 
C 755 2555 1184 2689 1370 2689 
C 1658 2689 1715 2420 1715 2267 
C 1715 2127 1677 1980 1600 1673 
L 1382 798 
C 1286 415 1101 64 762 64 
C 730 64 570 64 435 147 
C 666 192 717 383 717 460 
C 717 588 621 664 499 664 
C 346 664 179 530 179 326 
C 179 57 480 -64 755 -64 
C 1062 -64 1280 179 1414 441 
C 1517 64 1837 -64 2074 -64 
C 2726 -64 3072 773 3072 913 
C 3072 945 3046 971 3008 971 
C 2950 971 2944 939 2925 888 
C 2752 326 2381 64 2093 64 
C 1869 64 1747 230 1747 492 
C 1747 632 1773 734 1875 1156 
L 2099 2024 
C 2195 2408 2413 2689 2707 2689 
C 2720 2689 2899 2689 3034 2606 
z
" transform="scale(0.015625)"/>
       <path id="CMR17-28" d="M 1958 -1561 
C 1958 -1555 1958 -1542 1939 -1523 
C 1645 -1224 858 -407 858 1581 
C 858 3569 1632 4379 1946 4697 
C 1946 4704 1958 4717 1958 4736 
C 1958 4755 1939 4768 1914 4768 
C 1843 4768 1299 4296 986 3594 
C 666 2887 576 2199 576 1588 
C 576 1128 621 351 1005 -471 
C 1312 -1135 1837 -1600 1914 -1600 
C 1946 -1600 1958 -1587 1958 -1561 
z
" transform="scale(0.015625)"/>
       <path id="CMMI12-74" d="M 1286 2566 
L 1875 2566 
C 1997 2566 2061 2566 2061 2681 
C 2061 2752 2022 2752 1894 2752 
L 1331 2752 
L 1568 3692 
C 1594 3781 1594 3794 1594 3840 
C 1594 3943 1510 4000 1427 4000 
C 1376 4000 1229 3981 1178 3775 
L 928 2752 
L 326 2752 
C 198 2752 141 2752 141 2630 
C 141 2566 186 2566 307 2566 
L 877 2566 
L 454 881 
C 403 658 384 594 384 511 
C 384 211 595 -64 954 -64 
C 1600 -64 1946 868 1946 912 
C 1946 951 1920 970 1882 970 
C 1869 970 1843 970 1830 944 
C 1824 938 1818 931 1773 829 
C 1638 511 1344 64 973 64 
C 781 64 768 224 768 364 
C 768 370 768 492 787 568 
L 1286 2566 
z
" transform="scale(0.015625)"/>
       <path id="CMR17-29" d="M 1683 1581 
C 1683 2040 1638 2817 1254 3639 
C 947 4303 422 4768 346 4768 
C 326 4768 301 4761 301 4729 
C 301 4717 307 4710 314 4697 
C 621 4378 1402 3568 1402 1584 
C 1402 -407 627 -1217 314 -1537 
C 307 -1549 301 -1556 301 -1568 
C 301 -1600 326 -1600 346 -1600 
C 416 -1600 960 -1128 1274 -426 
C 1594 281 1683 969 1683 1581 
z
" transform="scale(0.015625)"/>
      </defs>
      <use xlink:href="#CMMI12-78" transform="scale(0.996264)"/>
      <use xlink:href="#CMR17-28" transform="translate(55.43406 0) scale(0.996264)"/>
      <use xlink:href="#CMMI12-74" transform="translate(90.714827 0) scale(0.996264)"/>
      <use xlink:href="#CMR17-29" transform="translate(125.941158 0) scale(0.996264)"/>
     </g>
    </g>
   </g>
   <g id="line2d_14">
    <path d="M 64.87419 67.68 
L 65.523932 44.108056 
L 65.740513 39.765398 
L 65.957094 37.986411 
L 66.173675 38.903114 
L 66.390255 42.383701 
L 66.823417 55.292245 
L 67.68974 84.371533 
L 67.906321 87.859556 
L 68.122901 88.785815 
L 68.339482 87.018504 
L 68.772644 76.182136 
L 70.072128 31.35853 
L 70.288709 29.610097 
L 70.50529 30.55942 
L 70.72187 34.074687 
L 71.155032 47.05873 
L 72.021355 76.31331 
L 72.237936 79.850155 
L 72.454516 80.827213 
L 72.671097 79.112664 
L 73.104259 68.387659 
L 74.403743 23.943815 
L 74.620324 22.265174 
L 74.836905 23.286102 
L 75.053485 26.874767 
L 75.486647 40.010919 
L 76.35297 69.590426 
L 76.569551 73.212701 
L 76.786131 74.276826 
L 77.002712 72.650961 
L 77.219293 68.467084 
L 77.652454 54.170277 
L 78.518777 22.39248 
L 78.735358 18.247057 
L 78.951939 16.670615 
L 79.16852 17.795122 
L 79.3851 21.488721 
L 79.818262 34.838702 
L 80.684585 64.860963 
L 80.901166 68.596913 
L 81.117746 69.775851 
L 81.334327 68.26591 
L 81.550908 64.199041 
L 81.984069 50.139376 
L 82.850392 18.84756 
L 83.066973 14.825894 
L 83.283554 13.374054 
L 83.500135 14.623976 
L 83.716715 18.443773 
L 84.149877 32.048371 
L 85.0162 62.587874 
L 85.232781 66.454616 
L 85.449361 67.764876 
L 85.665942 66.386753 
L 85.882523 62.452164 
L 86.315684 48.658322 
L 87.182007 17.902273 
L 87.398588 14.015214 
L 87.615169 12.698182 
L 87.83175 14.083078 
L 88.04833 18.037982 
L 88.481492 31.913063 
L 89.347815 62.993664 
L 89.564396 66.995514 
L 89.780976 68.440749 
L 89.997557 67.197433 
L 90.214138 63.397452 
L 90.647299 49.872091 
L 91.513622 19.649149 
L 91.730203 15.894372 
L 91.946784 14.709157 
L 92.163365 16.225374 
L 92.379945 20.311071 
L 92.813107 34.446023 
L 93.67943 66.038613 
L 93.896011 70.16666 
L 94.112591 71.73731 
L 94.329172 70.618595 
L 94.545753 66.942372 
L 94.978914 53.661872 
L 95.845237 23.917193 
L 96.061818 20.279422 
L 96.278399 19.210131 
L 96.49498 20.841162 
L 96.71156 25.040535 
L 97.144722 39.399307 
L 98.011045 71.424659 
L 98.227626 75.65764 
L 98.444206 77.331869 
L 98.660787 76.315353 
L 98.877368 72.739923 
L 99.310529 59.656694 
L 100.176852 30.288618 
L 100.393433 26.741126 
L 100.610014 25.760518 
L 100.826595 27.478617 
L 101.259756 38.232013 
L 102.559241 82.930958 
L 102.775821 84.676791 
L 102.992402 83.730068 
L 103.208983 80.2226 
L 103.642144 67.269741 
L 104.508467 38.139746 
L 104.725048 34.646966 
L 104.941629 33.719121 
L 105.15821 35.488017 
L 105.591371 46.33707 
L 106.890856 91.274652 
L 107.107436 93.053106 
L 107.324017 92.136936 
L 107.540598 88.657947 
L 107.973759 75.755797 
L 108.840082 46.702053 
L 109.056663 43.223064 
L 109.273244 42.306894 
L 109.489825 44.085348 
L 109.922986 54.947148 
L 111.222471 99.871983 
L 111.439051 101.640879 
L 111.655632 100.713034 
L 111.872213 97.220254 
L 112.305374 84.284187 
L 113.171698 55.1374 
L 113.388278 51.629932 
L 113.604859 50.683209 
L 113.82144 52.429042 
L 114.254601 63.219434 
L 115.554086 107.881383 
L 115.770667 109.599482 
L 115.987247 108.618874 
L 116.203828 105.071382 
L 116.63699 92.020091 
L 117.503313 62.620077 
L 117.719893 59.044647 
L 117.936474 58.028131 
L 118.153055 59.70236 
L 118.369636 63.935341 
L 118.802797 78.332536 
L 119.66912 110.319465 
L 119.885701 114.518838 
L 120.102282 116.149869 
L 120.318862 115.080578 
L 120.535443 111.442807 
L 120.968605 98.206267 
L 121.834928 68.417628 
L 122.051508 64.741405 
L 122.268089 63.62269 
L 122.48467 65.19334 
L 122.701251 69.321387 
L 123.134412 83.504754 
L 124.000735 115.048929 
L 124.217316 119.134626 
L 124.433897 120.650843 
L 124.650477 119.465628 
L 124.867058 115.710851 
L 125.30022 102.237169 
L 126.166543 71.962548 
L 126.383123 68.162567 
L 126.599704 66.919251 
L 126.816285 68.364486 
L 127.032866 72.366336 
L 127.466027 86.295085 
L 128.33235 117.322018 
L 128.548931 121.276922 
L 128.765512 122.661818 
L 128.982092 121.344786 
L 129.198673 117.457727 
L 129.631835 103.718223 
L 130.498158 72.907836 
L 130.714738 68.973247 
L 130.931319 67.595124 
L 131.1479 68.905384 
L 131.364481 72.772126 
L 131.797642 86.430393 
L 132.663965 116.916227 
L 132.880546 120.736024 
L 133.097127 121.985946 
L 133.313707 120.534106 
L 133.530288 116.51244 
L 133.96345 102.504453 
L 134.829773 71.160959 
L 135.046353 67.09409 
L 135.262934 65.584149 
L 135.479515 66.763087 
L 135.696096 70.499037 
L 136.129257 83.897433 
L 136.99558 113.871279 
L 137.212161 117.564878 
L 137.428742 118.689385 
L 137.645322 117.112943 
L 137.861903 112.96752 
L 138.295065 98.714672 
L 139.161388 66.892916 
L 139.377968 62.709039 
L 139.594549 61.083174 
L 139.81113 62.147299 
L 140.027711 65.769574 
L 140.460872 78.944148 
L 141.327195 108.485233 
L 141.543776 112.073898 
L 141.760357 113.094826 
L 141.976937 111.416185 
L 142.193518 107.169969 
L 142.62668 92.719851 
L 143.493003 60.52149 
L 143.709583 56.247336 
L 143.926164 54.532787 
L 144.142745 55.509845 
L 144.359326 59.04669 
L 144.792487 72.055402 
L 145.65881 101.285313 
L 145.875391 104.80058 
L 146.091972 105.749903 
L 146.308552 104.00147 
L 146.741714 93.190284 
L 148.041198 48.341496 
L 148.257779 46.574185 
L 148.47436 47.500444 
L 148.690941 50.988467 
L 149.124102 63.905511 
L 149.990425 92.976299 
L 150.207006 96.456886 
L 150.423587 97.373589 
L 150.640167 95.594602 
L 151.073329 84.728539 
L 152.372813 39.765398 
L 152.589394 37.986411 
L 152.805975 38.903114 
L 153.022556 42.383701 
L 153.455717 55.292245 
L 154.32204 84.371533 
L 154.538621 87.859556 
L 154.755202 88.785815 
L 154.971782 87.018504 
L 155.404944 76.182136 
L 156.704428 31.35853 
L 156.921009 29.610097 
L 157.13759 30.55942 
L 157.354171 34.074687 
L 157.787332 47.05873 
L 158.653655 76.31331 
L 158.870236 79.850155 
L 159.086817 80.827213 
L 159.303397 79.112664 
L 159.736559 68.387659 
L 161.036043 23.943815 
L 161.252624 22.265174 
L 161.469205 23.286102 
L 161.685786 26.874767 
L 162.118947 40.010919 
L 162.98527 69.590426 
L 163.201851 73.212701 
L 163.418432 74.276826 
L 163.635012 72.650961 
L 163.851593 68.467084 
L 164.284755 54.170277 
L 165.151078 22.39248 
L 165.367658 18.247057 
L 165.584239 16.670615 
L 165.80082 17.795122 
L 166.017401 21.488721 
L 166.450562 34.838702 
L 167.316885 64.860963 
L 167.533466 68.596913 
L 167.750047 69.775851 
L 167.966627 68.26591 
L 168.183208 64.199041 
L 168.61637 50.139376 
L 169.482693 18.84756 
L 169.699273 14.825894 
L 169.915854 13.374054 
L 170.132435 14.623976 
L 170.349016 18.443773 
L 170.782177 32.048371 
L 171.6485 62.587874 
L 171.865081 66.454616 
L 172.081662 67.764876 
L 172.298242 66.386753 
L 172.514823 62.452164 
L 172.947985 48.658322 
L 173.814308 17.902273 
L 174.030888 14.015214 
L 174.247469 12.698182 
L 174.46405 14.083078 
L 174.680631 18.037982 
L 175.113792 31.913063 
L 175.980115 62.993664 
L 176.196696 66.995514 
L 176.413277 68.440749 
L 176.629857 67.197433 
L 176.846438 63.397452 
L 177.2796 49.872091 
L 178.145923 19.649149 
L 178.362503 15.894372 
L 178.579084 14.709157 
L 178.795665 16.225374 
L 179.012246 20.311071 
L 179.445407 34.446023 
L 180.31173 66.038613 
L 180.528311 70.16666 
L 180.744892 71.73731 
L 180.961473 70.618595 
L 181.178053 66.942372 
L 181.611215 53.661872 
L 182.477538 23.917193 
L 182.694119 20.279422 
L 182.910699 19.210131 
L 183.12728 20.841162 
L 183.343861 25.040535 
L 183.777022 39.399307 
L 184.643345 71.424659 
L 184.859926 75.65764 
L 185.076507 77.331869 
L 185.293088 76.315353 
L 185.509668 72.739923 
L 185.94283 59.656694 
L 186.809153 30.288618 
L 187.025734 26.741126 
L 187.242314 25.760518 
L 187.458895 27.478617 
L 187.892057 38.232013 
L 189.191541 82.930958 
L 189.408122 84.676791 
L 189.624703 83.730068 
L 189.841283 80.2226 
L 190.274445 67.269741 
L 191.140768 38.139746 
L 191.357349 34.646966 
L 191.573929 33.719121 
L 191.79051 35.488017 
L 192.223672 46.33707 
L 193.523156 91.274652 
L 193.739737 93.053106 
L 193.956318 92.136936 
L 194.172898 88.657947 
L 194.60606 75.755797 
L 195.472383 46.702053 
L 195.688964 43.223064 
L 195.905544 42.306894 
L 196.122125 44.085348 
L 196.555287 54.947148 
L 197.854771 99.871983 
L 198.071352 101.640879 
L 198.287933 100.713034 
L 198.504513 97.220254 
L 198.937675 84.284187 
L 199.803998 55.1374 
L 200.020579 51.629932 
L 200.237159 50.683209 
L 200.45374 52.429042 
L 200.886902 63.219434 
L 202.186386 107.881383 
L 202.402967 109.599482 
L 202.619548 108.618874 
L 202.836128 105.071382 
L 203.26929 92.020091 
L 204.135613 62.620077 
L 204.352194 59.044647 
L 204.568774 58.028131 
L 204.785355 59.70236 
L 205.001936 63.935341 
L 205.435097 78.332536 
L 206.30142 110.319465 
L 206.518001 114.518838 
L 206.734582 116.149869 
L 206.951163 115.080578 
L 207.167743 111.442807 
L 207.600905 98.206267 
L 208.467228 68.417628 
L 208.683809 64.741405 
L 208.900389 63.62269 
L 209.11697 65.19334 
L 209.333551 69.321387 
L 209.766712 83.504754 
L 210.633035 115.048929 
L 210.849616 119.134626 
L 211.066197 120.650843 
L 211.282778 119.465628 
L 211.499358 115.710851 
L 211.93252 102.237169 
L 212.798843 71.962548 
L 213.015424 68.162567 
L 213.232004 66.919251 
L 213.448585 68.364486 
L 213.665166 72.366336 
L 214.098327 86.295085 
L 214.96465 117.322018 
L 215.181231 121.276922 
L 215.397812 122.661818 
L 215.614393 121.344786 
L 215.830973 117.457727 
L 216.264135 103.718223 
L 217.130458 72.907836 
L 217.347039 68.973247 
L 217.563619 67.595124 
L 217.7802 68.905384 
L 217.996781 72.772126 
L 218.429942 86.430393 
L 219.296265 116.916227 
L 219.512846 120.736024 
L 219.729427 121.985946 
L 219.946008 120.534106 
L 220.162588 116.51244 
L 220.59575 102.504453 
L 221.462073 71.160959 
L 221.678654 67.09409 
L 221.895234 65.584149 
L 222.111815 66.763087 
L 222.328396 70.499037 
L 222.761557 83.897433 
L 223.62788 113.871279 
L 223.844461 117.564878 
L 224.061042 118.689385 
L 224.277623 117.112943 
L 224.494203 112.96752 
L 224.927365 98.714672 
L 225.793688 66.892916 
L 226.010269 62.709039 
L 226.226849 61.083174 
L 226.44343 62.147299 
L 226.660011 65.769574 
L 227.093172 78.944148 
L 227.959495 108.485233 
L 228.176076 112.073898 
L 228.392657 113.094826 
L 228.609238 111.416185 
L 228.825818 107.169969 
L 229.25898 92.719851 
L 230.125303 60.52149 
L 230.341884 56.247336 
L 230.558464 54.532787 
L 230.775045 55.509845 
L 230.991626 59.04669 
L 231.424787 72.055402 
L 232.29111 101.285313 
L 232.507691 104.80058 
L 232.724272 105.749903 
L 232.940853 104.00147 
L 233.374014 93.190284 
L 234.673499 48.341496 
L 234.890079 46.574185 
L 235.10666 47.500444 
L 235.323241 50.988467 
L 235.756402 63.905511 
L 236.622725 92.976299 
L 236.839306 96.456886 
L 237.055887 97.373589 
L 237.272468 95.594602 
L 237.705629 84.728539 
L 239.005114 39.765398 
L 239.221694 37.986411 
L 239.438275 38.903114 
L 239.654856 42.383701 
L 240.088017 55.292245 
L 240.95434 84.371533 
L 241.170921 87.859556 
L 241.387502 88.785815 
L 241.604083 87.018504 
L 242.037244 76.182136 
L 243.336729 31.35853 
L 243.553309 29.610097 
L 243.76989 30.55942 
L 243.986471 34.074687 
L 244.419632 47.05873 
L 245.285955 76.31331 
L 245.502536 79.850155 
L 245.719117 80.827213 
L 245.935698 79.112664 
L 246.368859 68.387659 
L 247.668344 23.943815 
L 247.884925 22.265174 
L 248.101505 23.286102 
L 248.318086 26.874767 
L 248.751248 40.010919 
L 249.617571 69.590426 
L 249.834151 73.212701 
L 250.050732 74.276826 
L 250.267313 72.650961 
L 250.483894 68.467084 
L 250.917055 54.170277 
L 251.783378 22.39248 
L 251.999959 18.247057 
L 252.21654 16.670615 
L 252.43312 17.795122 
L 252.649701 21.488721 
L 253.082863 34.838702 
L 253.949186 64.860963 
L 254.165766 68.596913 
L 254.382347 69.775851 
L 254.598928 68.26591 
L 254.815509 64.199041 
L 255.24867 50.139376 
L 256.114993 18.84756 
L 256.331574 14.825894 
L 256.548155 13.374054 
L 256.764735 14.623976 
L 256.981316 18.443773 
L 257.414478 32.048371 
L 258.280801 62.587874 
L 258.497381 66.454616 
L 258.713962 67.764876 
L 258.930543 66.386753 
L 259.147124 62.452164 
L 259.580285 48.658322 
L 260.446608 17.902273 
L 260.663189 14.015214 
L 260.87977 12.698182 
L 261.09635 14.083078 
L 261.312931 18.037982 
L 261.746093 31.913063 
L 262.612416 62.993664 
L 262.828996 66.995514 
L 263.045577 68.440749 
L 263.262158 67.197433 
L 263.478739 63.397452 
L 263.9119 49.872091 
L 264.778223 19.649149 
L 264.994804 15.894372 
L 265.211385 14.709157 
L 265.427965 16.225374 
L 265.644546 20.311071 
L 266.077708 34.446023 
L 266.944031 66.038613 
L 267.160611 70.16666 
L 267.377192 71.73731 
L 267.593773 70.618595 
L 267.810354 66.942372 
L 268.243515 53.661872 
L 269.109838 23.917193 
L 269.326419 20.279422 
L 269.543 19.210131 
L 269.75958 20.841162 
L 269.976161 25.040535 
L 270.409323 39.399307 
L 271.275646 71.424659 
L 271.492226 75.65764 
L 271.708807 77.331869 
L 271.925388 76.315353 
L 272.141969 72.739923 
L 272.57513 59.656694 
L 273.441453 30.288618 
L 273.658034 26.741126 
L 273.874615 25.760518 
L 274.091195 27.478617 
L 274.524357 38.232013 
L 275.823841 82.930958 
L 276.040422 84.676791 
L 276.257003 83.730068 
L 276.473584 80.2226 
L 276.906745 67.269741 
L 277.773068 38.139746 
L 277.989649 34.646966 
L 278.20623 33.719121 
L 278.42281 35.488017 
L 278.855972 46.33707 
L 280.155456 91.274652 
L 280.372037 93.053106 
L 280.588618 92.136936 
L 280.805199 88.657947 
L 281.23836 75.755797 
L 282.104683 46.702053 
L 282.321264 43.223064 
L 282.537845 42.306894 
L 282.754425 44.085348 
L 283.187587 54.947148 
L 284.487071 99.871983 
L 284.703652 101.640879 
L 284.920233 100.713034 
L 285.136814 97.220254 
L 285.569975 84.284187 
L 286.436298 55.1374 
L 286.652879 51.629932 
L 286.86946 50.683209 
L 287.08604 52.429042 
L 287.519202 63.219434 
L 288.818686 107.881383 
L 289.035267 109.599482 
L 289.251848 108.618874 
L 289.468429 105.071382 
L 289.90159 92.020091 
L 290.767913 62.620077 
L 290.984494 59.044647 
L 291.201075 58.028131 
L 291.417655 59.70236 
L 291.634236 63.935341 
L 292.067398 78.332536 
L 292.933721 110.319465 
L 293.150301 114.518838 
L 293.366882 116.149869 
L 293.583463 115.080578 
L 293.800044 111.442807 
L 294.233205 98.206267 
L 295.099528 68.417628 
L 295.316109 64.741405 
L 295.53269 63.62269 
L 295.74927 65.19334 
L 295.965851 69.321387 
L 296.399013 83.504754 
L 297.265336 115.048929 
L 297.481916 119.134626 
L 297.698497 120.650843 
L 297.915078 119.465628 
L 298.131659 115.710851 
L 298.56482 102.237169 
L 299.431143 71.962548 
L 299.647724 68.162567 
L 299.864305 66.919251 
L 300.080885 68.364486 
L 300.297466 72.366336 
L 300.730628 86.295085 
L 301.596951 117.322018 
L 301.813531 121.276922 
L 302.030112 122.661818 
L 302.246693 121.344786 
L 302.463274 117.457727 
L 302.896435 103.718223 
L 303.762758 72.907836 
L 303.979339 68.973247 
L 304.19592 67.595124 
L 304.4125 68.905384 
L 304.629081 72.772126 
L 305.062243 86.430393 
L 305.928566 116.916227 
L 306.145146 120.736024 
L 306.361727 121.985946 
L 306.578308 120.534106 
L 306.794889 116.51244 
L 307.22805 102.504453 
L 308.094373 71.160959 
L 308.310954 67.09409 
L 308.527535 65.584149 
L 308.744115 66.763087 
L 308.960696 70.499037 
L 309.393858 83.897433 
L 310.260181 113.871279 
L 310.476761 117.564878 
L 310.693342 118.689385 
L 310.909923 117.112943 
L 311.126504 112.96752 
L 311.559665 98.714672 
L 312.425988 66.892916 
L 312.642569 62.709039 
L 312.85915 61.083174 
L 313.07573 62.147299 
L 313.292311 65.769574 
L 313.725473 78.944148 
L 314.591796 108.485233 
L 314.808377 112.073898 
L 315.024957 113.094826 
L 315.241538 111.416185 
L 315.458119 107.169969 
L 315.89128 92.719851 
L 316.757603 60.52149 
L 316.974184 56.247336 
L 317.190765 54.532787 
L 317.407346 55.509845 
L 317.623926 59.04669 
L 318.057088 72.055402 
L 318.923411 101.285313 
L 319.139992 104.80058 
L 319.356572 105.749903 
L 319.573153 104.00147 
L 320.006315 93.190284 
L 321.305799 48.341496 
L 321.52238 46.574185 
L 321.738961 47.500444 
L 321.955541 50.988467 
L 322.388703 63.905511 
L 323.255026 92.976299 
L 323.471607 96.456886 
L 323.688187 97.373589 
L 323.904768 95.594602 
L 324.33793 84.728539 
L 325.637414 39.765398 
L 325.853995 37.986411 
L 326.070576 38.903114 
L 326.287156 42.383701 
L 326.720318 55.292245 
L 327.586641 84.371533 
L 327.803222 87.859556 
L 328.019802 88.785815 
L 328.236383 87.018504 
L 328.669545 76.182136 
L 329.969029 31.35853 
L 330.18561 29.610097 
L 330.402191 30.55942 
L 330.618771 34.074687 
L 331.051933 47.05873 
L 331.918256 76.31331 
L 332.134837 79.850155 
L 332.351417 80.827213 
L 332.567998 79.112664 
L 333.00116 68.387659 
L 334.300644 23.943815 
L 334.517225 22.265174 
L 334.733806 23.286102 
L 334.950386 26.874767 
L 335.383548 40.010919 
L 336.249871 69.590426 
L 336.466452 73.212701 
L 336.683032 74.276826 
L 336.899613 72.650961 
L 337.116194 68.467084 
L 337.549355 54.170277 
L 338.415678 22.39248 
L 338.632259 18.247057 
L 338.84884 16.670615 
L 339.065421 17.795122 
L 339.282001 21.488721 
L 339.715163 34.838702 
L 340.581486 64.860963 
L 340.798067 68.596913 
L 341.014647 69.775851 
L 341.231228 68.26591 
L 341.447809 64.199041 
L 341.88097 50.139376 
L 342.747293 18.84756 
L 342.963874 14.825894 
L 343.180455 13.374054 
L 343.397036 14.623976 
L 343.613616 18.443773 
L 344.046778 32.048371 
L 344.913101 62.587874 
L 345.129682 66.454616 
L 345.346262 67.764876 
L 345.562843 66.386753 
L 345.779424 62.452164 
L 346.212585 48.658322 
L 347.078908 17.902273 
L 347.295489 14.015214 
L 347.51207 12.698182 
L 347.728651 14.083078 
L 347.945231 18.037982 
L 348.378393 31.913063 
L 349.244716 62.993664 
L 349.461297 66.995514 
L 349.677877 68.440749 
L 349.894458 67.197433 
L 350.111039 63.397452 
L 350.5442 49.872091 
L 351.410523 19.649149 
L 351.627104 15.894372 
L 351.843685 14.709157 
L 352.060266 16.225374 
L 352.276846 20.311071 
L 352.710008 34.446023 
L 353.576331 66.038613 
L 353.792912 70.16666 
L 354.009492 71.73731 
L 354.226073 70.618595 
L 354.442654 66.942372 
L 354.875815 53.661872 
L 355.742138 23.917193 
L 355.958719 20.279422 
L 356.1753 19.210131 
L 356.391881 20.841162 
L 356.608461 25.040535 
L 357.041623 39.399307 
L 357.907946 71.424659 
L 358.124527 75.65764 
L 358.341107 77.331869 
L 358.557688 76.315353 
L 358.774269 72.739923 
L 359.20743 59.656694 
L 360.073753 30.288618 
L 360.290334 26.741126 
L 360.506915 25.760518 
L 360.723496 27.478617 
L 361.156657 38.232013 
L 362.456142 82.930958 
L 362.672722 84.676791 
L 362.889303 83.730068 
L 363.105884 80.2226 
L 363.539045 67.269741 
L 364.405368 38.139746 
L 364.621949 34.646966 
L 364.83853 33.719121 
L 365.055111 35.488017 
L 365.488272 46.33707 
L 366.787757 91.274652 
L 367.004337 93.053106 
L 367.220918 92.136936 
L 367.437499 88.657947 
L 367.87066 75.755797 
L 368.736983 46.702053 
L 368.953564 43.223064 
L 369.170145 42.306894 
L 369.386726 44.085348 
L 369.819887 54.947148 
L 371.119372 99.871983 
L 371.335952 101.640879 
L 371.552533 100.713034 
L 371.769114 97.220254 
L 372.202275 84.284187 
L 373.068598 55.1374 
L 373.285179 51.629932 
L 373.50176 50.683209 
L 373.718341 52.429042 
L 374.151502 63.219434 
L 375.450987 107.881383 
L 375.667567 109.599482 
L 375.884148 108.618874 
L 376.100729 105.071382 
L 376.53389 92.020091 
L 377.400213 62.620077 
L 377.616794 59.044647 
L 377.833375 58.028131 
L 378.049956 59.70236 
L 378.266536 63.935341 
L 378.699698 78.332536 
L 379.566021 110.319465 
L 379.782602 114.518838 
L 379.999182 116.149869 
L 380.215763 115.080578 
L 380.432344 111.442807 
L 380.865505 98.206267 
L 381.731828 68.417628 
L 381.948409 64.741405 
L 382.16499 63.62269 
L 382.381571 65.19334 
L 382.598152 69.321387 
L 383.031313 83.504754 
L 383.897636 115.048929 
L 384.114217 119.134626 
L 384.330798 120.650843 
L 384.547378 119.465628 
L 384.763959 115.710851 
L 385.197121 102.237169 
L 386.063444 71.962548 
L 386.280024 68.162567 
L 386.496605 66.919251 
L 386.713186 68.364486 
L 386.929767 72.366336 
L 387.362928 86.295085 
L 388.229251 117.322018 
L 388.445832 121.276922 
L 388.662413 122.661818 
L 388.878993 121.344786 
L 389.095574 117.457727 
L 389.528736 103.718223 
L 389.528736 103.718223 
" clip-path="url(#pb2d65ca1e9)" style="fill: none; stroke: #1f77b4; stroke-opacity: 0.5; stroke-width: 1.5; stroke-linecap: square"/>
   </g>
   <g id="line2d_15">
    <path d="M 64.87419 67.68 
L 70.072128 57.544299 
L 72.887678 52.563564 
L 75.053485 49.149713 
L 77.002712 46.465191 
L 78.735358 44.432826 
L 80.251423 42.954295 
L 81.767489 41.774403 
L 83.066973 41.011664 
L 84.366458 40.485634 
L 85.665942 40.200984 
L 86.965427 40.160239 
L 88.264911 40.363762 
L 89.564396 40.809745 
L 90.86388 41.494231 
L 92.163365 42.411143 
L 93.67943 43.763667 
L 95.195495 45.405054 
L 96.928141 47.609054 
L 98.877368 50.464977 
L 101.043175 54.038364 
L 103.642144 58.761469 
L 107.540598 66.383002 
L 113.388278 77.815701 
L 116.203828 82.796436 
L 118.369636 86.210287 
L 120.318862 88.894809 
L 122.051508 90.927174 
L 123.567574 92.405705 
L 125.083639 93.585597 
L 126.383123 94.348336 
L 127.682608 94.874366 
L 128.982092 95.159016 
L 130.281577 95.199761 
L 131.581061 94.996238 
L 132.880546 94.550255 
L 134.18003 93.865769 
L 135.479515 92.948857 
L 136.99558 91.596333 
L 138.511645 89.954946 
L 140.244291 87.750946 
L 142.193518 84.895023 
L 144.359326 81.321636 
L 146.958295 76.598531 
L 150.856748 68.976998 
L 156.704428 57.544299 
L 159.519978 52.563564 
L 161.685786 49.149713 
L 163.635012 46.465191 
L 165.367658 44.432826 
L 166.883724 42.954295 
L 168.399789 41.774403 
L 169.699273 41.011664 
L 170.998758 40.485634 
L 172.298242 40.200984 
L 173.597727 40.160239 
L 174.897211 40.363762 
L 176.196696 40.809745 
L 177.49618 41.494231 
L 178.795665 42.411143 
L 180.31173 43.763667 
L 181.827796 45.405054 
L 183.560442 47.609054 
L 185.509668 50.464977 
L 187.675476 54.038364 
L 190.274445 58.761469 
L 194.172898 66.383002 
L 200.020579 77.815701 
L 202.836128 82.796436 
L 205.001936 86.210287 
L 206.951163 88.894809 
L 208.683809 90.927174 
L 210.199874 92.405705 
L 211.715939 93.585597 
L 213.015424 94.348336 
L 214.314908 94.874366 
L 215.614393 95.159016 
L 216.913877 95.199761 
L 218.213362 94.996238 
L 219.512846 94.550255 
L 220.812331 93.865769 
L 222.111815 92.948857 
L 223.62788 91.596333 
L 225.143946 89.954946 
L 226.876592 87.750946 
L 228.825818 84.895023 
L 230.991626 81.321636 
L 233.590595 76.598531 
L 237.489048 68.976998 
L 243.336729 57.544299 
L 246.152278 52.563564 
L 248.318086 49.149713 
L 250.267313 46.465191 
L 251.999959 44.432826 
L 253.516024 42.954295 
L 255.032089 41.774403 
L 256.331574 41.011664 
L 257.631058 40.485634 
L 258.930543 40.200984 
L 260.230027 40.160239 
L 261.529512 40.363762 
L 262.828996 40.809745 
L 264.128481 41.494231 
L 265.427965 42.411143 
L 266.944031 43.763667 
L 268.460096 45.405054 
L 270.192742 47.609054 
L 272.141969 50.464977 
L 274.307776 54.038364 
L 276.906745 58.761469 
L 280.805199 66.383002 
L 286.652879 77.815701 
L 289.468429 82.796436 
L 291.634236 86.210287 
L 293.583463 88.894809 
L 295.316109 90.927174 
L 296.832174 92.405705 
L 298.348239 93.585597 
L 299.647724 94.348336 
L 300.947208 94.874366 
L 302.246693 95.159016 
L 303.546177 95.199761 
L 304.845662 94.996238 
L 306.145146 94.550255 
L 307.444631 93.865769 
L 308.744115 92.948857 
L 310.260181 91.596333 
L 311.776246 89.954946 
L 313.508892 87.750946 
L 315.458119 84.895023 
L 317.623926 81.321636 
L 320.222895 76.598531 
L 324.121349 68.976998 
L 329.969029 57.544299 
L 332.784579 52.563564 
L 334.950386 49.149713 
L 336.899613 46.465191 
L 338.632259 44.432826 
L 340.148324 42.954295 
L 341.66439 41.774403 
L 342.963874 41.011664 
L 344.263359 40.485634 
L 345.562843 40.200984 
L 346.862328 40.160239 
L 348.161812 40.363762 
L 349.461297 40.809745 
L 350.760781 41.494231 
L 352.060266 42.411143 
L 353.576331 43.763667 
L 355.092396 45.405054 
L 356.825042 47.609054 
L 358.774269 50.464977 
L 360.940076 54.038364 
L 363.539045 58.761469 
L 367.437499 66.383002 
L 373.285179 77.815701 
L 376.100729 82.796436 
L 378.266536 86.210287 
L 380.215763 88.894809 
L 381.948409 90.927174 
L 383.464475 92.405705 
L 384.98054 93.585597 
L 386.280024 94.348336 
L 387.579509 94.874366 
L 388.878993 95.159016 
L 389.528736 95.20995 
L 389.528736 95.20995 
" clip-path="url(#pb2d65ca1e9)" style="fill: none; stroke: #ff7f0e; stroke-width: 1.5; stroke-linecap: square"/>
   </g>
   <g id="patch_3">
    <path d="M 48.641463 128.16 
L 48.641463 7.2 
" style="fill: none; stroke: #000000; stroke-width: 0.8; stroke-linejoin: miter; stroke-linecap: square"/>
   </g>
   <g id="patch_4">
    <path d="M 405.761463 128.16 
L 405.761463 7.2 
" style="fill: none; stroke: #000000; stroke-width: 0.8; stroke-linejoin: miter; stroke-linecap: square"/>
   </g>
   <g id="patch_5">
    <path d="M 48.641463 128.16 
L 405.761463 128.16 
" style="fill: none; stroke: #000000; stroke-width: 0.8; stroke-linejoin: miter; stroke-linecap: square"/>
   </g>
   <g id="patch_6">
    <path d="M 48.641463 7.2 
L 405.761463 7.2 
" style="fill: none; stroke: #000000; stroke-width: 0.8; stroke-linejoin: miter; stroke-linecap: square"/>
   </g>
   <g id="legend_1">
    <g id="patch_7">
     <path d="M 55.641463 123.16 
L 192.671353 123.16 
Q 194.671353 123.16 194.671353 121.16 
L 194.671353 92.23472 
Q 194.671353 90.23472 192.671353 90.23472 
L 55.641463 90.23472 
Q 53.641463 90.23472 53.641463 92.23472 
L 53.641463 121.16 
Q 53.641463 123.16 55.641463 123.16 
z
" style="fill: #ffffff; opacity: 0.8; stroke: #cccccc; stroke-linejoin: miter"/>
    </g>
    <g id="line2d_16">
     <path d="M 57.641463 98.2067 
L 67.641463 98.2067 
L 77.641463 98.2067 
" style="fill: none; stroke: #1f77b4; stroke-opacity: 0.5; stroke-width: 1.5; stroke-linecap: square"/>
    </g>
    <g id="text_7">
     <!-- $x_1+x_2$ (input) -->
     <g transform="translate(85.641463 101.7067) scale(0.1 -0.1)">
      <defs>
       <path id="CMR17-2b" d="M 2413 1472 
L 4109 1472 
C 4198 1472 4307 1472 4307 1580 
C 4307 1695 4205 1695 4109 1695 
L 2413 1695 
L 2413 3386 
C 2413 3475 2413 3584 2304 3584 
C 2189 3584 2189 3482 2189 3386 
L 2189 1695 
L 493 1695 
C 403 1695 294 1695 294 1587 
C 294 1472 397 1472 493 1472 
L 2189 1472 
L 2189 -218 
C 2189 -307 2189 -416 2298 -416 
C 2413 -416 2413 -314 2413 -218 
L 2413 1472 
z
" transform="scale(0.015625)"/>
       <path id="CMSS17-28" d="M 1613 4768 
C 1267 4417 474 3601 474 1588 
C 474 -433 1267 -1243 1613 -1600 
L 2003 -1600 
C 1216 -784 960 357 960 1581 
C 960 2798 1203 3946 2003 4768 
L 1613 4768 
z
" transform="scale(0.015625)"/>
       <path id="CMSS17-69" d="M 979 4183 
L 442 4183 
L 442 3648 
L 979 3648 
L 979 4183 
z
M 947 2739 
L 474 2739 
L 474 0 
L 947 0 
L 947 2739 
z
" transform="scale(0.015625)"/>
       <path id="CMSS17-6e" d="M 2618 1877 
C 2618 2283 2522 2816 1798 2816 
C 1389 2816 1120 2606 941 2389 
L 941 2758 
L 474 2758 
L 474 0 
L 960 0 
L 960 1559 
C 960 1964 1114 2428 1549 2428 
C 2112 2428 2131 2048 2131 1829 
L 2131 0 
L 2618 0 
L 2618 1877 
z
" transform="scale(0.015625)"/>
       <path id="CMSS17-70" d="M 966 333 
C 1178 129 1466 -5 1773 -5 
C 2368 -5 2880 603 2880 1412 
C 2880 2159 2496 2816 1946 2816 
C 1626 2816 1242 2702 954 2472 
L 954 2765 
L 480 2765 
L 480 -1216 
L 966 -1216 
L 966 333 
z
M 966 2100 
C 1018 2176 1235 2415 1587 2415 
C 2035 2415 2394 1960 2394 1412 
C 2394 787 1958 384 1530 384 
C 1402 384 1267 415 1139 523 
C 966 674 966 768 966 857 
L 966 2100 
z
" transform="scale(0.015625)"/>
       <path id="CMSS17-75" d="M 2618 2739 
L 2131 2739 
L 2131 972 
C 2131 498 1786 306 1421 306 
C 998 306 960 447 960 709 
L 960 2739 
L 474 2739 
L 474 678 
C 474 179 646 -64 1088 -64 
C 1306 -64 1798 -13 2144 306 
L 2144 0 
L 2618 0 
L 2618 2739 
z
" transform="scale(0.015625)"/>
       <path id="CMSS17-74" d="M 1069 2368 
L 1901 2368 
L 1901 2737 
L 1069 2737 
L 1069 3520 
L 614 3520 
L 614 2737 
L 109 2737 
L 109 2368 
L 602 2368 
L 602 749 
C 602 384 685 -64 1107 -64 
C 1427 -64 1722 25 2003 172 
L 1901 548 
C 1747 414 1562 337 1363 337 
C 1082 337 1069 696 1069 856 
L 1069 2368 
z
" transform="scale(0.015625)"/>
       <path id="CMSS17-29" d="M 723 -1600 
C 1069 -1249 1862 -433 1862 1581 
C 1862 3601 1069 4411 723 4768 
L 333 4768 
C 1120 3952 1376 2811 1376 1588 
C 1376 370 1133 -778 333 -1600 
L 723 -1600 
z
" transform="scale(0.015625)"/>
      </defs>
      <use xlink:href="#CMMI12-78" transform="scale(0.996264)"/>
      <use xlink:href="#CMR17-31" transform="translate(55.43406 -14.943915) scale(0.697382)"/>
      <use xlink:href="#CMR17-2b" transform="translate(110.05458 0) scale(0.996264)"/>
      <use xlink:href="#CMMI12-78" transform="translate(203.908576 0) scale(0.996264)"/>
      <use xlink:href="#CMR17-32" transform="translate(259.342635 -14.943915) scale(0.697382)"/>
      <use xlink:href="#CMSS17-28" transform="translate(323.053062 0) scale(0.996264)"/>
      <use xlink:href="#CMSS17-69" transform="translate(359.486976 0) scale(0.996264)"/>
      <use xlink:href="#CMSS17-6e" transform="translate(381.667699 0) scale(0.996264)"/>
      <use xlink:href="#CMSS17-70" transform="translate(429.872643 0) scale(0.996264)"/>
      <use xlink:href="#CMSS17-75" transform="translate(478.077586 0) scale(0.996264)"/>
      <use xlink:href="#CMSS17-74" transform="translate(526.282529 0) scale(0.996264)"/>
      <use xlink:href="#CMSS17-29" transform="translate(560.114095 0) scale(0.996264)"/>
     </g>
    </g>
    <g id="line2d_17">
     <path d="M 57.641463 113.16934 
L 67.641463 113.16934 
L 77.641463 113.16934 
" style="fill: none; stroke: #ff7f0e; stroke-width: 1.5; stroke-linecap: square"/>
    </g>
    <g id="text_8">
     <!-- $x_1$ (low-frequency signal) -->
     <g transform="translate(85.641463 116.66934) scale(0.1 -0.1)">
      <defs>
       <path id="CMSS17-6c" d="M 947 4416 
L 474 4416 
L 474 0 
L 947 0 
L 947 4416 
z
" transform="scale(0.015625)"/>
       <path id="CMSS17-6f" d="M 2829 1356 
C 2829 2176 2221 2816 1504 2816 
C 768 2816 173 2157 173 1356 
C 173 544 787 -64 1498 -64 
C 2227 -64 2829 563 2829 1356 
z
M 1504 337 
C 1050 337 659 709 659 1408 
C 659 2151 1114 2427 1498 2427 
C 1914 2427 2342 2126 2342 1408 
C 2342 683 1926 337 1504 337 
z
" transform="scale(0.015625)"/>
       <path id="CMSS17-77" d="M 4013 2752 
L 3526 2752 
L 3187 1601 
C 3117 1358 2918 685 2893 371 
L 2886 371 
C 2874 564 2765 1024 2586 1633 
L 2259 2752 
L 1818 2752 
L 1498 1658 
C 1338 1101 1216 627 1203 371 
L 1197 371 
C 1171 749 909 1633 870 1773 
L 582 2752 
L 83 2752 
L 915 0 
L 1402 0 
C 1734 1096 1990 1943 2010 2370 
C 2022 2160 2131 1707 2195 1484 
L 2618 0 
L 3181 0 
L 4013 2752 
z
" transform="scale(0.015625)"/>
       <path id="CMSS17-2d" d="M 1664 1216 
L 1664 1585 
L 64 1585 
L 64 1216 
L 1664 1216 
z
" transform="scale(0.015625)"/>
       <path id="CMSS17-66" d="M 1075 2368 
L 1722 2368 
L 1722 2737 
L 1062 2737 
L 1062 3559 
C 1062 4014 1408 4092 1606 4092 
C 1670 4092 1850 4092 2080 4009 
L 2080 4429 
C 1933 4461 1754 4480 1613 4480 
C 1018 4480 602 3993 602 3359 
L 602 2737 
L 160 2737 
L 160 2368 
L 602 2368 
L 602 0 
L 1075 0 
L 1075 2368 
z
" transform="scale(0.015625)"/>
       <path id="CMSS17-72" d="M 954 1363 
C 954 1965 1395 2368 1958 2368 
L 1958 2789 
C 1549 2789 1165 2585 934 2253 
L 934 2758 
L 480 2758 
L 480 0 
L 954 0 
L 954 1363 
z
" transform="scale(0.015625)"/>
       <path id="CMSS17-65" d="M 2502 1377 
C 2502 1590 2490 2003 2285 2345 
C 2061 2713 1696 2816 1421 2816 
C 755 2816 192 2188 192 1375 
C 192 582 774 -64 1510 -64 
C 1798 -64 2150 19 2470 248 
C 2470 274 2458 414 2451 420 
C 2451 433 2432 630 2432 656 
C 2125 407 1773 325 1517 325 
C 1107 325 666 667 646 1377 
L 2502 1377 
z
M 698 1728 
C 781 2084 1062 2421 1421 2421 
C 1517 2421 1965 2421 2080 1728 
L 698 1728 
z
" transform="scale(0.015625)"/>
       <path id="CMSS17-71" d="M 2611 2816 
L 2138 2816 
L 2138 2428 
C 2112 2460 1818 2816 1318 2816 
C 736 2816 211 2228 211 1399 
C 211 633 653 -5 1229 -5 
C 1498 -5 1837 91 2125 365 
L 2125 -1216 
L 2611 -1216 
L 2611 2816 
z
M 2138 914 
C 2138 832 2138 718 1939 554 
C 1888 510 1747 384 1504 384 
C 1050 384 698 850 698 1399 
C 698 2011 1126 2415 1562 2415 
C 1926 2415 2138 2061 2138 1797 
L 2138 914 
z
" transform="scale(0.015625)"/>
       <path id="CMSS17-63" d="M 2464 2541 
C 2464 2585 2170 2714 2093 2739 
C 1882 2816 1613 2816 1542 2816 
C 710 2816 211 2093 211 1363 
C 211 595 768 -64 1517 -64 
C 1946 -64 2253 76 2502 242 
L 2464 664 
C 2189 453 1869 337 1523 337 
C 1024 337 698 774 698 1369 
C 698 1831 909 2414 1549 2414 
C 1901 2414 2099 2343 2394 2145 
L 2464 2541 
z
" transform="scale(0.015625)"/>
       <path id="CMSS17-79" d="M 2675 2752 
L 2176 2752 
C 1632 1294 1446 702 1434 383 
L 1427 383 
C 1408 696 1126 1460 902 2007 
L 602 2752 
L 83 2752 
L 1216 13 
C 1146 -178 1043 -465 1011 -529 
C 870 -885 774 -885 672 -885 
C 646 -885 442 -885 211 -809 
L 250 -1229 
C 410 -1261 570 -1280 685 -1280 
C 845 -1280 1165 -1280 1459 -497 
L 2675 2752 
z
" transform="scale(0.015625)"/>
       <path id="CMSS17-73" d="M 2061 2627 
C 1683 2807 1389 2807 1197 2807 
C 742 2807 198 2648 198 2003 
C 198 1359 902 1218 1094 1179 
C 1389 1122 1715 1058 1715 740 
C 1715 337 1254 337 1171 337 
C 915 337 563 407 243 638 
L 166 210 
C 531 0 883 -64 1178 -64 
C 1965 -64 2163 416 2163 781 
C 2163 1094 1984 1305 1862 1401 
C 1651 1568 1574 1587 1050 1696 
C 960 1709 646 1779 646 2066 
C 646 2432 1050 2432 1139 2432 
C 1555 2432 1811 2303 1984 2208 
L 2061 2627 
z
" transform="scale(0.015625)"/>
       <path id="CMSS17-67" d="M 2848 2808 
C 2483 2808 2170 2738 1914 2617 
C 1702 2777 1485 2808 1338 2808 
C 781 2808 358 2349 358 1814 
C 358 1468 550 1207 563 1195 
C 448 1035 384 863 384 672 
C 384 448 474 289 544 200 
C 211 -3 166 -314 166 -435 
C 166 -898 749 -1280 1498 -1280 
C 2253 -1280 2835 -898 2835 -428 
C 2835 448 1856 448 1587 448 
L 1069 448 
C 973 448 717 448 717 791 
C 717 921 774 1004 781 1010 
C 877 940 1075 832 1338 832 
C 1869 832 2310 1278 2310 1827 
C 2310 2132 2170 2355 2112 2432 
L 2131 2432 
C 2150 2432 2419 2432 2515 2432 
C 2720 2432 2739 2429 2918 2419 
L 2848 2808 
z
M 1338 1182 
C 1120 1182 813 1315 813 1823 
C 813 2375 1165 2464 1331 2464 
C 1549 2464 1856 2331 1856 1823 
C 1856 1271 1504 1182 1338 1182 
z
M 1581 -10 
C 1734 -10 2381 -10 2381 -442 
C 2381 -714 1984 -929 1504 -929 
C 1018 -929 621 -720 621 -435 
C 621 -403 621 -10 1062 -10 
L 1581 -10 
z
" transform="scale(0.015625)"/>
       <path id="CMSS17-61" d="M 2406 1791 
C 2406 2392 1978 2808 1402 2808 
C 1120 2808 813 2757 461 2553 
L 499 2135 
C 659 2248 934 2432 1395 2432 
C 1722 2432 1920 2180 1920 1782 
L 1920 1536 
C 896 1536 256 1238 256 726 
C 256 461 416 -64 947 -64 
C 1043 -64 1562 -64 1933 217 
L 1933 -19 
L 2406 -19 
L 2406 1791 
z
M 1920 816 
C 1920 701 1920 548 1728 434 
C 1562 325 1350 325 1261 325 
C 941 325 723 511 723 744 
C 723 1211 1722 1211 1920 1211 
L 1920 816 
z
" transform="scale(0.015625)"/>
      </defs>
      <use xlink:href="#CMMI12-78" transform="scale(0.996264)"/>
      <use xlink:href="#CMR17-31" transform="translate(55.43406 -14.943915) scale(0.697382)"/>
      <use xlink:href="#CMSS17-28" transform="translate(119.144486 0) scale(0.996264)"/>
      <use xlink:href="#CMSS17-6c" transform="translate(155.5784 0) scale(0.996264)"/>
      <use xlink:href="#CMSS17-6f" transform="translate(177.759124 0) scale(0.996264)"/>
      <use xlink:href="#CMSS17-77" transform="translate(222.000293 0) scale(0.996264)"/>
      <use xlink:href="#CMSS17-2d" transform="translate(285.819838 0) scale(0.996264)"/>
      <use xlink:href="#CMSS17-66" transform="translate(317.048951 0) scale(0.996264)"/>
      <use xlink:href="#CMSS17-72" transform="translate(345.67561 0) scale(0.996264)"/>
      <use xlink:href="#CMSS17-65" transform="translate(377.585382 0) scale(0.996264)"/>
      <use xlink:href="#CMSS17-71" transform="translate(419.224204 0) scale(0.996264)"/>
      <use xlink:href="#CMSS17-75" transform="translate(467.429148 0) scale(0.996264)"/>
      <use xlink:href="#CMSS17-65" transform="translate(515.634091 0) scale(0.996264)"/>
      <use xlink:href="#CMSS17-6e" transform="translate(557.272913 0) scale(0.996264)"/>
      <use xlink:href="#CMSS17-63" transform="translate(605.477856 0) scale(0.996264)"/>
      <use xlink:href="#CMSS17-79" transform="translate(647.116678 0) scale(0.996264)"/>
      <use xlink:href="#CMSS17-73" transform="translate(721.345932 0) scale(0.996264)"/>
      <use xlink:href="#CMSS17-69" transform="translate(757.259474 0) scale(0.996264)"/>
      <use xlink:href="#CMSS17-67" transform="translate(779.440197 0) scale(0.996264)"/>
      <use xlink:href="#CMSS17-6e" transform="translate(826.283821 0) scale(0.996264)"/>
      <use xlink:href="#CMSS17-61" transform="translate(874.488764 0) scale(0.996264)"/>
      <use xlink:href="#CMSS17-6c" transform="translate(919.410685 0) scale(0.996264)"/>
      <use xlink:href="#CMSS17-29" transform="translate(941.591408 0) scale(0.996264)"/>
     </g>
    </g>
   </g>
  </g>
  <g id="axes_2">
   <g id="patch_8">
    <path d="M 48.641463 273.312 
L 405.761463 273.312 
L 405.761463 152.352 
L 48.641463 152.352 
z
" style="fill: #ffffff"/>
   </g>
   <g id="matplotlib.axis_3">
    <g id="xtick_9">
     <g id="line2d_18">
      <g>
       <use xlink:href="#mf2658e8221" x="64.87419" y="273.312" style="stroke: #000000; stroke-width: 0.8"/>
      </g>
     </g>
     <g id="text_9">
      <!-- $\mathdefault{0}$ -->
      <g transform="translate(62.383522 287.230498) scale(0.1 -0.1)">
       <use xlink:href="#CMR17-30" transform="scale(0.996264)"/>
      </g>
     </g>
    </g>
    <g id="xtick_10">
     <g id="line2d_19">
      <g>
       <use xlink:href="#mf2658e8221" x="108.19034" y="273.312" style="stroke: #000000; stroke-width: 0.8"/>
      </g>
     </g>
     <g id="text_10">
      <!-- $\mathdefault{2}$ -->
      <g transform="translate(105.699673 287.230498) scale(0.1 -0.1)">
       <use xlink:href="#CMR17-32" transform="scale(0.996264)"/>
      </g>
     </g>
    </g>
    <g id="xtick_11">
     <g id="line2d_20">
      <g>
       <use xlink:href="#mf2658e8221" x="151.50649" y="273.312" style="stroke: #000000; stroke-width: 0.8"/>
      </g>
     </g>
     <g id="text_11">
      <!-- $\mathdefault{4}$ -->
      <g transform="translate(149.015823 287.230498) scale(0.1 -0.1)">
       <defs>
        <path id="CMR17-34" d="M 2150 4122 
C 2150 4256 2144 4256 2029 4256 
L 128 1254 
L 128 1088 
L 1779 1088 
L 1779 457 
C 1779 224 1766 160 1318 160 
L 1197 160 
L 1197 0 
C 1402 0 1747 0 1965 0 
C 2182 0 2528 0 2733 0 
L 2733 160 
L 2611 160 
C 2163 160 2150 224 2150 457 
L 2150 1088 
L 2803 1088 
L 2803 1254 
L 2150 1254 
L 2150 4122 
z
M 1798 3703 
L 1798 1254 
L 256 1254 
L 1798 3703 
z
" transform="scale(0.015625)"/>
       </defs>
       <use xlink:href="#CMR17-34" transform="scale(0.996264)"/>
      </g>
     </g>
    </g>
    <g id="xtick_12">
     <g id="line2d_21">
      <g>
       <use xlink:href="#mf2658e8221" x="194.822641" y="273.312" style="stroke: #000000; stroke-width: 0.8"/>
      </g>
     </g>
     <g id="text_12">
      <!-- $\mathdefault{6}$ -->
      <g transform="translate(192.331973 287.230498) scale(0.1 -0.1)">
       <defs>
        <path id="CMR17-36" d="M 678 2176 
C 678 3690 1395 4032 1811 4032 
C 1946 4032 2272 4009 2400 3776 
C 2298 3776 2106 3776 2106 3553 
C 2106 3381 2246 3323 2336 3323 
C 2394 3323 2566 3348 2566 3560 
C 2566 3954 2246 4179 1805 4179 
C 1043 4179 243 3390 243 1984 
C 243 253 966 -128 1478 -128 
C 2099 -128 2688 427 2688 1283 
C 2688 2081 2170 2662 1517 2662 
C 1126 2662 838 2407 678 1960 
L 678 2176 
z
M 1478 25 
C 691 25 691 1200 691 1436 
C 691 1896 909 2560 1504 2560 
C 1613 2560 1926 2560 2138 2120 
C 2253 1870 2253 1609 2253 1289 
C 2253 944 2253 690 2118 434 
C 1978 171 1773 25 1478 25 
z
" transform="scale(0.015625)"/>
       </defs>
       <use xlink:href="#CMR17-36" transform="scale(0.996264)"/>
      </g>
     </g>
    </g>
    <g id="xtick_13">
     <g id="line2d_22">
      <g>
       <use xlink:href="#mf2658e8221" x="238.138791" y="273.312" style="stroke: #000000; stroke-width: 0.8"/>
      </g>
     </g>
     <g id="text_13">
      <!-- $\mathdefault{8}$ -->
      <g transform="translate(235.648123 287.230498) scale(0.1 -0.1)">
       <defs>
        <path id="CMR17-38" d="M 1741 2264 
C 2144 2467 2554 2773 2554 3263 
C 2554 3841 1990 4179 1472 4179 
C 890 4179 378 3759 378 3180 
C 378 3021 416 2747 666 2505 
C 730 2442 998 2251 1171 2130 
C 883 1983 211 1634 211 934 
C 211 279 838 -128 1459 -128 
C 2144 -128 2720 362 2720 1010 
C 2720 1590 2330 1857 2074 2029 
L 1741 2264 
z
M 902 2822 
C 851 2854 595 3051 595 3351 
C 595 3739 998 4032 1459 4032 
C 1965 4032 2336 3676 2336 3262 
C 2336 2669 1670 2331 1638 2331 
C 1632 2331 1626 2331 1574 2370 
L 902 2822 
z
M 2080 1519 
C 2176 1449 2483 1240 2483 851 
C 2483 381 2010 25 1472 25 
C 890 25 448 438 448 940 
C 448 1443 838 1862 1280 2060 
L 2080 1519 
z
" transform="scale(0.015625)"/>
       </defs>
       <use xlink:href="#CMR17-38" transform="scale(0.996264)"/>
      </g>
     </g>
    </g>
    <g id="xtick_14">
     <g id="line2d_23">
      <g>
       <use xlink:href="#mf2658e8221" x="281.454941" y="273.312" style="stroke: #000000; stroke-width: 0.8"/>
      </g>
     </g>
     <g id="text_14">
      <!-- $\mathdefault{10}$ -->
      <g transform="translate(276.473606 287.230498) scale(0.1 -0.1)">
       <use xlink:href="#CMR17-31" transform="scale(0.996264)"/>
       <use xlink:href="#CMR17-30" transform="translate(45.690477 0) scale(0.996264)"/>
      </g>
     </g>
    </g>
    <g id="xtick_15">
     <g id="line2d_24">
      <g>
       <use xlink:href="#mf2658e8221" x="324.771091" y="273.312" style="stroke: #000000; stroke-width: 0.8"/>
      </g>
     </g>
     <g id="text_15">
      <!-- $\mathdefault{12}$ -->
      <g transform="translate(319.789756 287.230498) scale(0.1 -0.1)">
       <use xlink:href="#CMR17-31" transform="scale(0.996264)"/>
       <use xlink:href="#CMR17-32" transform="translate(45.690477 0) scale(0.996264)"/>
      </g>
     </g>
    </g>
    <g id="xtick_16">
     <g id="line2d_25">
      <g>
       <use xlink:href="#mf2658e8221" x="368.087241" y="273.312" style="stroke: #000000; stroke-width: 0.8"/>
      </g>
     </g>
     <g id="text_16">
      <!-- $\mathdefault{14}$ -->
      <g transform="translate(363.105906 287.230498) scale(0.1 -0.1)">
       <use xlink:href="#CMR17-31" transform="scale(0.996264)"/>
       <use xlink:href="#CMR17-34" transform="translate(45.690477 0) scale(0.996264)"/>
      </g>
     </g>
    </g>
    <g id="text_17">
     <!-- $t$ [rad/s] -->
     <g transform="translate(209.794495 300.639657) scale(0.1 -0.1)">
      <defs>
       <path id="CMSS17-5b" d="M 1613 -1600 
L 1613 -1212 
L 1062 -1212 
L 1062 4352 
L 1613 4352 
L 1613 4741 
L 595 4741 
L 595 -1600 
L 1613 -1600 
z
" transform="scale(0.015625)"/>
       <path id="CMSS17-64" d="M 2611 4416 
L 2138 4416 
L 2138 2438 
C 1939 2603 1613 2756 1254 2756 
C 672 2756 211 2131 211 1347 
C 211 562 666 -64 1235 -64 
C 1677 -64 1971 172 2125 306 
L 2125 -13 
L 2611 -13 
L 2611 4416 
z
M 2125 836 
C 2125 747 2125 653 1926 482 
C 1798 375 1645 325 1498 325 
C 1152 325 698 576 698 1340 
C 698 2134 1210 2368 1562 2368 
C 1798 2368 1990 2254 2125 2065 
L 2125 836 
z
" transform="scale(0.015625)"/>
       <path id="CMSS17-2f" d="M 2637 4545 
C 2669 4627 2669 4640 2669 4653 
C 2669 4729 2611 4768 2560 4768 
C 2483 4768 2458 4717 2432 4640 
L 365 -1377 
C 333 -1460 333 -1473 333 -1486 
C 333 -1562 390 -1600 442 -1600 
C 518 -1600 544 -1549 570 -1473 
L 2637 4545 
z
" transform="scale(0.015625)"/>
       <path id="CMSS17-5d" d="M 1146 4741 
L 128 4741 
L 128 4352 
L 678 4352 
L 678 -1212 
L 128 -1212 
L 128 -1600 
L 1146 -1600 
L 1146 4741 
z
" transform="scale(0.015625)"/>
      </defs>
      <use xlink:href="#CMMI12-74" transform="scale(0.996264)"/>
      <use xlink:href="#CMSS17-5b" transform="translate(66.455443 0) scale(0.996264)"/>
      <use xlink:href="#CMSS17-72" transform="translate(93.640882 0) scale(0.996264)"/>
      <use xlink:href="#CMSS17-61" transform="translate(125.550654 0) scale(0.996264)"/>
      <use xlink:href="#CMSS17-64" transform="translate(170.472575 0) scale(0.996264)"/>
      <use xlink:href="#CMSS17-2f" transform="translate(218.677518 0) scale(0.996264)"/>
      <use xlink:href="#CMSS17-73" transform="translate(265.521141 0) scale(0.996264)"/>
      <use xlink:href="#CMSS17-5d" transform="translate(301.434683 0) scale(0.996264)"/>
     </g>
    </g>
   </g>
   <g id="matplotlib.axis_4">
    <g id="ytick_6">
     <g id="line2d_26">
      <g>
       <use xlink:href="#mec98bc9513" x="48.641463" y="257.934953" style="stroke: #000000; stroke-width: 0.8"/>
      </g>
     </g>
     <g id="text_18">
      <!-- $\mathdefault{−1.0}$ -->
      <g transform="translate(21.16264 261.394202) scale(0.1 -0.1)">
       <defs>
        <path id="CMMI12-3a" d="M 1178 307 
C 1178 492 1024 619 870 619 
C 685 619 557 466 557 313 
C 557 128 710 0 864 0 
C 1050 0 1178 153 1178 307 
z
" transform="scale(0.015625)"/>
       </defs>
       <use xlink:href="#CMSY10-0" transform="scale(0.996264)"/>
       <use xlink:href="#CMR17-31" transform="translate(77.487468 0) scale(0.996264)"/>
       <use xlink:href="#CMMI12-3a" transform="translate(123.177945 0) scale(0.996264)"/>
       <use xlink:href="#CMR17-30" transform="translate(150.275122 0) scale(0.996264)"/>
      </g>
     </g>
    </g>
    <g id="ytick_7">
     <g id="line2d_27">
      <g>
       <use xlink:href="#mec98bc9513" x="48.641463" y="235.439636" style="stroke: #000000; stroke-width: 0.8"/>
      </g>
     </g>
     <g id="text_19">
      <!-- $\mathdefault{−0.5}$ -->
      <g transform="translate(21.16264 238.898885) scale(0.1 -0.1)">
       <defs>
        <path id="CMR17-35" d="M 730 3692 
C 794 3666 1056 3584 1325 3584 
C 1920 3584 2246 3911 2432 4100 
C 2432 4157 2432 4192 2394 4192 
C 2387 4192 2374 4192 2323 4163 
C 2099 4058 1837 3973 1517 3973 
C 1325 3973 1037 3999 723 4139 
C 653 4171 640 4171 634 4171 
C 602 4171 595 4164 595 4037 
L 595 2203 
C 595 2089 595 2057 659 2057 
C 691 2057 704 2070 736 2114 
C 941 2401 1222 2522 1542 2522 
C 1766 2522 2246 2382 2246 1289 
C 2246 1085 2246 715 2054 421 
C 1894 159 1645 25 1370 25 
C 947 25 518 320 403 814 
C 429 807 480 795 506 795 
C 589 795 749 840 749 1038 
C 749 1210 627 1280 506 1280 
C 358 1280 262 1190 262 1011 
C 262 454 704 -128 1382 -128 
C 2042 -128 2669 440 2669 1264 
C 2669 2030 2170 2624 1549 2624 
C 1222 2624 947 2503 730 2274 
L 730 3692 
z
" transform="scale(0.015625)"/>
       </defs>
       <use xlink:href="#CMSY10-0" transform="scale(0.996264)"/>
       <use xlink:href="#CMR17-30" transform="translate(77.487468 0) scale(0.996264)"/>
       <use xlink:href="#CMMI12-3a" transform="translate(123.177945 0) scale(0.996264)"/>
       <use xlink:href="#CMR17-35" transform="translate(150.275122 0) scale(0.996264)"/>
      </g>
     </g>
    </g>
    <g id="ytick_8">
     <g id="line2d_28">
      <g>
       <use xlink:href="#mec98bc9513" x="48.641463" y="212.94432" style="stroke: #000000; stroke-width: 0.8"/>
      </g>
     </g>
     <g id="text_20">
      <!-- $\mathdefault{0.0}$ -->
      <g transform="translate(28.911384 216.403569) scale(0.1 -0.1)">
       <use xlink:href="#CMR17-30" transform="scale(0.996264)"/>
       <use xlink:href="#CMMI12-3a" transform="translate(45.690477 0) scale(0.996264)"/>
       <use xlink:href="#CMR17-30" transform="translate(72.787654 0) scale(0.996264)"/>
      </g>
     </g>
    </g>
    <g id="ytick_9">
     <g id="line2d_29">
      <g>
       <use xlink:href="#mec98bc9513" x="48.641463" y="190.449004" style="stroke: #000000; stroke-width: 0.8"/>
      </g>
     </g>
     <g id="text_21">
      <!-- $\mathdefault{0.5}$ -->
      <g transform="translate(28.911384 193.908253) scale(0.1 -0.1)">
       <use xlink:href="#CMR17-30" transform="scale(0.996264)"/>
       <use xlink:href="#CMMI12-3a" transform="translate(45.690477 0) scale(0.996264)"/>
       <use xlink:href="#CMR17-35" transform="translate(72.787654 0) scale(0.996264)"/>
      </g>
     </g>
    </g>
    <g id="ytick_10">
     <g id="line2d_30">
      <g>
       <use xlink:href="#mec98bc9513" x="48.641463" y="167.953688" style="stroke: #000000; stroke-width: 0.8"/>
      </g>
     </g>
     <g id="text_22">
      <!-- $\mathdefault{1.0}$ -->
      <g transform="translate(28.911384 171.412937) scale(0.1 -0.1)">
       <use xlink:href="#CMR17-31" transform="scale(0.996264)"/>
       <use xlink:href="#CMMI12-3a" transform="translate(45.690477 0) scale(0.996264)"/>
       <use xlink:href="#CMR17-30" transform="translate(72.787654 0) scale(0.996264)"/>
      </g>
     </g>
    </g>
    <g id="text_23">
     <!-- $y(t)$ -->
     <g transform="translate(14.67198 221.126153) rotate(-90) scale(0.1 -0.1)">
      <defs>
       <path id="CMMI12-79" d="M 1683 -700 
C 1510 -939 1261 -1152 947 -1152 
C 870 -1152 563 -1152 467 -889 
C 486 -895 518 -895 531 -895 
C 723 -895 851 -729 851 -582 
C 851 -435 730 -384 634 -384 
C 531 -384 307 -458 307 -759 
C 307 -1071 582 -1286 947 -1286 
C 1587 -1286 2234 -700 2413 6 
L 3040 2485 
C 3046 2517 3059 2556 3059 2594 
C 3059 2689 2982 2753 2886 2753 
C 2829 2753 2694 2727 2643 2535 
L 2170 658 
C 2138 543 2138 530 2086 460 
C 1958 281 1747 64 1440 64 
C 1082 64 1050 415 1050 588 
C 1050 952 1222 1443 1395 1903 
C 1466 2088 1504 2178 1504 2305 
C 1504 2574 1312 2816 998 2816 
C 410 2816 173 1890 173 1839 
C 173 1814 198 1782 243 1782 
C 301 1782 307 1807 333 1897 
C 486 2433 730 2689 979 2689 
C 1037 2689 1146 2689 1146 2478 
C 1146 2312 1075 2127 979 1884 
C 666 1047 666 837 666 683 
C 666 77 1101 -64 1421 -64 
C 1606 -64 1837 -6 2061 230 
L 2067 224 
C 1971 -147 1907 -392 1683 -700 
z
" transform="scale(0.015625)"/>
      </defs>
      <use xlink:href="#CMMI12-79" transform="scale(0.996264)"/>
      <use xlink:href="#CMR17-28" transform="translate(51.138781 0) scale(0.996264)"/>
      <use xlink:href="#CMMI12-74" transform="translate(86.419549 0) scale(0.996264)"/>
      <use xlink:href="#CMR17-29" transform="translate(121.645879 0) scale(0.996264)"/>
     </g>
    </g>
   </g>
   <g id="line2d_31">
    <path d="M 64.87419 212.94432 
L 65.090771 211.831304 
L 65.523932 207.099356 
L 66.390255 196.33408 
L 66.606836 195.155251 
L 66.823417 194.968369 
L 67.039998 195.801661 
L 67.473159 200.120657 
L 68.556063 214.144641 
L 68.772644 215.11161 
L 68.989224 214.997831 
L 69.205805 213.782207 
L 69.638967 208.479525 
L 70.72187 190.975962 
L 70.938451 189.175536 
L 71.155032 188.419239 
L 71.371613 188.731576 
L 71.588193 190.031518 
L 72.021355 194.800203 
L 72.671097 202.867382 
L 72.887678 204.526234 
L 73.104259 205.255654 
L 73.320839 204.929714 
L 73.53742 203.525623 
L 73.970582 197.910923 
L 75.053485 179.945419 
L 75.270066 178.0984 
L 75.486647 177.308637 
L 75.703228 177.599851 
L 75.919808 178.890287 
L 76.35297 183.672167 
L 77.002712 191.830939 
L 77.219293 193.537426 
L 77.435874 194.322287 
L 77.652454 194.059191 
L 77.869035 192.724974 
L 78.302197 187.269739 
L 79.3851 169.80419 
L 79.601681 168.072502 
L 79.818262 167.402674 
L 80.034843 167.818236 
L 80.251423 169.237251 
L 80.684585 174.288313 
L 81.334327 182.878635 
L 81.767489 185.674605 
L 81.984069 185.568526 
L 82.20065 184.394312 
L 82.633812 179.267617 
L 83.716715 162.66866 
L 83.933296 161.11733 
L 84.149877 160.630013 
L 84.366458 161.23016 
L 84.799619 165.267368 
L 85.882523 179.491739 
L 86.099104 180.629091 
L 86.315684 180.723027 
L 86.532265 179.750206 
L 86.965427 175.030178 
L 88.04833 159.467635 
L 88.264911 158.126489 
L 88.481492 157.850182 
L 88.698073 158.662108 
L 89.131234 163.124946 
L 90.214138 178.422778 
L 90.430719 179.775973 
L 90.647299 180.086003 
L 90.86388 179.32947 
L 91.297042 175.042378 
L 92.379945 160.561669 
L 92.596526 159.436359 
L 92.813107 159.375584 
L 93.029688 160.402683 
L 93.462849 165.29457 
L 94.545753 181.654955 
L 94.762334 183.218506 
L 94.978914 183.738052 
L 95.195495 183.190142 
L 95.412076 181.656783 
L 95.845237 176.431298 
L 96.49498 167.715751 
L 96.928141 164.927662 
L 97.144722 165.065162 
L 97.361303 166.289134 
L 97.794464 171.570374 
L 98.877368 188.876262 
L 99.093949 190.62376 
L 99.310529 191.325427 
L 99.52711 190.957767 
L 99.743691 189.602743 
L 100.176852 184.728007 
L 100.826595 176.523134 
L 101.043175 174.826665 
L 101.259756 174.064704 
L 101.476337 174.363672 
L 101.692918 175.74682 
L 102.126079 181.339374 
L 103.208983 199.380727 
L 103.425564 201.267686 
L 103.642144 202.106188 
L 103.858725 201.872704 
L 104.075306 200.649162 
L 104.508467 196.029184 
L 105.15821 188.185462 
L 105.37479 186.603661 
L 105.591371 185.953462 
L 105.807952 186.361259 
L 106.024533 187.850277 
L 106.457694 193.645584 
L 107.540598 212.140284 
L 107.757179 214.108552 
L 107.973759 215.025197 
L 108.19034 214.866667 
L 108.406921 213.714874 
L 108.840082 209.228705 
L 109.489825 201.561235 
L 109.706405 200.031603 
L 109.922986 199.430259 
L 110.139567 199.883587 
L 110.356148 201.414799 
L 110.789309 207.284444 
L 111.872213 225.905974 
L 112.088794 227.889441 
L 112.305374 228.817883 
L 112.521955 228.667747 
L 112.738536 227.520944 
L 113.171698 223.034533 
L 113.82144 215.341158 
L 114.038021 213.796088 
L 114.254601 213.175909 
L 114.471182 213.607011 
L 114.687763 215.11261 
L 115.120924 220.920899 
L 116.203828 239.330326 
L 116.420409 241.261389 
L 116.63699 242.134128 
L 116.85357 241.925004 
L 117.070151 240.715942 
L 117.503313 236.095261 
L 118.153055 228.17636 
L 118.369636 226.549754 
L 118.586216 225.844894 
L 118.802797 226.188189 
L 119.019378 227.602876 
L 119.452539 233.220119 
L 120.535443 251.099271 
L 120.752024 252.915459 
L 120.968605 253.670448 
L 121.185185 253.340727 
L 121.401766 252.008251 
L 121.834928 247.132416 
L 122.48467 238.810442 
L 122.701251 237.044187 
L 122.917831 236.197087 
L 123.134412 236.395588 
L 123.350993 237.662963 
L 123.784154 242.978172 
L 124.867058 260.060783 
L 125.083639 261.71087 
L 125.30022 262.297586 
L 125.5168 261.797466 
L 125.733381 260.292502 
L 126.166543 255.065605 
L 126.816285 246.202467 
L 127.249446 243.219143 
L 127.466027 243.230037 
L 127.682608 244.30812 
L 128.115769 249.239872 
L 129.198673 265.337647 
L 129.415254 266.786664 
L 129.631835 267.17106 
L 129.848415 266.467415 
L 130.281577 262.221616 
L 131.364481 247.467981 
L 131.581061 246.223694 
L 131.797642 246.022533 
L 132.014223 246.887872 
L 132.447384 251.392279 
L 133.530288 266.413327 
L 133.746869 267.64599 
L 133.96345 267.813818 
L 134.18003 266.893448 
L 134.613192 262.213937 
L 135.696096 246.376989 
L 135.912676 244.916634 
L 136.129257 244.499727 
L 136.345838 245.149695 
L 136.778999 249.224702 
L 137.861903 263.182528 
L 138.078484 264.204728 
L 138.295065 264.162944 
L 138.511645 263.033862 
L 138.944807 257.939835 
L 140.027711 241.085936 
L 140.244291 239.425907 
L 140.460872 238.810682 
L 140.677453 239.263735 
L 140.894034 240.703083 
L 141.327195 245.743176 
L 141.976937 254.187553 
L 142.193518 255.961502 
L 142.410099 256.799735 
L 142.62668 256.57581 
L 142.84326 255.266459 
L 143.276422 249.817689 
L 144.359326 232.112744 
L 144.575906 230.288984 
L 144.792487 229.51228 
L 145.009068 229.80615 
L 145.225649 231.088648 
L 145.65881 235.822195 
L 146.308552 243.825204 
L 146.525133 245.457095 
L 146.741714 246.155863 
L 146.958295 245.795099 
L 147.174875 244.351569 
L 147.608037 238.642551 
L 148.690941 220.335775 
L 148.907521 218.400249 
L 149.124102 217.514715 
L 149.340683 217.702714 
L 149.557264 218.882328 
L 149.990425 223.419166 
L 150.640167 231.150119 
L 150.856748 232.697551 
L 151.073329 233.315007 
L 151.28991 232.8761 
L 151.50649 231.357615 
L 151.939652 225.508322 
L 153.022556 206.907838 
L 153.239136 204.923457 
L 153.455717 203.992392 
L 153.672298 204.138196 
L 153.888879 205.278962 
L 154.32204 209.748184 
L 154.971782 217.403025 
L 155.188363 218.931863 
L 155.404944 219.534121 
L 155.621525 219.083416 
L 155.838105 217.556536 
L 156.271267 211.700672 
L 157.354171 193.143355 
L 157.570751 191.177808 
L 157.787332 190.268969 
L 158.003913 190.440386 
L 158.220494 191.610144 
L 158.653655 196.147459 
L 159.303397 203.929582 
L 159.519978 205.507511 
L 159.736559 206.162173 
L 159.95314 205.767171 
L 160.16972 204.299279 
L 160.602882 198.571189 
L 161.685786 180.389688 
L 161.902366 178.508823 
L 162.118947 177.687792 
L 162.335528 177.95012 
L 162.552109 179.213872 
L 162.98527 183.948326 
L 163.635012 192.048667 
L 163.851593 193.738567 
L 164.068174 194.508104 
L 164.284755 194.230852 
L 164.501335 192.883557 
L 164.934497 187.405079 
L 166.017401 169.895256 
L 166.233981 168.15663 
L 166.450562 167.480393 
L 166.667143 167.890033 
L 166.883724 169.303579 
L 167.316885 174.34492 
L 167.966627 182.923264 
L 168.399789 185.712693 
L 168.61637 185.603713 
L 168.83295 184.426818 
L 169.266112 179.295359 
L 170.349016 162.687326 
L 170.565596 161.134574 
L 170.782177 160.645943 
L 170.998758 161.244877 
L 171.431919 165.279928 
L 172.514823 179.500191 
L 172.731404 180.636898 
L 172.947985 180.73024 
L 173.164565 179.756869 
L 173.597727 175.035864 
L 174.680631 159.471462 
L 174.897211 158.130023 
L 175.113792 157.853447 
L 175.330373 158.665125 
L 175.763534 163.127521 
L 176.846438 178.424511 
L 177.063019 179.777573 
L 177.2796 180.087481 
L 177.49618 179.330836 
L 177.929342 175.043543 
L 179.012246 160.562453 
L 179.228826 159.437083 
L 179.445407 159.376253 
L 179.661988 160.403301 
L 180.09515 165.295098 
L 181.178053 181.65531 
L 181.394634 183.218834 
L 181.611215 183.738355 
L 181.827796 183.190422 
L 182.044376 181.657042 
L 182.477538 176.431518 
L 183.12728 167.715925 
L 183.560442 164.927811 
L 183.777022 165.065299 
L 183.993603 166.289261 
L 184.426765 171.570482 
L 185.509668 188.876335 
L 185.726249 190.623827 
L 185.94283 191.325489 
L 186.159411 190.957824 
L 186.375991 189.602796 
L 186.809153 184.728052 
L 187.458895 176.523169 
L 187.675476 174.826698 
L 187.892057 174.064734 
L 188.108637 174.3637 
L 188.325218 175.746846 
L 188.75838 181.339396 
L 189.841283 199.380742 
L 190.057864 201.2677 
L 190.274445 202.106201 
L 190.491026 201.872715 
L 190.707606 200.649173 
L 191.140768 196.029193 
L 191.79051 188.185469 
L 192.007091 186.603668 
L 192.223672 185.953468 
L 192.440252 186.361265 
L 192.656833 187.850282 
L 193.089995 193.645589 
L 194.172898 212.140287 
L 194.389479 214.108555 
L 194.60606 215.025199 
L 194.822641 214.866669 
L 195.039221 213.714876 
L 195.472383 209.228707 
L 196.122125 201.561236 
L 196.338706 200.031604 
L 196.555287 199.430261 
L 196.771867 199.883589 
L 196.988448 201.4148 
L 197.42161 207.284445 
L 198.504513 225.905975 
L 198.721094 227.889442 
L 198.937675 228.817883 
L 199.154256 228.667748 
L 199.370836 227.520944 
L 199.803998 223.034533 
L 200.45374 215.341158 
L 200.670321 213.796088 
L 200.886902 213.175909 
L 201.103482 213.607011 
L 201.320063 215.11261 
L 201.753225 220.920899 
L 202.836128 239.330326 
L 203.052709 241.261389 
L 203.26929 242.134128 
L 203.485871 241.925004 
L 203.702451 240.715942 
L 204.135613 236.095261 
L 204.785355 228.17636 
L 205.001936 226.549754 
L 205.218517 225.844894 
L 205.435097 226.188189 
L 205.651678 227.602876 
L 206.08484 233.220119 
L 207.167743 251.099271 
L 207.384324 252.915459 
L 207.600905 253.670448 
L 207.817486 253.340727 
L 208.034066 252.008251 
L 208.467228 247.132416 
L 209.11697 238.810442 
L 209.333551 237.044187 
L 209.550132 236.197087 
L 209.766712 236.395588 
L 209.983293 237.662963 
L 210.416455 242.978172 
L 211.499358 260.060783 
L 211.715939 261.71087 
L 211.93252 262.297586 
L 212.149101 261.797466 
L 212.365681 260.292502 
L 212.798843 255.065605 
L 213.448585 246.202467 
L 213.881747 243.219143 
L 214.098327 243.230037 
L 214.314908 244.30812 
L 214.74807 249.239872 
L 215.830973 265.337647 
L 216.047554 266.786664 
L 216.264135 267.17106 
L 216.480716 266.467415 
L 216.913877 262.221616 
L 217.996781 247.467981 
L 218.213362 246.223694 
L 218.429942 246.022533 
L 218.646523 246.887872 
L 219.079685 251.392279 
L 220.162588 266.413327 
L 220.379169 267.64599 
L 220.59575 267.813818 
L 220.812331 266.893448 
L 221.245492 262.213937 
L 222.328396 246.376989 
L 222.544977 244.916634 
L 222.761557 244.499727 
L 222.978138 245.149695 
L 223.4113 249.224702 
L 224.494203 263.182528 
L 224.710784 264.204728 
L 224.927365 264.162944 
L 225.143946 263.033862 
L 225.577107 257.939835 
L 226.660011 241.085936 
L 226.876592 239.425907 
L 227.093172 238.810682 
L 227.309753 239.263735 
L 227.526334 240.703083 
L 227.959495 245.743176 
L 228.609238 254.187553 
L 228.825818 255.961502 
L 229.042399 256.799735 
L 229.25898 256.57581 
L 229.475561 255.266459 
L 229.908722 249.817689 
L 230.991626 232.112744 
L 231.208207 230.288984 
L 231.424787 229.51228 
L 231.641368 229.80615 
L 231.857949 231.088648 
L 232.29111 235.822195 
L 232.940853 243.825204 
L 233.157433 245.457095 
L 233.374014 246.155863 
L 233.590595 245.795099 
L 233.807176 244.351569 
L 234.240337 238.642551 
L 235.323241 220.335775 
L 235.539822 218.400249 
L 235.756402 217.514715 
L 235.972983 217.702714 
L 236.189564 218.882328 
L 236.622725 223.419166 
L 237.272468 231.150119 
L 237.489048 232.697551 
L 237.705629 233.315007 
L 237.92221 232.8761 
L 238.138791 231.357615 
L 238.571952 225.508322 
L 239.654856 206.907838 
L 239.871437 204.923457 
L 240.088017 203.992392 
L 240.304598 204.138196 
L 240.521179 205.278962 
L 240.95434 209.748184 
L 241.604083 217.403025 
L 241.820663 218.931863 
L 242.037244 219.534121 
L 242.253825 219.083416 
L 242.470406 217.556536 
L 242.903567 211.700672 
L 243.986471 193.143355 
L 244.203052 191.177808 
L 244.419632 190.268969 
L 244.636213 190.440386 
L 244.852794 191.610144 
L 245.285955 196.147459 
L 245.935698 203.929582 
L 246.152278 205.507511 
L 246.368859 206.162173 
L 246.58544 205.767171 
L 246.802021 204.299279 
L 247.235182 198.571189 
L 248.318086 180.389688 
L 248.534667 178.508823 
L 248.751248 177.687792 
L 248.967828 177.95012 
L 249.184409 179.213872 
L 249.617571 183.948326 
L 250.267313 192.048667 
L 250.483894 193.738567 
L 250.700474 194.508104 
L 250.917055 194.230852 
L 251.133636 192.883557 
L 251.566797 187.405079 
L 252.649701 169.895256 
L 252.866282 168.15663 
L 253.082863 167.480393 
L 253.299443 167.890033 
L 253.516024 169.303579 
L 253.949186 174.34492 
L 254.598928 182.923264 
L 255.032089 185.712693 
L 255.24867 185.603713 
L 255.465251 184.426818 
L 255.898412 179.295359 
L 256.981316 162.687326 
L 257.197897 161.134574 
L 257.414478 160.645943 
L 257.631058 161.244877 
L 258.06422 165.279928 
L 259.147124 179.500191 
L 259.363704 180.636898 
L 259.580285 180.73024 
L 259.796866 179.756869 
L 260.230027 175.035864 
L 261.312931 159.471462 
L 261.529512 158.130023 
L 261.746093 157.853447 
L 261.962673 158.665125 
L 262.395835 163.127521 
L 263.478739 178.424511 
L 263.695319 179.777573 
L 263.9119 180.087481 
L 264.128481 179.330836 
L 264.561642 175.043543 
L 265.644546 160.562453 
L 265.861127 159.437083 
L 266.077708 159.376253 
L 266.294288 160.403301 
L 266.72745 165.295098 
L 267.810354 181.65531 
L 268.026934 183.218834 
L 268.243515 183.738355 
L 268.460096 183.190422 
L 268.676677 181.657042 
L 269.109838 176.431518 
L 269.75958 167.715925 
L 270.192742 164.927811 
L 270.409323 165.065299 
L 270.625903 166.289261 
L 271.059065 171.570482 
L 272.141969 188.876335 
L 272.358549 190.623827 
L 272.57513 191.325489 
L 272.791711 190.957824 
L 273.008292 189.602796 
L 273.441453 184.728052 
L 274.091195 176.523169 
L 274.307776 174.826698 
L 274.524357 174.064734 
L 274.740938 174.3637 
L 274.957518 175.746846 
L 275.39068 181.339396 
L 276.473584 199.380742 
L 276.690164 201.2677 
L 276.906745 202.106201 
L 277.123326 201.872715 
L 277.339907 200.649173 
L 277.773068 196.029193 
L 278.42281 188.185469 
L 278.639391 186.603668 
L 278.855972 185.953468 
L 279.072553 186.361265 
L 279.289133 187.850282 
L 279.722295 193.645589 
L 280.805199 212.140287 
L 281.021779 214.108555 
L 281.23836 215.025199 
L 281.454941 214.866669 
L 281.671522 213.714876 
L 282.104683 209.228707 
L 282.754425 201.561236 
L 282.971006 200.031604 
L 283.187587 199.430261 
L 283.404168 199.883589 
L 283.620748 201.4148 
L 284.05391 207.284445 
L 285.136814 225.905975 
L 285.353394 227.889442 
L 285.569975 228.817883 
L 285.786556 228.667748 
L 286.003137 227.520944 
L 286.436298 223.034533 
L 287.08604 215.341158 
L 287.302621 213.796088 
L 287.519202 213.175909 
L 287.735783 213.607011 
L 287.952363 215.11261 
L 288.385525 220.920899 
L 289.468429 239.330326 
L 289.685009 241.261389 
L 289.90159 242.134128 
L 290.118171 241.925004 
L 290.334752 240.715942 
L 290.767913 236.095261 
L 291.417655 228.17636 
L 291.634236 226.549754 
L 291.850817 225.844894 
L 292.067398 226.188189 
L 292.283978 227.602876 
L 292.71714 233.220119 
L 293.800044 251.099271 
L 294.016624 252.915459 
L 294.233205 253.670448 
L 294.449786 253.340727 
L 294.666367 252.008251 
L 295.099528 247.132416 
L 295.74927 238.810442 
L 295.965851 237.044187 
L 296.182432 236.197087 
L 296.399013 236.395588 
L 296.615593 237.662963 
L 297.048755 242.978172 
L 298.131659 260.060783 
L 298.348239 261.71087 
L 298.56482 262.297586 
L 298.781401 261.797466 
L 298.997982 260.292502 
L 299.431143 255.065605 
L 300.080885 246.202467 
L 300.514047 243.219143 
L 300.730628 243.230037 
L 300.947208 244.30812 
L 301.38037 249.239872 
L 302.463274 265.337647 
L 302.679854 266.786664 
L 302.896435 267.17106 
L 303.113016 266.467415 
L 303.546177 262.221616 
L 304.629081 247.467981 
L 304.845662 246.223694 
L 305.062243 246.022533 
L 305.278823 246.887872 
L 305.711985 251.392279 
L 306.794889 266.413327 
L 307.011469 267.64599 
L 307.22805 267.813818 
L 307.444631 266.893448 
L 307.877792 262.213937 
L 308.960696 246.376989 
L 309.177277 244.916634 
L 309.393858 244.499727 
L 309.610438 245.149695 
L 310.0436 249.224702 
L 311.126504 263.182528 
L 311.343084 264.204728 
L 311.559665 264.162944 
L 311.776246 263.033862 
L 312.209407 257.939835 
L 313.292311 241.085936 
L 313.508892 239.425907 
L 313.725473 238.810682 
L 313.942053 239.263735 
L 314.158634 240.703083 
L 314.591796 245.743176 
L 315.241538 254.187553 
L 315.458119 255.961502 
L 315.6747 256.799735 
L 315.89128 256.57581 
L 316.107861 255.266459 
L 316.541023 249.817689 
L 317.623926 232.112744 
L 317.840507 230.288984 
L 318.057088 229.51228 
L 318.273669 229.80615 
L 318.490249 231.088648 
L 318.923411 235.822195 
L 319.573153 243.825204 
L 319.789734 245.457095 
L 320.006315 246.155863 
L 320.222895 245.795099 
L 320.439476 244.351569 
L 320.872638 238.642551 
L 321.955541 220.335775 
L 322.172122 218.400249 
L 322.388703 217.514715 
L 322.605284 217.702714 
L 322.821864 218.882328 
L 323.255026 223.419166 
L 323.904768 231.150119 
L 324.121349 232.697551 
L 324.33793 233.315007 
L 324.55451 232.8761 
L 324.771091 231.357615 
L 325.204253 225.508322 
L 326.287156 206.907838 
L 326.503737 204.923457 
L 326.720318 203.992392 
L 326.936899 204.138196 
L 327.153479 205.278962 
L 327.586641 209.748184 
L 328.236383 217.403025 
L 328.452964 218.931863 
L 328.669545 219.534121 
L 328.886125 219.083416 
L 329.102706 217.556536 
L 329.535868 211.700672 
L 330.618771 193.143355 
L 330.835352 191.177808 
L 331.051933 190.268969 
L 331.268514 190.440386 
L 331.485094 191.610144 
L 331.918256 196.147459 
L 332.567998 203.929582 
L 332.784579 205.507511 
L 333.00116 206.162173 
L 333.21774 205.767171 
L 333.434321 204.299279 
L 333.867483 198.571189 
L 334.950386 180.389688 
L 335.166967 178.508823 
L 335.383548 177.687792 
L 335.600129 177.95012 
L 335.816709 179.213872 
L 336.249871 183.948326 
L 336.899613 192.048667 
L 337.116194 193.738567 
L 337.332775 194.508104 
L 337.549355 194.230852 
L 337.765936 192.883557 
L 338.199098 187.405079 
L 339.282001 169.895256 
L 339.498582 168.15663 
L 339.715163 167.480393 
L 339.931744 167.890033 
L 340.148324 169.303579 
L 340.581486 174.34492 
L 341.231228 182.923264 
L 341.66439 185.712693 
L 341.88097 185.603713 
L 342.097551 184.426818 
L 342.530713 179.295359 
L 343.613616 162.687326 
L 343.830197 161.134574 
L 344.046778 160.645943 
L 344.263359 161.244877 
L 344.69652 165.279928 
L 345.779424 179.500191 
L 345.996005 180.636898 
L 346.212585 180.73024 
L 346.429166 179.756869 
L 346.862328 175.035864 
L 347.945231 159.471462 
L 348.161812 158.130023 
L 348.378393 157.853447 
L 348.594974 158.665125 
L 349.028135 163.127521 
L 350.111039 178.424511 
L 350.32762 179.777573 
L 350.5442 180.087481 
L 350.760781 179.330836 
L 351.193943 175.043543 
L 352.276846 160.562453 
L 352.493427 159.437083 
L 352.710008 159.376253 
L 352.926589 160.403301 
L 353.35975 165.295098 
L 354.442654 181.65531 
L 354.659235 183.218834 
L 354.875815 183.738355 
L 355.092396 183.190422 
L 355.308977 181.657042 
L 355.742138 176.431518 
L 356.391881 167.715925 
L 356.825042 164.927811 
L 357.041623 165.065299 
L 357.258204 166.289261 
L 357.691365 171.570482 
L 358.774269 188.876335 
L 358.99085 190.623827 
L 359.20743 191.325489 
L 359.424011 190.957824 
L 359.640592 189.602796 
L 360.073753 184.728052 
L 360.723496 176.523169 
L 360.940076 174.826698 
L 361.156657 174.064734 
L 361.373238 174.3637 
L 361.589819 175.746846 
L 362.02298 181.339396 
L 363.105884 199.380742 
L 363.322465 201.2677 
L 363.539045 202.106201 
L 363.755626 201.872715 
L 363.972207 200.649173 
L 364.405368 196.029193 
L 365.055111 188.185469 
L 365.271691 186.603668 
L 365.488272 185.953468 
L 365.704853 186.361265 
L 365.921434 187.850282 
L 366.354595 193.645589 
L 367.437499 212.140287 
L 367.65408 214.108555 
L 367.87066 215.025199 
L 368.087241 214.866669 
L 368.303822 213.714876 
L 368.736983 209.228707 
L 369.386726 201.561236 
L 369.603306 200.031604 
L 369.819887 199.430261 
L 370.036468 199.883589 
L 370.253049 201.4148 
L 370.68621 207.284445 
L 371.769114 225.905975 
L 371.985695 227.889442 
L 372.202275 228.817883 
L 372.418856 228.667748 
L 372.635437 227.520944 
L 373.068598 223.034533 
L 373.718341 215.341158 
L 373.934921 213.796088 
L 374.151502 213.175909 
L 374.368083 213.607011 
L 374.584664 215.11261 
L 375.017825 220.920899 
L 376.100729 239.330326 
L 376.31731 241.261389 
L 376.53389 242.134128 
L 376.750471 241.925004 
L 376.967052 240.715942 
L 377.400213 236.095261 
L 378.049956 228.17636 
L 378.266536 226.549754 
L 378.483117 225.844894 
L 378.699698 226.188189 
L 378.916279 227.602876 
L 379.34944 233.220119 
L 380.432344 251.099271 
L 380.648925 252.915459 
L 380.865505 253.670448 
L 381.082086 253.340727 
L 381.298667 252.008251 
L 381.731828 247.132416 
L 382.381571 238.810442 
L 382.598152 237.044187 
L 382.814732 236.197087 
L 383.031313 236.395588 
L 383.247894 237.662963 
L 383.681055 242.978172 
L 384.763959 260.060783 
L 384.98054 261.71087 
L 385.197121 262.297586 
L 385.413701 261.797466 
L 385.630282 260.292502 
L 386.063444 255.065605 
L 386.713186 246.202467 
L 387.146347 243.219143 
L 387.362928 243.230037 
L 387.579509 244.30812 
L 388.01267 249.239872 
L 389.095574 265.337647 
L 389.312155 266.786664 
L 389.528736 267.17106 
L 389.528736 267.17106 
" clip-path="url(#pd9658e2abf)" style="fill: none; stroke: #1f77b4; stroke-opacity: 0.5; stroke-width: 1.5; stroke-linecap: square"/>
   </g>
   <g id="line2d_32">
    <path d="M 64.87419 212.94432 
L 69.855547 197.041263 
L 72.454516 189.436779 
L 74.620324 183.725242 
L 76.569551 179.196349 
L 78.302197 175.733442 
L 79.818262 173.183145 
L 81.117746 171.378396 
L 82.417231 169.942588 
L 83.500135 169.037208 
L 84.583038 168.40253 
L 85.665942 168.042466 
L 86.748846 167.959238 
L 87.83175 168.153358 
L 88.914653 168.623628 
L 89.997557 169.367151 
L 91.080461 170.379341 
L 92.379945 171.93971 
L 93.67943 173.864039 
L 95.195495 176.546134 
L 96.71156 179.667849 
L 98.444206 183.725242 
L 100.393433 188.837134 
L 102.775821 195.72715 
L 106.024533 205.906235 
L 114.254601 232.1004 
L 116.63699 238.81417 
L 118.802797 244.253877 
L 120.535443 248.056378 
L 122.051508 250.931167 
L 123.567574 253.347149 
L 124.867058 255.030539 
L 126.166543 256.340368 
L 127.249446 257.138045 
L 128.33235 257.663252 
L 129.415254 257.912752 
L 130.498158 257.885007 
L 131.581061 257.580188 
L 132.663965 257.000174 
L 133.746869 256.14854 
L 134.829773 255.030539 
L 136.129257 253.347149 
L 137.428742 251.30514 
L 138.944807 248.493894 
L 140.677453 244.757501 
L 142.62668 239.957606 
L 144.792487 233.996778 
L 147.391456 226.17338 
L 151.50649 212.94432 
L 156.487848 197.041263 
L 159.086817 189.436779 
L 161.252624 183.725242 
L 163.201851 179.196349 
L 164.934497 175.733442 
L 166.450562 173.183145 
L 167.750047 171.378396 
L 169.049531 169.942588 
L 170.132435 169.037208 
L 171.215339 168.40253 
L 172.298242 168.042466 
L 173.381146 167.959238 
L 174.46405 168.153358 
L 175.546954 168.623628 
L 176.629857 169.367151 
L 177.712761 170.379341 
L 179.012246 171.93971 
L 180.31173 173.864039 
L 181.827796 176.546134 
L 183.343861 179.667849 
L 185.076507 183.725242 
L 187.025734 188.837134 
L 189.408122 195.72715 
L 192.656833 205.906235 
L 200.886902 232.1004 
L 203.26929 238.81417 
L 205.435097 244.253877 
L 207.167743 248.056378 
L 208.683809 250.931167 
L 210.199874 253.347149 
L 211.499358 255.030539 
L 212.798843 256.340368 
L 213.881747 257.138045 
L 214.96465 257.663252 
L 216.047554 257.912752 
L 217.130458 257.885007 
L 218.213362 257.580188 
L 219.296265 257.000174 
L 220.379169 256.14854 
L 221.462073 255.030539 
L 222.761557 253.347149 
L 224.061042 251.30514 
L 225.577107 248.493894 
L 227.309753 244.757501 
L 229.25898 239.957606 
L 231.424787 233.996778 
L 234.023756 226.17338 
L 238.138791 212.94432 
L 243.120148 197.041263 
L 245.719117 189.436779 
L 247.884925 183.725242 
L 249.834151 179.196349 
L 251.566797 175.733442 
L 253.082863 173.183145 
L 254.382347 171.378396 
L 255.681832 169.942588 
L 256.764735 169.037208 
L 257.847639 168.40253 
L 258.930543 168.042466 
L 260.013447 167.959238 
L 261.09635 168.153358 
L 262.179254 168.623628 
L 263.262158 169.367151 
L 264.345062 170.379341 
L 265.644546 171.93971 
L 266.944031 173.864039 
L 268.460096 176.546134 
L 269.976161 179.667849 
L 271.708807 183.725242 
L 273.658034 188.837134 
L 276.040422 195.72715 
L 279.289133 205.906235 
L 287.519202 232.1004 
L 289.90159 238.81417 
L 292.067398 244.253877 
L 293.800044 248.056378 
L 295.316109 250.931167 
L 296.832174 253.347149 
L 298.131659 255.030539 
L 299.431143 256.340368 
L 300.514047 257.138045 
L 301.596951 257.663252 
L 302.679854 257.912752 
L 303.762758 257.885007 
L 304.845662 257.580188 
L 305.928566 257.000174 
L 307.011469 256.14854 
L 308.094373 255.030539 
L 309.393858 253.347149 
L 310.693342 251.30514 
L 312.209407 248.493894 
L 313.942053 244.757501 
L 315.89128 239.957606 
L 318.057088 233.996778 
L 320.656057 226.17338 
L 324.771091 212.94432 
L 329.752448 197.041263 
L 332.351417 189.436779 
L 334.517225 183.725242 
L 336.466452 179.196349 
L 338.199098 175.733442 
L 339.715163 173.183145 
L 341.014647 171.378396 
L 342.314132 169.942588 
L 343.397036 169.037208 
L 344.479939 168.40253 
L 345.562843 168.042466 
L 346.645747 167.959238 
L 347.728651 168.153358 
L 348.811554 168.623628 
L 349.894458 169.367151 
L 350.977362 170.379341 
L 352.276846 171.93971 
L 353.576331 173.864039 
L 355.092396 176.546134 
L 356.608461 179.667849 
L 358.341107 183.725242 
L 360.290334 188.837134 
L 362.672722 195.72715 
L 365.921434 205.906235 
L 374.151502 232.1004 
L 376.53389 238.81417 
L 378.699698 244.253877 
L 380.432344 248.056378 
L 381.948409 250.931167 
L 383.464475 253.347149 
L 384.763959 255.030539 
L 386.063444 256.340368 
L 387.146347 257.138045 
L 388.229251 257.663252 
L 389.312155 257.912752 
L 389.528736 257.929402 
L 389.528736 257.929402 
" clip-path="url(#pd9658e2abf)" style="fill: none; stroke: #ff7f0e; stroke-width: 1.5; stroke-linecap: square"/>
   </g>
   <g id="patch_9">
    <path d="M 48.641463 273.312 
L 48.641463 152.352 
" style="fill: none; stroke: #000000; stroke-width: 0.8; stroke-linejoin: miter; stroke-linecap: square"/>
   </g>
   <g id="patch_10">
    <path d="M 405.761463 273.312 
L 405.761463 152.352 
" style="fill: none; stroke: #000000; stroke-width: 0.8; stroke-linejoin: miter; stroke-linecap: square"/>
   </g>
   <g id="patch_11">
    <path d="M 48.641463 273.312 
L 405.761463 273.312 
" style="fill: none; stroke: #000000; stroke-width: 0.8; stroke-linejoin: miter; stroke-linecap: square"/>
   </g>
   <g id="patch_12">
    <path d="M 48.641463 152.352 
L 405.761463 152.352 
" style="fill: none; stroke: #000000; stroke-width: 0.8; stroke-linejoin: miter; stroke-linecap: square"/>
   </g>
   <g id="legend_2">
    <g id="patch_13">
     <path d="M 55.641463 268.312 
L 192.671353 268.312 
Q 194.671353 268.312 194.671353 266.312 
L 194.671353 237.38672 
Q 194.671353 235.38672 192.671353 235.38672 
L 55.641463 235.38672 
Q 53.641463 235.38672 53.641463 237.38672 
L 53.641463 266.312 
Q 53.641463 268.312 55.641463 268.312 
z
" style="fill: #ffffff; opacity: 0.8; stroke: #cccccc; stroke-linejoin: miter"/>
    </g>
    <g id="line2d_33">
     <path d="M 57.641463 243.3587 
L 67.641463 243.3587 
L 77.641463 243.3587 
" style="fill: none; stroke: #1f77b4; stroke-opacity: 0.5; stroke-width: 1.5; stroke-linecap: square"/>
    </g>
    <g id="text_24">
     <!-- $y$ (filtered output) -->
     <g transform="translate(85.641463 246.8587) scale(0.1 -0.1)">
      <defs>
       <path id="CMSS17-c" d="M 2752 4416 
L 2240 4416 
L 2240 3906 
L 2752 3906 
L 2752 4416 
z
M 2733 2737 
L 2259 2737 
L 2259 0 
L 2733 0 
L 2733 2737 
z
M 1075 2368 
L 1773 2368 
L 1773 2737 
L 1062 2737 
L 1062 3578 
C 1062 3919 1216 4092 1421 4092 
C 1542 4092 1664 4056 1773 3992 
L 1773 4410 
C 1722 4428 1574 4480 1421 4480 
C 941 4480 602 3993 602 3372 
L 602 2737 
L 160 2737 
L 160 2368 
L 602 2368 
L 602 0 
L 1075 0 
L 1075 2368 
z
" transform="scale(0.015625)"/>
      </defs>
      <use xlink:href="#CMMI12-79" transform="scale(0.996264)"/>
      <use xlink:href="#CMSS17-28" transform="translate(82.367893 0) scale(0.996264)"/>
      <use xlink:href="#CMSS17-c" transform="translate(118.801808 0) scale(0.996264)"/>
      <use xlink:href="#CMSS17-6c" transform="translate(168.928545 0) scale(0.996264)"/>
      <use xlink:href="#CMSS17-74" transform="translate(191.109268 0) scale(0.996264)"/>
      <use xlink:href="#CMSS17-65" transform="translate(224.940835 0) scale(0.996264)"/>
      <use xlink:href="#CMSS17-72" transform="translate(266.579657 0) scale(0.996264)"/>
      <use xlink:href="#CMSS17-65" transform="translate(298.489429 0) scale(0.996264)"/>
      <use xlink:href="#CMSS17-64" transform="translate(340.128251 0) scale(0.996264)"/>
      <use xlink:href="#CMSS17-6f" transform="translate(419.562307 0) scale(0.996264)"/>
      <use xlink:href="#CMSS17-75" transform="translate(466.405931 0) scale(0.996264)"/>
      <use xlink:href="#CMSS17-74" transform="translate(514.610874 0) scale(0.996264)"/>
      <use xlink:href="#CMSS17-70" transform="translate(548.442441 0) scale(0.996264)"/>
      <use xlink:href="#CMSS17-75" transform="translate(596.647384 0) scale(0.996264)"/>
      <use xlink:href="#CMSS17-74" transform="translate(644.852327 0) scale(0.996264)"/>
      <use xlink:href="#CMSS17-29" transform="translate(678.683894 0) scale(0.996264)"/>
     </g>
    </g>
    <g id="line2d_34">
     <path d="M 57.641463 258.32134 
L 67.641463 258.32134 
L 77.641463 258.32134 
" style="fill: none; stroke: #ff7f0e; stroke-width: 1.5; stroke-linecap: square"/>
    </g>
    <g id="text_25">
     <!-- $x_1$ (low-frequency signal) -->
     <g transform="translate(85.641463 261.82134) scale(0.1 -0.1)">
      <use xlink:href="#CMMI12-78" transform="scale(0.996264)"/>
      <use xlink:href="#CMR17-31" transform="translate(55.43406 -14.943915) scale(0.697382)"/>
      <use xlink:href="#CMSS17-28" transform="translate(119.144486 0) scale(0.996264)"/>
      <use xlink:href="#CMSS17-6c" transform="translate(155.5784 0) scale(0.996264)"/>
      <use xlink:href="#CMSS17-6f" transform="translate(177.759124 0) scale(0.996264)"/>
      <use xlink:href="#CMSS17-77" transform="translate(222.000293 0) scale(0.996264)"/>
      <use xlink:href="#CMSS17-2d" transform="translate(285.819838 0) scale(0.996264)"/>
      <use xlink:href="#CMSS17-66" transform="translate(317.048951 0) scale(0.996264)"/>
      <use xlink:href="#CMSS17-72" transform="translate(345.67561 0) scale(0.996264)"/>
      <use xlink:href="#CMSS17-65" transform="translate(377.585382 0) scale(0.996264)"/>
      <use xlink:href="#CMSS17-71" transform="translate(419.224204 0) scale(0.996264)"/>
      <use xlink:href="#CMSS17-75" transform="translate(467.429148 0) scale(0.996264)"/>
      <use xlink:href="#CMSS17-65" transform="translate(515.634091 0) scale(0.996264)"/>
      <use xlink:href="#CMSS17-6e" transform="translate(557.272913 0) scale(0.996264)"/>
      <use xlink:href="#CMSS17-63" transform="translate(605.477856 0) scale(0.996264)"/>
      <use xlink:href="#CMSS17-79" transform="translate(647.116678 0) scale(0.996264)"/>
      <use xlink:href="#CMSS17-73" transform="translate(721.345932 0) scale(0.996264)"/>
      <use xlink:href="#CMSS17-69" transform="translate(757.259474 0) scale(0.996264)"/>
      <use xlink:href="#CMSS17-67" transform="translate(779.440197 0) scale(0.996264)"/>
      <use xlink:href="#CMSS17-6e" transform="translate(826.283821 0) scale(0.996264)"/>
      <use xlink:href="#CMSS17-61" transform="translate(874.488764 0) scale(0.996264)"/>
      <use xlink:href="#CMSS17-6c" transform="translate(919.410685 0) scale(0.996264)"/>
      <use xlink:href="#CMSS17-29" transform="translate(941.591408 0) scale(0.996264)"/>
     </g>
    </g>
   </g>
  </g>
 </g>
 <defs>
  <clipPath id="pb2d65ca1e9">
   <rect x="48.641463" y="7.2" width="357.12" height="120.96"/>
  </clipPath>
  <clipPath id="pd9658e2abf">
   <rect x="48.641463" y="152.352" width="357.12" height="120.96"/>
  </clipPath>
 </defs>
</svg>
