<?xml version="1.0" encoding="utf-8" standalone="no"?>
<!DOCTYPE svg PUBLIC "-//W3C//DTD SVG 1.1//EN"
  "http://www.w3.org/Graphics/SVG/1.1/DTD/svg11.dtd">
<!-- Created with matplotlib (https://matplotlib.org/) -->
<svg height="259.436424pt" version="1.1" viewBox="0 0 382.884829 259.436424" width="382.884829pt" xmlns="http://www.w3.org/2000/svg" xmlns:xlink="http://www.w3.org/1999/xlink">
 <metadata>
  <rdf:RDF xmlns:cc="http://creativecommons.org/ns#" xmlns:dc="http://purl.org/dc/elements/1.1/" xmlns:rdf="http://www.w3.org/1999/02/22-rdf-syntax-ns#">
   <cc:Work>
    <dc:type rdf:resource="http://purl.org/dc/dcmitype/StillImage"/>
    <dc:date>2021-07-17T15:43:44.782476</dc:date>
    <dc:format>image/svg+xml</dc:format>
    <dc:creator>
     <cc:Agent>
      <dc:title>Matplotlib v3.3.4, https://matplotlib.org/</dc:title>
     </cc:Agent>
    </dc:creator>
   </cc:Work>
  </rdf:RDF>
 </metadata>
 <defs>
  <style type="text/css">*{stroke-linecap:butt;stroke-linejoin:round;}</style>
 </defs>
 <g id="figure_1">
  <g id="patch_1">
   <path d="M 0 259.436424 
L 382.884829 259.436424 
L 382.884829 0 
L 0 0 
z
" style="fill:none;"/>
  </g>
  <g id="axes_1">
   <g id="patch_2">
    <path d="M 40.884829 106.036364 
L 375.684829 106.036364 
L 375.684829 7.2 
L 40.884829 7.2 
z
" style="fill:#ffffff;"/>
   </g>
   <g id="matplotlib.axis_1">
    <g id="xtick_1">
     <g id="line2d_1">
      <defs>
       <path d="M 0 0 
L 0 3.5 
" id="m371d4e9cd2" style="stroke:#000000;stroke-width:0.8;"/>
      </defs>
      <g>
       <use style="stroke:#000000;stroke-width:0.8;" x="56.103011" xlink:href="#m371d4e9cd2" y="106.036364"/>
      </g>
     </g>
    </g>
    <g id="xtick_2">
     <g id="line2d_2">
      <g>
       <use style="stroke:#000000;stroke-width:0.8;" x="96.711902" xlink:href="#m371d4e9cd2" y="106.036364"/>
      </g>
     </g>
    </g>
    <g id="xtick_3">
     <g id="line2d_3">
      <g>
       <use style="stroke:#000000;stroke-width:0.8;" x="137.320793" xlink:href="#m371d4e9cd2" y="106.036364"/>
      </g>
     </g>
    </g>
    <g id="xtick_4">
     <g id="line2d_4">
      <g>
       <use style="stroke:#000000;stroke-width:0.8;" x="177.929683" xlink:href="#m371d4e9cd2" y="106.036364"/>
      </g>
     </g>
    </g>
    <g id="xtick_5">
     <g id="line2d_5">
      <g>
       <use style="stroke:#000000;stroke-width:0.8;" x="218.538574" xlink:href="#m371d4e9cd2" y="106.036364"/>
      </g>
     </g>
    </g>
    <g id="xtick_6">
     <g id="line2d_6">
      <g>
       <use style="stroke:#000000;stroke-width:0.8;" x="259.147465" xlink:href="#m371d4e9cd2" y="106.036364"/>
      </g>
     </g>
    </g>
    <g id="xtick_7">
     <g id="line2d_7">
      <g>
       <use style="stroke:#000000;stroke-width:0.8;" x="299.756356" xlink:href="#m371d4e9cd2" y="106.036364"/>
      </g>
     </g>
    </g>
    <g id="xtick_8">
     <g id="line2d_8">
      <g>
       <use style="stroke:#000000;stroke-width:0.8;" x="340.365247" xlink:href="#m371d4e9cd2" y="106.036364"/>
      </g>
     </g>
    </g>
   </g>
   <g id="matplotlib.axis_2">
    <g id="ytick_1">
     <g id="line2d_9">
      <defs>
       <path d="M 0 0 
L -3.5 0 
" id="mf09b502c90" style="stroke:#000000;stroke-width:0.8;"/>
      </defs>
      <g>
       <use style="stroke:#000000;stroke-width:0.8;" x="40.884829" xlink:href="#mf09b502c90" y="101.613154"/>
      </g>
     </g>
     <g id="text_1">
      <!-- $\mathdefault{−2}$ -->
      <g transform="translate(21.16264 104.807375)scale(0.1 -0.1)">
       <defs>
        <path d="M 65.90625 23 
C 67.59375 23 69.40625 23 69.40625 25 
C 69.40625 27 67.59375 27 65.90625 27 
L 11.796875 27 
C 10.09375 27 8.296875 27 8.296875 25 
C 8.296875 23 10.09375 23 11.796875 23 
z
" id="CMSY10-0"/>
        <path d="M 47.5 13.734375 
L 46.203125 14.25 
C 42.5 8.5 41.203125 7.59375 36.703125 7.59375 
L 12.796875 7.59375 
L 29.59375 25.328125 
C 38.5 34.703125 42.40625 42.359375 42.40625 50.21875 
C 42.40625 60.28125 34.296875 68 23.90625 68 
C 18.40625 68 13.203125 65.796875 9.5 61.796875 
C 6.296875 58.375 4.796875 55.15625 3.09375 48 
L 5.203125 47.484375 
C 9.203125 57.359375 12.796875 60.59375 19.703125 60.59375 
C 28.09375 60.59375 33.796875 54.84375 33.796875 46.390625 
C 33.796875 38.53125 29.203125 29.15625 20.796875 20.1875 
L 3 1.1875 
L 3 0 
L 42 0 
z
" id="Nimbus_Roman_No9_L_Regular-50"/>
       </defs>
       <use transform="scale(0.996264)" xlink:href="#CMSY10-0"/>
       <use transform="translate(77.408707 0)scale(0.996264)" xlink:href="#Nimbus_Roman_No9_L_Regular-50"/>
      </g>
     </g>
    </g>
    <g id="ytick_2">
     <g id="line2d_10">
      <g>
       <use style="stroke:#000000;stroke-width:0.8;" x="40.884829" xlink:href="#mf09b502c90" y="56.618182"/>
      </g>
     </g>
     <g id="text_2">
      <!-- $\mathdefault{0}$ -->
      <g transform="translate(28.903509 59.812403)scale(0.1 -0.1)">
       <defs>
        <path d="M 25.40625 68 
C 19.90625 68 15.703125 66.296875 12 62.796875 
C 6.203125 57.203125 2.40625 45.6875 2.40625 34 
C 2.40625 23.09375 5.703125 11.390625 10.40625 5.796875 
C 14.09375 1.390625 19.203125 -1 25 -1 
C 30.09375 -1 34.40625 0.6875 38 4.1875 
C 43.796875 9.6875 47.59375 21.296875 47.59375 33.390625 
C 47.59375 53.890625 38.5 68 25.40625 68 
z
M 25.09375 65.390625 
C 33.5 65.390625 38 54.09375 38 33.1875 
C 38 12.296875 33.59375 1.59375 25 1.59375 
C 16.40625 1.59375 12 12.296875 12 33.09375 
C 12 54.296875 16.5 65.390625 25.09375 65.390625 
z
" id="Nimbus_Roman_No9_L_Regular-48"/>
       </defs>
       <use transform="scale(0.996264)" xlink:href="#Nimbus_Roman_No9_L_Regular-48"/>
      </g>
     </g>
    </g>
    <g id="ytick_3">
     <g id="line2d_11">
      <g>
       <use style="stroke:#000000;stroke-width:0.8;" x="40.884829" xlink:href="#mf09b502c90" y="11.62321"/>
      </g>
     </g>
     <g id="text_3">
      <!-- $\mathdefault{2}$ -->
      <g transform="translate(28.903509 14.817431)scale(0.1 -0.1)">
       <use transform="scale(0.996264)" xlink:href="#Nimbus_Roman_No9_L_Regular-50"/>
      </g>
     </g>
    </g>
    <g id="text_4">
     <!-- $x(t)$ -->
     <g transform="translate(14.67198 64.313537)rotate(-90)scale(0.1 -0.1)">
      <defs>
       <path d="M 40.203125 11.15625 
C 39.40625 10.265625 38.90625 9.65625 38 8.46875 
C 35.703125 5.484375 34.5 4.5 33.40625 4.5 
C 31.90625 4.5 31 5.78125 30.296875 8.5625 
C 30.09375 9.359375 30 9.96875 29.90625 10.265625 
C 27.40625 20.296875 26.296875 24.875 26.296875 26.359375 
C 30.703125 34.015625 34.296875 38.390625 36.09375 38.390625 
C 36.703125 38.390625 37.5 38.09375 38.5 37.59375 
C 39.703125 36.90625 40.40625 36.703125 41.203125 36.703125 
C 43.296875 36.703125 44.703125 38.1875 44.703125 40.296875 
C 44.703125 42.390625 43 44 40.59375 44 
C 36.203125 44 32.40625 40.390625 25.5 29.75 
L 24.40625 35.21875 
C 23 41.984375 21.90625 44 19.203125 44 
C 17 44 13.59375 43.09375 7.5 41.09375 
L 6.40625 40.6875 
L 6.796875 39.1875 
C 10.59375 40.09375 11.5 40.296875 12.40625 40.296875 
C 14.90625 40.296875 15.5 39.390625 16.90625 33.421875 
L 19.796875 21.203125 
L 11.59375 9.5625 
C 9.59375 6.578125 7.59375 4.796875 6.5 4.796875 
C 5.90625 4.796875 4.90625 5.09375 3.90625 5.6875 
C 2.59375 6.390625 1.5 6.6875 0.703125 6.6875 
C -1.203125 6.6875 -2.703125 5.1875 -2.703125 3.1875 
C -2.703125 0.59375 -0.703125 -1 2.296875 -1 
C 5.40625 -1 6.59375 -0.109375 11.59375 5.984375 
C 14.296875 9.171875 16.40625 11.84375 20.59375 17.609375 
L 23.59375 5.6875 
C 24.90625 0.59375 26.203125 -1 29.40625 -1 
C 33.203125 -1 35.796875 1.390625 41.59375 10.359375 
z
" id="Nimbus_Roman_No9_L_Regular_Italic-120"/>
       <path d="M 33.09375 -24 
C 33.09375 -23.703125 33.09375 -23.5 31.40625 -21.8125 
C 18.90625 -9.203125 15.703125 9.6875 15.703125 25 
C 15.703125 42.390625 19.5 59.796875 31.796875 72.296875 
C 33.09375 73.5 33.09375 73.6875 33.09375 74 
C 33.09375 74.6875 32.703125 75 32.09375 75 
C 31.09375 75 22.09375 68.203125 16.203125 55.5 
C 11.09375 44.5 9.90625 33.390625 9.90625 25 
C 9.90625 17.1875 11 5.09375 16.5 -6.203125 
C 22.5 -18.5 31.09375 -25 32.09375 -25 
C 32.703125 -25 33.09375 -24.703125 33.09375 -24 
z
" id="CMR10-40"/>
       <path d="M 29.59375 43 
L 21.59375 43 
L 24.40625 53.296875 
C 24.5 53.5 24.5 53.6875 24.5 53.796875 
C 24.5 54.5 24.203125 54.796875 23.703125 54.796875 
C 23.09375 54.796875 22.796875 54.6875 22.203125 53.890625 
C 18.296875 48.796875 12.09375 43.796875 8.90625 42.890625 
C 6.40625 42.09375 5.703125 41.484375 5.703125 40.390625 
C 5.703125 40.296875 5.703125 40.09375 5.796875 39.796875 
L 13.203125 39.796875 
L 6 12.21875 
C 5.796875 11.3125 5.703125 11.015625 5.40625 10.109375 
C 4.5 7.09375 3.703125 3.59375 3.703125 2.796875 
C 3.703125 0.59375 5.796875 -1 8.5 -1 
C 13.09375 -1 16.40625 1.796875 22.703125 11.109375 
L 21.40625 11.8125 
C 16.5 5.5 14.90625 3.890625 13.296875 3.890625 
C 12.40625 3.890625 11.796875 4.6875 11.796875 5.890625 
C 11.796875 6 11.796875 6.09375 11.90625 6.40625 
L 20.703125 39.796875 
L 29.09375 39.796875 
z
" id="Nimbus_Roman_No9_L_Regular_Italic-116"/>
       <path d="M 28.90625 25 
C 28.90625 32.796875 27.796875 44.890625 22.296875 56.203125 
C 16.296875 68.5 7.703125 75 6.703125 75 
C 6.09375 75 5.703125 74.59375 5.703125 74 
C 5.703125 73.6875 5.703125 73.5 7.59375 71.703125 
C 17.40625 61.796875 23.09375 45.890625 23.09375 25 
C 23.09375 7.890625 19.40625 -9.703125 7 -22.3125 
C 5.703125 -23.5 5.703125 -23.703125 5.703125 -24 
C 5.703125 -24.609375 6.09375 -25 6.703125 -25 
C 7.703125 -25 16.703125 -18.203125 22.59375 -5.5 
C 27.703125 5.5 28.90625 16.59375 28.90625 25 
z
" id="CMR10-41"/>
      </defs>
      <use transform="scale(0.996264)" xlink:href="#Nimbus_Roman_No9_L_Regular_Italic-120"/>
      <use transform="translate(44.531417 0)scale(0.996264)" xlink:href="#CMR10-40"/>
      <use transform="translate(80.694633 0)scale(0.996264)" xlink:href="#Nimbus_Roman_No9_L_Regular_Italic-116"/>
      <use transform="translate(115.163626 0)scale(0.996264)" xlink:href="#CMR10-41"/>
     </g>
    </g>
   </g>
   <g id="line2d_12">
    <path clip-path="url(#p7dcc5af6bd)" d="M 56.103011 56.618182 
L 56.712145 37.357557 
L 56.915189 33.809172 
L 57.118233 32.355563 
L 57.321278 33.104601 
L 57.524322 35.948587 
L 57.930411 46.496153 
L 58.742589 70.256826 
L 58.945634 73.106888 
L 59.148678 73.863734 
L 59.351722 72.419665 
L 59.757811 63.565274 
L 60.976078 26.939924 
L 61.179123 25.511281 
L 61.382167 26.286972 
L 61.585211 29.159295 
L 61.9913 39.768551 
L 62.803478 63.672456 
L 63.006523 66.56241 
L 63.209567 67.360764 
L 63.412612 65.959807 
L 63.8187 57.196409 
L 65.036967 20.881364 
L 65.240012 19.509747 
L 65.443056 20.343947 
L 65.646101 23.276244 
L 66.052189 34.009788 
L 66.864367 58.17919 
L 67.067412 61.138949 
L 67.270456 62.008445 
L 67.473501 60.679952 
L 67.879589 52.065371 
L 69.097856 16.226545 
L 69.300901 14.938436 
L 69.503945 15.857269 
L 69.70699 18.875308 
L 70.113078 29.783571 
L 70.925256 54.314748 
L 71.128301 57.367391 
L 71.331345 58.330701 
L 71.53439 57.096929 
L 71.940479 48.67442 
L 73.158745 13.431115 
L 73.36179 12.244817 
L 73.564834 13.266127 
L 73.767879 16.387282 
L 74.173968 27.503593 
L 74.986145 52.457408 
L 75.18919 55.616921 
L 75.392234 56.687534 
L 75.595279 55.56147 
L 75.798323 52.346519 
L 76.204412 41.075577 
L 77.01659 15.944822 
L 77.219634 12.768709 
L 77.422679 11.692562 
L 77.625723 12.82416 
L 77.828768 16.055711 
L 78.234857 27.393033 
L 79.047034 52.788979 
L 79.250079 56.058889 
L 79.453123 57.239789 
L 79.656168 56.223876 
L 79.859212 53.118913 
L 80.265301 42.067347 
L 81.077479 17.372194 
L 81.280523 14.304168 
L 81.483568 13.335729 
L 81.686612 14.574629 
L 82.092701 23.038157 
L 83.310968 58.650031 
L 83.514012 59.933408 
L 83.717057 59.019307 
L 83.920101 56.015466 
L 84.32619 45.163975 
L 85.138368 20.859611 
L 85.341413 17.88719 
L 85.544457 17.013473 
L 85.747501 18.346188 
L 86.15359 26.99453 
L 87.371857 63.136708 
L 87.574902 64.504719 
L 87.777946 63.674125 
L 87.98099 60.752642 
L 88.387079 50.062342 
L 89.199257 26.0657 
L 89.402302 23.167045 
L 89.605346 22.365792 
L 89.808391 23.769649 
L 90.214479 32.556245 
L 91.432746 69.079733 
L 91.635791 70.506253 
L 91.838835 69.732686 
L 92.04188 66.866735 
L 92.447968 56.28296 
L 93.260146 32.480853 
L 93.463191 29.626904 
L 93.666235 28.868762 
L 93.86928 30.314127 
L 94.275368 39.178883 
L 95.493635 75.897362 
L 95.69668 77.350535 
L 95.899724 76.601934 
L 96.102769 73.759254 
L 96.508857 63.216912 
L 97.321035 39.47711 
L 97.52408 36.63443 
L 97.727124 35.885828 
L 97.930169 37.339002 
L 98.336258 46.214174 
L 99.554524 82.922237 
L 99.757569 84.367602 
L 99.960613 83.60946 
L 100.163658 80.755511 
L 100.569747 70.185455 
L 101.381924 46.369629 
L 101.584969 43.503678 
L 101.788013 42.730111 
L 101.991058 44.15663 
L 102.397147 52.973455 
L 103.615413 89.466715 
L 103.818458 90.870572 
L 104.021502 90.069318 
L 104.224547 87.170664 
L 104.630636 76.50646 
L 105.442813 52.483721 
L 105.645858 49.562238 
L 105.848902 48.731644 
L 106.051947 50.099656 
L 106.458036 58.79508 
L 107.676302 94.890176 
L 107.879347 96.22289 
L 108.082391 95.349173 
L 108.285436 92.376753 
L 108.691525 81.561182 
L 109.503703 57.220898 
L 109.706747 54.217057 
L 109.909791 53.302956 
L 110.112836 54.586333 
L 110.518925 63.109189 
L 111.737192 98.661734 
L 111.940236 99.900635 
L 112.14328 98.932196 
L 112.346325 95.864169 
L 112.752414 84.854829 
L 113.564592 60.11745 
L 113.767636 57.012487 
L 113.970681 55.996574 
L 114.173725 57.177475 
L 114.579814 65.493485 
L 115.798081 100.412204 
L 116.001125 101.543802 
L 116.20417 100.467655 
L 116.407214 97.291541 
L 116.813303 86.064998 
L 117.625481 60.889844 
L 117.828525 57.674894 
L 118.03157 56.54883 
L 118.234614 57.619443 
L 118.437659 60.778956 
L 118.843747 71.93912 
L 119.655925 96.849082 
L 119.85897 99.970236 
L 120.062014 100.991547 
L 120.265059 99.805249 
L 120.671148 91.446066 
L 121.889414 56.139435 
L 122.092459 54.905663 
L 122.295503 55.868973 
L 122.498548 58.921616 
L 122.904636 69.869439 
L 123.716814 94.361056 
L 123.919859 97.379094 
L 124.122903 98.297928 
L 124.325948 97.009818 
L 124.732037 88.449106 
L 125.950303 52.556412 
L 126.153348 51.227918 
L 126.356392 52.097414 
L 126.559437 55.057174 
L 126.965526 65.822113 
L 127.777703 89.96012 
L 127.980748 92.892417 
L 128.183792 93.726616 
L 128.386837 92.355 
L 128.792926 83.63074 
L 130.011192 47.276557 
L 130.214237 45.8756 
L 130.417281 46.673953 
L 130.620326 49.563908 
L 131.026415 60.193321 
L 131.838592 84.077069 
L 132.041637 86.949392 
L 132.244681 87.725083 
L 132.447726 86.296439 
L 132.853815 77.462624 
L 134.072081 40.816698 
L 134.275126 39.37263 
L 134.47817 40.129476 
L 134.681215 42.979538 
L 135.087304 53.534049 
L 135.899482 77.287776 
L 136.102526 80.131763 
L 136.30557 80.8808 
L 136.508615 79.427191 
L 136.914704 70.548535 
L 138.132971 33.809172 
L 138.336015 32.355563 
L 138.539059 33.104601 
L 138.742104 35.948587 
L 139.148193 46.496153 
L 139.960371 70.256826 
L 140.163415 73.106888 
L 140.36646 73.863734 
L 140.569504 72.419665 
L 140.975593 63.565274 
L 142.19386 26.939924 
L 142.396904 25.511281 
L 142.599949 26.286972 
L 142.802993 29.159295 
L 143.209082 39.768551 
L 144.02126 63.672456 
L 144.224304 66.56241 
L 144.427349 67.360764 
L 144.630393 65.959807 
L 145.036482 57.196409 
L 146.254749 20.881364 
L 146.457793 19.509747 
L 146.660838 20.343947 
L 146.863882 23.276244 
L 147.269971 34.009788 
L 148.082149 58.17919 
L 148.285193 61.138949 
L 148.488238 62.008445 
L 148.691282 60.679952 
L 149.097371 52.065371 
L 150.315638 16.226545 
L 150.518682 14.938436 
L 150.721727 15.857269 
L 150.924771 18.875308 
L 151.33086 29.783571 
L 152.143038 54.314748 
L 152.346082 57.367391 
L 152.549127 58.330701 
L 152.752171 57.096929 
L 153.15826 48.67442 
L 154.376527 13.431115 
L 154.579571 12.244817 
L 154.782616 13.266127 
L 154.98566 16.387282 
L 155.391749 27.503593 
L 156.203927 52.457408 
L 156.406971 55.616921 
L 156.610016 56.687534 
L 156.81306 55.56147 
L 157.016105 52.346519 
L 157.422194 41.075577 
L 158.234371 15.944822 
L 158.437416 12.768709 
L 158.64046 11.692562 
L 158.843505 12.82416 
L 159.046549 16.055711 
L 159.452638 27.393033 
L 160.264816 52.788979 
L 160.46786 56.058889 
L 160.670905 57.239789 
L 160.873949 56.223876 
L 161.076994 53.118913 
L 161.483083 42.067347 
L 162.295261 17.372194 
L 162.498305 14.304168 
L 162.701349 13.335729 
L 162.904394 14.574629 
L 163.310483 23.038157 
L 164.52875 58.650031 
L 164.731794 59.933408 
L 164.934838 59.019307 
L 165.137883 56.015466 
L 165.543972 45.163975 
L 166.35615 20.859611 
L 166.559194 17.88719 
L 166.762239 17.013473 
L 166.965283 18.346188 
L 167.371372 26.99453 
L 168.589639 63.136708 
L 168.792683 64.504719 
L 168.995728 63.674125 
L 169.198772 60.752642 
L 169.604861 50.062342 
L 170.417039 26.0657 
L 170.620083 23.167045 
L 170.823128 22.365792 
L 171.026172 23.769649 
L 171.432261 32.556245 
L 172.650528 69.079733 
L 172.853572 70.506253 
L 173.056617 69.732686 
L 173.259661 66.866735 
L 173.66575 56.28296 
L 174.477928 32.480853 
L 174.680972 29.626904 
L 174.884017 28.868762 
L 175.087061 30.314127 
L 175.49315 39.178883 
L 176.711417 75.897362 
L 176.914461 77.350535 
L 177.117506 76.601934 
L 177.32055 73.759254 
L 177.726639 63.216912 
L 178.538817 39.47711 
L 178.741861 36.63443 
L 178.944906 35.885828 
L 179.14795 37.339002 
L 179.554039 46.214174 
L 180.772306 82.922237 
L 180.97535 84.367602 
L 181.178395 83.60946 
L 181.381439 80.755511 
L 181.787528 70.185455 
L 182.599706 46.369629 
L 182.80275 43.503678 
L 183.005795 42.730111 
L 183.208839 44.15663 
L 183.614928 52.973455 
L 184.833195 89.466715 
L 185.036239 90.870572 
L 185.239284 90.069318 
L 185.442328 87.170664 
L 185.848417 76.50646 
L 186.660595 52.483721 
L 186.863639 49.562238 
L 187.066684 48.731644 
L 187.269728 50.099656 
L 187.675817 58.79508 
L 188.894084 94.890176 
L 189.097128 96.22289 
L 189.300173 95.349173 
L 189.503217 92.376753 
L 189.909306 81.561182 
L 190.721484 57.220898 
L 190.924529 54.217057 
L 191.127573 53.302956 
L 191.330617 54.586333 
L 191.736706 63.109189 
L 192.954973 98.661734 
L 193.158018 99.900635 
L 193.361062 98.932196 
L 193.564106 95.864169 
L 193.970195 84.854829 
L 194.782373 60.11745 
L 194.985418 57.012487 
L 195.188462 55.996574 
L 195.391507 57.177475 
L 195.797595 65.493485 
L 197.015862 100.412204 
L 197.218907 101.543802 
L 197.421951 100.467655 
L 197.624996 97.291541 
L 198.031084 86.064998 
L 198.843262 60.889844 
L 199.046307 57.674894 
L 199.249351 56.54883 
L 199.452396 57.619443 
L 199.65544 60.778956 
L 200.061529 71.93912 
L 200.873707 96.849082 
L 201.076751 99.970236 
L 201.279796 100.991547 
L 201.48284 99.805249 
L 201.888929 91.446066 
L 203.107196 56.139435 
L 203.31024 54.905663 
L 203.513285 55.868973 
L 203.716329 58.921616 
L 204.122418 69.869439 
L 204.934596 94.361056 
L 205.13764 97.379094 
L 205.340685 98.297928 
L 205.543729 97.009818 
L 205.949818 88.449106 
L 207.168085 52.556412 
L 207.371129 51.227918 
L 207.574174 52.097414 
L 207.777218 55.057174 
L 208.183307 65.822113 
L 208.995485 89.96012 
L 209.198529 92.892417 
L 209.401574 93.726616 
L 209.604618 92.355 
L 210.010707 83.63074 
L 211.228974 47.276557 
L 211.432018 45.8756 
L 211.635063 46.673953 
L 211.838107 49.563908 
L 212.244196 60.193321 
L 213.056374 84.077069 
L 213.259418 86.949392 
L 213.462463 87.725083 
L 213.665507 86.296439 
L 214.071596 77.462624 
L 215.289863 40.816698 
L 215.492907 39.37263 
L 215.695952 40.129476 
L 215.898996 42.979538 
L 216.305085 53.534049 
L 217.117263 77.287776 
L 217.320308 80.131763 
L 217.523352 80.8808 
L 217.726396 79.427191 
L 218.132485 70.548535 
L 219.350752 33.809172 
L 219.553797 32.355563 
L 219.756841 33.104601 
L 219.959885 35.948587 
L 220.365974 46.496153 
L 221.178152 70.256826 
L 221.381197 73.106888 
L 221.584241 73.863734 
L 221.787286 72.419665 
L 222.193374 63.565274 
L 223.411641 26.939924 
L 223.614686 25.511281 
L 223.81773 26.286972 
L 224.020775 29.159295 
L 224.426863 39.768551 
L 225.239041 63.672456 
L 225.442086 66.56241 
L 225.64513 67.360764 
L 225.848175 65.959807 
L 226.254264 57.196409 
L 227.47253 20.881364 
L 227.675575 19.509747 
L 227.878619 20.343947 
L 228.081664 23.276244 
L 228.487753 34.009788 
L 229.29993 58.17919 
L 229.502975 61.138949 
L 229.706019 62.008445 
L 229.909064 60.679952 
L 230.315153 52.065371 
L 231.533419 16.226545 
L 231.736464 14.938436 
L 231.939508 15.857269 
L 232.142553 18.875308 
L 232.548642 29.783571 
L 233.360819 54.314748 
L 233.563864 57.367391 
L 233.766908 58.330701 
L 233.969953 57.096929 
L 234.376042 48.67442 
L 235.594308 13.431115 
L 235.797353 12.244817 
L 236.000397 13.266127 
L 236.203442 16.387282 
L 236.609531 27.503593 
L 237.421708 52.457408 
L 237.624753 55.616921 
L 237.827797 56.687534 
L 238.030842 55.56147 
L 238.233886 52.346519 
L 238.639975 41.075577 
L 239.452153 15.944822 
L 239.655197 12.768709 
L 239.858242 11.692562 
L 240.061286 12.82416 
L 240.264331 16.055711 
L 240.67042 27.393033 
L 241.482598 52.788979 
L 241.685642 56.058889 
L 241.888686 57.239789 
L 242.091731 56.223876 
L 242.294775 53.118913 
L 242.700864 42.067347 
L 243.513042 17.372194 
L 243.716087 14.304168 
L 243.919131 13.335729 
L 244.122175 14.574629 
L 244.528264 23.038157 
L 245.746531 58.650031 
L 245.949576 59.933408 
L 246.15262 59.019307 
L 246.355664 56.015466 
L 246.761753 45.163975 
L 247.573931 20.859611 
L 247.776976 17.88719 
L 247.98002 17.013473 
L 248.183065 18.346188 
L 248.589153 26.99453 
L 249.80742 63.136708 
L 250.010465 64.504719 
L 250.213509 63.674125 
L 250.416554 60.752642 
L 250.822642 50.062342 
L 251.63482 26.0657 
L 251.837865 23.167045 
L 252.040909 22.365792 
L 252.243954 23.769649 
L 252.650043 32.556245 
L 253.868309 69.079733 
L 254.071354 70.506253 
L 254.274398 69.732686 
L 254.477443 66.866735 
L 254.883532 56.28296 
L 255.695709 32.480853 
L 255.898754 29.626904 
L 256.101798 28.868762 
L 256.304843 30.314127 
L 256.710932 39.178883 
L 257.929198 75.897362 
L 258.132243 77.350535 
L 258.335287 76.601934 
L 258.538332 73.759254 
L 258.944421 63.216912 
L 259.756598 39.47711 
L 259.959643 36.63443 
L 260.162687 35.885828 
L 260.365732 37.339002 
L 260.771821 46.214174 
L 261.990087 82.922237 
L 262.193132 84.367602 
L 262.396176 83.60946 
L 262.599221 80.755511 
L 263.00531 70.185455 
L 263.817487 46.369629 
L 264.020532 43.503678 
L 264.223576 42.730111 
L 264.426621 44.15663 
L 264.83271 52.973455 
L 266.050976 89.466715 
L 266.254021 90.870572 
L 266.457065 90.069318 
L 266.66011 87.170664 
L 267.066199 76.50646 
L 267.878377 52.483721 
L 268.081421 49.562238 
L 268.284465 48.731644 
L 268.48751 50.099656 
L 268.893599 58.79508 
L 270.111866 94.890176 
L 270.31491 96.22289 
L 270.517954 95.349173 
L 270.720999 92.376753 
L 271.127088 81.561182 
L 271.939266 57.220898 
L 272.14231 54.217057 
L 272.345355 53.302956 
L 272.548399 54.586333 
L 272.954488 63.109189 
L 274.172755 98.661734 
L 274.375799 99.900635 
L 274.578844 98.932196 
L 274.781888 95.864169 
L 275.187977 84.854829 
L 276.000155 60.11745 
L 276.203199 57.012487 
L 276.406244 55.996574 
L 276.609288 57.177475 
L 277.015377 65.493485 
L 278.233644 100.412204 
L 278.436688 101.543802 
L 278.639733 100.467655 
L 278.842777 97.291541 
L 279.248866 86.064998 
L 280.061044 60.889844 
L 280.264088 57.674894 
L 280.467133 56.54883 
L 280.670177 57.619443 
L 280.873222 60.778956 
L 281.279311 71.93912 
L 282.091488 96.849082 
L 282.294533 99.970236 
L 282.497577 100.991547 
L 282.700622 99.805249 
L 283.106711 91.446066 
L 284.324977 56.139435 
L 284.528022 54.905663 
L 284.731066 55.868973 
L 284.934111 58.921616 
L 285.3402 69.869439 
L 286.152377 94.361056 
L 286.355422 97.379094 
L 286.558466 98.297928 
L 286.761511 97.009818 
L 287.1676 88.449106 
L 288.385866 52.556412 
L 288.588911 51.227918 
L 288.791955 52.097414 
L 288.995 55.057174 
L 289.401089 65.822113 
L 290.213266 89.96012 
L 290.416311 92.892417 
L 290.619355 93.726616 
L 290.8224 92.355 
L 291.228489 83.63074 
L 292.446755 47.276557 
L 292.6498 45.8756 
L 292.852844 46.673953 
L 293.055889 49.563908 
L 293.461978 60.193321 
L 294.274156 84.077069 
L 294.4772 86.949392 
L 294.680244 87.725083 
L 294.883289 86.296439 
L 295.289378 77.462624 
L 296.507645 40.816698 
L 296.710689 39.37263 
L 296.913733 40.129476 
L 297.116778 42.979538 
L 297.522867 53.534049 
L 298.335045 77.287776 
L 298.538089 80.131763 
L 298.741134 80.8808 
L 298.944178 79.427191 
L 299.350267 70.548535 
L 300.568534 33.809172 
L 300.771578 32.355563 
L 300.974623 33.104601 
L 301.177667 35.948587 
L 301.583756 46.496153 
L 302.395934 70.256826 
L 302.598978 73.106888 
L 302.802023 73.863734 
L 303.005067 72.419665 
L 303.411156 63.565274 
L 304.629423 26.939924 
L 304.832467 25.511281 
L 305.035512 26.286972 
L 305.238556 29.159295 
L 305.644645 39.768551 
L 306.456823 63.672456 
L 306.659867 66.56241 
L 306.862912 67.360764 
L 307.065956 65.959807 
L 307.472045 57.196409 
L 308.690312 20.881364 
L 308.893356 19.509747 
L 309.096401 20.343947 
L 309.299445 23.276244 
L 309.705534 34.009788 
L 310.517712 58.17919 
L 310.720756 61.138949 
L 310.923801 62.008445 
L 311.126845 60.679952 
L 311.532934 52.065371 
L 312.751201 16.226545 
L 312.954245 14.938436 
L 313.15729 15.857269 
L 313.360334 18.875308 
L 313.766423 29.783571 
L 314.578601 54.314748 
L 314.781645 57.367391 
L 314.98469 58.330701 
L 315.187734 57.096929 
L 315.593823 48.67442 
L 316.81209 13.431115 
L 317.015134 12.244817 
L 317.218179 13.266127 
L 317.421223 16.387282 
L 317.827312 27.503593 
L 318.63949 52.457408 
L 318.842534 55.616921 
L 319.045579 56.687534 
L 319.248623 55.56147 
L 319.451668 52.346519 
L 319.857757 41.075577 
L 320.669935 15.944822 
L 320.872979 12.768709 
L 321.076023 11.692562 
L 321.279068 12.82416 
L 321.482112 16.055711 
L 321.888201 27.393033 
L 322.700379 52.788979 
L 322.903424 56.058889 
L 323.106468 57.239789 
L 323.309512 56.223876 
L 323.512557 53.118913 
L 323.918646 42.067347 
L 324.730824 17.372194 
L 324.933868 14.304168 
L 325.136913 13.335729 
L 325.339957 14.574629 
L 325.746046 23.038157 
L 326.964313 58.650031 
L 327.167357 59.933408 
L 327.370402 59.019307 
L 327.573446 56.015466 
L 327.979535 45.163975 
L 328.791713 20.859611 
L 328.994757 17.88719 
L 329.197802 17.013473 
L 329.400846 18.346188 
L 329.806935 26.99453 
L 331.025202 63.136708 
L 331.228246 64.504719 
L 331.431291 63.674125 
L 331.634335 60.752642 
L 332.040424 50.062342 
L 332.852602 26.0657 
L 333.055646 23.167045 
L 333.258691 22.365792 
L 333.461735 23.769649 
L 333.867824 32.556245 
L 335.086091 69.079733 
L 335.289135 70.506253 
L 335.49218 69.732686 
L 335.695224 66.866735 
L 336.101313 56.28296 
L 336.913491 32.480853 
L 337.116535 29.626904 
L 337.31958 28.868762 
L 337.522624 30.314127 
L 337.928713 39.178883 
L 339.14698 75.897362 
L 339.350024 77.350535 
L 339.553069 76.601934 
L 339.756113 73.759254 
L 340.162202 63.216912 
L 340.97438 39.47711 
L 341.177424 36.63443 
L 341.380469 35.885828 
L 341.583513 37.339002 
L 341.989602 46.214174 
L 343.207869 82.922237 
L 343.410913 84.367602 
L 343.613958 83.60946 
L 343.817002 80.755511 
L 344.223091 70.185455 
L 345.035269 46.369629 
L 345.238313 43.503678 
L 345.441358 42.730111 
L 345.644402 44.15663 
L 346.050491 52.973455 
L 347.268758 89.466715 
L 347.471802 90.870572 
L 347.674847 90.069318 
L 347.877891 87.170664 
L 348.28398 76.50646 
L 349.096158 52.483721 
L 349.299203 49.562238 
L 349.502247 48.731644 
L 349.705291 50.099656 
L 350.11138 58.79508 
L 351.329647 94.890176 
L 351.532692 96.22289 
L 351.735736 95.349173 
L 351.93878 92.376753 
L 352.344869 81.561182 
L 353.157047 57.220898 
L 353.360092 54.217057 
L 353.563136 53.302956 
L 353.766181 54.586333 
L 354.172269 63.109189 
L 355.390536 98.661734 
L 355.593581 99.900635 
L 355.796625 98.932196 
L 355.99967 95.864169 
L 356.405758 84.854829 
L 357.217936 60.11745 
L 357.420981 57.012487 
L 357.624025 55.996574 
L 357.82707 57.177475 
L 358.233159 65.493485 
L 359.451425 100.412204 
L 359.65447 101.543802 
L 359.857514 100.467655 
L 360.060559 97.291541 
L 360.466648 86.064998 
L 360.466648 86.064998 
" style="fill:none;stroke:#1f77b4;stroke-linecap:square;stroke-opacity:0.5;stroke-width:1.5;"/>
   </g>
   <g id="line2d_13">
    <path clip-path="url(#p7dcc5af6bd)" d="M 56.103011 56.618182 
L 60.976078 48.336305 
L 63.615656 44.266549 
L 65.849145 41.217593 
L 67.676545 39.06046 
L 69.503945 37.25365 
L 71.128301 35.97101 
L 72.549612 35.115242 
L 73.970923 34.519188 
L 75.392234 34.190048 
L 76.610501 34.123471 
L 77.828768 34.256559 
L 79.047034 34.58813 
L 80.468346 35.221801 
L 81.889657 36.113899 
L 83.310968 37.25365 
L 84.935324 38.84168 
L 86.762724 40.961893 
L 88.793168 43.682009 
L 91.229702 47.360143 
L 94.275368 52.402573 
L 103.00628 67.145426 
L 105.442813 70.68457 
L 107.473258 73.258022 
L 109.300658 75.225415 
L 110.925014 76.663589 
L 112.346325 77.663321 
L 113.767636 78.408868 
L 115.188947 78.891225 
L 116.407214 79.090693 
L 117.625481 79.090693 
L 118.843747 78.891225 
L 120.265059 78.408868 
L 121.68637 77.663321 
L 123.107681 76.663589 
L 124.732037 75.225415 
L 126.356392 73.493795 
L 128.183792 71.22913 
L 130.417281 68.070334 
L 133.056859 63.905509 
L 136.914704 57.324845 
L 142.396904 48.008767 
L 145.036482 43.972719 
L 147.269971 40.961893 
L 149.097371 38.84168 
L 150.721727 37.25365 
L 152.346082 35.97101 
L 153.767393 35.115242 
L 155.188705 34.519188 
L 156.610016 34.190048 
L 157.828283 34.123471 
L 159.046549 34.256559 
L 160.264816 34.58813 
L 161.686127 35.221801 
L 163.107438 36.113899 
L 164.52875 37.25365 
L 166.153105 38.84168 
L 167.980505 40.961893 
L 170.01095 43.682009 
L 172.447483 47.360143 
L 175.49315 52.402573 
L 184.224062 67.145426 
L 186.660595 70.68457 
L 188.69104 73.258022 
L 190.51844 75.225415 
L 192.142795 76.663589 
L 193.564106 77.663321 
L 194.985418 78.408868 
L 196.406729 78.891225 
L 197.624996 79.090693 
L 198.843262 79.090693 
L 200.061529 78.891225 
L 201.48284 78.408868 
L 202.904151 77.663321 
L 204.325463 76.663589 
L 205.949818 75.225415 
L 207.574174 73.493795 
L 209.401574 71.22913 
L 211.635063 68.070334 
L 214.274641 63.905509 
L 218.132485 57.324845 
L 223.614686 48.008767 
L 226.254264 43.972719 
L 228.487753 40.961893 
L 230.315153 38.84168 
L 231.939508 37.25365 
L 233.563864 35.97101 
L 234.985175 35.115242 
L 236.406486 34.519188 
L 237.827797 34.190048 
L 239.046064 34.123471 
L 240.264331 34.256559 
L 241.482598 34.58813 
L 242.903909 35.221801 
L 244.32522 36.113899 
L 245.746531 37.25365 
L 247.370887 38.84168 
L 249.198287 40.961893 
L 251.228731 43.682009 
L 253.665265 47.360143 
L 256.710932 52.402573 
L 265.441843 67.145426 
L 267.878377 70.68457 
L 269.908821 73.258022 
L 271.736221 75.225415 
L 273.360577 76.663589 
L 274.781888 77.663321 
L 276.203199 78.408868 
L 277.62451 78.891225 
L 278.842777 79.090693 
L 280.061044 79.090693 
L 281.279311 78.891225 
L 282.700622 78.408868 
L 284.121933 77.663321 
L 285.543244 76.663589 
L 287.1676 75.225415 
L 288.791955 73.493795 
L 290.619355 71.22913 
L 292.852844 68.070334 
L 295.492422 63.905509 
L 299.350267 57.324845 
L 304.832467 48.008767 
L 307.472045 43.972719 
L 309.705534 40.961893 
L 311.532934 38.84168 
L 313.15729 37.25365 
L 314.781645 35.97101 
L 316.202957 35.115242 
L 317.624268 34.519188 
L 319.045579 34.190048 
L 320.263846 34.123471 
L 321.482112 34.256559 
L 322.700379 34.58813 
L 324.12169 35.221801 
L 325.543001 36.113899 
L 326.964313 37.25365 
L 328.588668 38.84168 
L 330.416068 40.961893 
L 332.446513 43.682009 
L 334.883046 47.360143 
L 337.928713 52.402573 
L 346.659625 67.145426 
L 349.096158 70.68457 
L 351.126603 73.258022 
L 352.954003 75.225415 
L 354.578358 76.663589 
L 355.99967 77.663321 
L 357.420981 78.408868 
L 358.842292 78.891225 
L 360.060559 79.090693 
L 360.466648 79.112892 
L 360.466648 79.112892 
" style="fill:none;stroke:#ff7f0e;stroke-linecap:square;stroke-width:1.5;"/>
   </g>
   <g id="patch_3">
    <path d="M 40.884829 106.036364 
L 40.884829 7.2 
" style="fill:none;stroke:#000000;stroke-linecap:square;stroke-linejoin:miter;stroke-width:0.8;"/>
   </g>
   <g id="patch_4">
    <path d="M 375.684829 106.036364 
L 375.684829 7.2 
" style="fill:none;stroke:#000000;stroke-linecap:square;stroke-linejoin:miter;stroke-width:0.8;"/>
   </g>
   <g id="patch_5">
    <path d="M 40.884829 106.036364 
L 375.684829 106.036364 
" style="fill:none;stroke:#000000;stroke-linecap:square;stroke-linejoin:miter;stroke-width:0.8;"/>
   </g>
   <g id="patch_6">
    <path d="M 40.884829 7.2 
L 375.684829 7.2 
" style="fill:none;stroke:#000000;stroke-linecap:square;stroke-linejoin:miter;stroke-width:0.8;"/>
   </g>
   <g id="legend_1">
    <g id="patch_7">
     <path d="M 47.884829 101.036364 
L 178.540156 101.036364 
Q 180.540156 101.036364 180.540156 99.036364 
L 180.540156 70.850032 
Q 180.540156 68.850032 178.540156 68.850032 
L 47.884829 68.850032 
Q 45.884829 68.850032 45.884829 70.850032 
L 45.884829 99.036364 
Q 45.884829 101.036364 47.884829 101.036364 
z
" style="fill:#ffffff;opacity:0.8;stroke:#cccccc;stroke-linejoin:miter;"/>
    </g>
    <g id="line2d_14">
     <path d="M 49.884829 76.948469 
L 69.884829 76.948469 
" style="fill:none;stroke:#1f77b4;stroke-linecap:square;stroke-opacity:0.5;stroke-width:1.5;"/>
    </g>
    <g id="line2d_15"/>
    <g id="text_5">
     <!-- $x_1+x_2$ (input) -->
     <g transform="translate(77.884829 80.448469)scale(0.1 -0.1)">
      <defs>
       <path d="M 29.09375 68 
L 11.09375 59 
L 11.09375 57.59375 
C 12.296875 58.09375 13.40625 58.484375 13.796875 58.6875 
C 15.59375 59.390625 17.296875 59.78125 18.296875 59.78125 
C 20.40625 59.78125 21.296875 58.296875 21.296875 55.078125 
L 21.296875 9.359375 
C 21.296875 6.03125 20.5 3.71875 18.90625 2.796875 
C 17.40625 1.890625 16 1.59375 11.796875 1.5 
L 11.796875 0 
L 39.40625 0 
L 39.40625 1.5 
C 31.5 1.59375 29.90625 2.609375 29.90625 7.453125 
L 29.90625 67.796875 
z
" id="Nimbus_Roman_No9_L_Regular-49"/>
       <path d="M 40.90625 23 
L 68.796875 23 
C 70.203125 23 72.09375 23 72.09375 25 
C 72.09375 27 70.203125 27 68.796875 27 
L 40.90625 27 
L 40.90625 54.703125 
C 40.90625 56.09375 40.90625 58 38.90625 58 
C 36.90625 58 36.90625 56.09375 36.90625 54.703125 
L 36.90625 27 
L 8.90625 27 
C 7.5 27 5.59375 27 5.59375 25 
C 5.59375 23 7.5 23 8.90625 23 
L 36.90625 23 
L 36.90625 -4.8125 
C 36.90625 -6.203125 36.90625 -8.109375 38.90625 -8.109375 
C 40.90625 -8.109375 40.90625 -6.203125 40.90625 -4.8125 
z
" id="CMR10-43"/>
       <path d="M 23.59375 73 
C 13.59375 59.890625 7.296875 41.6875 7.296875 25.984375 
C 7.296875 10.1875 13.59375 -8.015625 23.59375 -21.109375 
L 29.09375 -21.109375 
C 20.296875 -6.8125 15.40625 9.984375 15.40625 25.984375 
C 15.40625 41.890625 20.296875 58.796875 29.09375 73 
z
" id="Nimbus_Sans_L_Regular-40"/>
       <path d="M 15 52.46875 
L 6.703125 52.46875 
L 6.703125 0 
L 15 0 
z
M 15 73 
L 6.59375 73 
L 6.59375 62.484375 
L 15 62.484375 
z
" id="Nimbus_Sans_L_Regular-105"/>
       <path d="M 7 52 
L 7 0 
L 15.40625 0 
L 15.40625 28.671875 
C 15.40625 39.671875 21 46.6875 29.59375 46.6875 
C 36.203125 46.6875 40.40625 42.6875 40.40625 36.375 
L 40.40625 0 
L 48.703125 0 
L 48.703125 39.671875 
C 48.703125 48.390625 42.203125 54 32.09375 54 
C 24.296875 54 19.296875 50.984375 14.703125 43.6875 
L 14.703125 52 
z
" id="Nimbus_Sans_L_Regular-110"/>
       <path d="M 5.40625 -22 
L 13.796875 -22 
L 13.796875 5.796875 
C 18.203125 0.390625 23.09375 -2 29.90625 -2 
C 43.40625 -2 52.296875 8.875 52.296875 25.5 
C 52.296875 43 43.703125 54 29.796875 54 
C 22.703125 54 17 50.796875 13.09375 44.59375 
L 13.09375 52.484375 
L 5.40625 52.484375 
z
M 28.40625 46.1875 
C 37.59375 46.1875 43.59375 38.125 43.59375 25.6875 
C 43.59375 13.859375 37.5 5.796875 28.40625 5.796875 
C 19.59375 5.796875 13.796875 13.75 13.796875 25.984375 
C 13.796875 38.234375 19.59375 46.1875 28.40625 46.1875 
z
" id="Nimbus_Sans_L_Regular-112"/>
       <path d="M 48.203125 0.296875 
L 48.203125 52 
L 39.90625 52 
L 39.90625 22.71875 
C 39.90625 12.1875 34.296875 5.296875 25.59375 5.296875 
C 19 5.296875 14.796875 9.234375 14.796875 15.4375 
L 14.796875 52 
L 6.5 52 
L 6.5 12.1875 
C 6.5 3.59375 13 -2 23.203125 -2 
C 30.90625 -2 35.796875 0.6875 40.703125 7.5625 
L 40.703125 0.296875 
z
" id="Nimbus_Sans_L_Regular-117"/>
       <path d="M 25.40625 52 
L 16.796875 52 
L 16.796875 66.390625 
L 8.5 66.390625 
L 8.5 52 
L 1.40625 52 
L 1.40625 45.1875 
L 8.5 45.1875 
L 8.5 6.28125 
C 8.5 1 12.09375 -2 18.59375 -2 
C 20.59375 -2 22.59375 -1.8125 25.40625 -1.3125 
L 25.40625 5.6875 
C 24.296875 5.390625 23 5.296875 21.40625 5.296875 
C 17.796875 5.296875 16.796875 6.28125 16.796875 9.90625 
L 16.796875 45.1875 
L 25.40625 45.1875 
z
" id="Nimbus_Sans_L_Regular-116"/>
       <path d="M 9.296875 -21.109375 
C 19.296875 -8.015625 25.59375 10.1875 25.59375 25.890625 
C 25.59375 41.6875 19.296875 59.890625 9.296875 73 
L 3.796875 73 
C 12.59375 58.6875 17.5 41.890625 17.5 25.890625 
C 17.5 9.984375 12.59375 -6.90625 3.796875 -21.109375 
z
" id="Nimbus_Sans_L_Regular-41"/>
      </defs>
      <use transform="scale(0.996264)" xlink:href="#Nimbus_Roman_No9_L_Regular_Italic-120"/>
      <use transform="translate(44.233569 -14.943915)scale(0.697382)" xlink:href="#Nimbus_Roman_No9_L_Regular-49"/>
      <use transform="translate(93.437755 0)scale(0.996264)" xlink:href="#CMR10-43"/>
      <use transform="translate(184.683429 0)scale(0.996264)" xlink:href="#Nimbus_Roman_No9_L_Regular_Italic-120"/>
      <use transform="translate(228.916998 -14.943915)scale(0.697382)" xlink:href="#Nimbus_Roman_No9_L_Regular-50"/>
      <use transform="translate(289.209699 0)scale(0.896632)" xlink:href="#Nimbus_Sans_L_Regular-40"/>
      <use transform="translate(319.0672 0)scale(0.896632)" xlink:href="#Nimbus_Sans_L_Regular-105"/>
      <use transform="translate(338.972171 0)scale(0.896632)" xlink:href="#Nimbus_Sans_L_Regular-110"/>
      <use transform="translate(388.824349 0)scale(0.896632)" xlink:href="#Nimbus_Sans_L_Regular-112"/>
      <use transform="translate(438.676527 0)scale(0.896632)" xlink:href="#Nimbus_Sans_L_Regular-117"/>
      <use transform="translate(488.528705 0)scale(0.896632)" xlink:href="#Nimbus_Sans_L_Regular-116"/>
      <use transform="translate(513.454185 0)scale(0.896632)" xlink:href="#Nimbus_Sans_L_Regular-41"/>
     </g>
    </g>
    <g id="line2d_16">
     <path d="M 49.884829 91.626594 
L 69.884829 91.626594 
" style="fill:none;stroke:#ff7f0e;stroke-linecap:square;stroke-width:1.5;"/>
    </g>
    <g id="line2d_17"/>
    <g id="text_6">
     <!-- $x_1$ (low-frequency signal) -->
     <g transform="translate(77.884829 95.126594)scale(0.1 -0.1)">
      <defs>
       <path d="M 15.203125 73 
L 6.796875 73 
L 6.796875 0 
L 15.203125 0 
z
" id="Nimbus_Sans_L_Regular-108"/>
       <path d="M 27.203125 54 
C 12.5 54 3.59375 43.5 3.59375 25.984375 
C 3.59375 8.484375 12.40625 -2 27.296875 -2 
C 42 -2 51 8.484375 51 25.59375 
C 51 43.609375 42.296875 54 27.203125 54 
z
M 27.296875 46.296875 
C 36.703125 46.296875 42.296875 38.625 42.296875 25.6875 
C 42.296875 13.453125 36.5 5.6875 27.296875 5.6875 
C 18 5.6875 12.296875 13.359375 12.296875 25.984375 
C 12.296875 38.53125 18 46.296875 27.296875 46.296875 
z
" id="Nimbus_Sans_L_Regular-111"/>
       <path d="M 55.40625 0 
L 70.796875 52 
L 61.40625 52 
L 51 11.515625 
L 40.703125 52 
L 30.5 52 
L 20.5 11.515625 
L 9.796875 52 
L 0.59375 52 
L 15.796875 0 
L 25.203125 0 
L 35.296875 40.765625 
L 45.90625 0 
z
" id="Nimbus_Sans_L_Regular-119"/>
       <path d="M 28.40625 31.1875 
L 4.59375 31.1875 
L 4.59375 24 
L 28.40625 24 
z
" id="Nimbus_Sans_L_Regular-45"/>
       <path d="M 25.796875 52 
L 17.09375 52 
L 17.09375 60.3125 
C 17.09375 63.859375 19.09375 65.6875 22.90625 65.6875 
C 23.59375 65.6875 23.90625 65.6875 25.796875 65.59375 
L 25.796875 72.484375 
C 23.90625 72.890625 22.796875 73 21.09375 73 
C 13.40625 73 8.796875 68.59375 8.796875 61.015625 
L 8.796875 52 
L 1.796875 52 
L 1.796875 45.1875 
L 8.796875 45.1875 
L 8.796875 0 
L 17.09375 0 
L 17.09375 45.1875 
L 25.796875 45.1875 
z
" id="Nimbus_Sans_L_Regular-102"/>
       <path d="M 6.90625 52 
L 6.90625 0 
L 15.296875 0 
L 15.296875 26.984375 
C 15.296875 34.421875 17.203125 39.28125 21.203125 42.15625 
C 23.796875 44.046875 26.296875 44.640625 32.09375 44.734375 
L 32.09375 53.1875 
C 30.703125 53.890625 30 54 28.90625 54 
C 23.5 54 19.40625 50.796875 14.59375 42.96875 
L 14.59375 52 
z
" id="Nimbus_Sans_L_Regular-114"/>
       <path d="M 51.296875 23.1875 
C 51.296875 31.21875 50.703125 36.109375 49.203125 40.078125 
C 45.796875 48.796875 37.796875 54 28 54 
C 13.40625 54 4 42.71875 4 25.296875 
C 4 8.515625 13.09375 -2 27.796875 -2 
C 39.796875 -2 48.09375 4.796875 50.203125 15.90625 
L 41.796875 15.90625 
C 39.5 9.1875 34.796875 5.6875 28.09375 5.6875 
C 22.796875 5.6875 18.296875 8.03125 15.5 12.296875 
C 13.5 15.21875 12.796875 18.140625 12.703125 23.1875 
z
M 12.90625 30 
C 13.59375 39.875 19.5 46.296875 27.90625 46.296875 
C 36.09375 46.296875 42.40625 39.359375 42.40625 30.609375 
C 42.40625 30.40625 42.40625 30.203125 42.296875 30 
z
" id="Nimbus_Sans_L_Regular-101"/>
       <path d="M 49.5 -22 
L 49.5 52.484375 
L 42.09375 52.484375 
L 42.09375 45.5 
C 38.203125 50.984375 32.296875 54 25.40625 54 
C 11.59375 54 2.59375 42.703125 2.59375 25.390625 
C 2.59375 8.484375 11.203125 -2 25 -2 
C 32.296875 -2 37.296875 0.59375 41.203125 6.296875 
L 41.203125 -22 
z
M 26.59375 46.1875 
C 35.5 46.1875 41.203125 38.234375 41.203125 25.6875 
C 41.203125 13.75 35.40625 5.796875 26.59375 5.796875 
C 17.40625 5.796875 11.296875 13.859375 11.296875 25.984375 
C 11.296875 38.03125 17.40625 46.1875 26.59375 46.1875 
z
" id="Nimbus_Sans_L_Regular-113"/>
       <path d="M 47.09375 34.953125 
C 46.703125 40.015625 45.59375 43.296875 43.59375 46.1875 
C 40 51.09375 33.703125 54 26.40625 54 
C 12.296875 54 3.09375 42.8125 3.09375 25.5 
C 3.09375 8.671875 12.09375 -2 26.296875 -2 
C 38.796875 -2 46.703125 5.5 47.703125 18.234375 
L 39.296875 18.234375 
C 37.90625 9.875 33.59375 5.6875 26.5 5.6875 
C 17.296875 5.6875 11.796875 13.15625 11.796875 25.5 
C 11.796875 38.53125 17.203125 46.296875 26.296875 46.296875 
C 33.296875 46.296875 37.703125 42.203125 38.703125 34.953125 
z
" id="Nimbus_Sans_L_Regular-99"/>
       <path d="M 38.796875 52 
L 24.296875 11.3125 
L 10.90625 52 
L 2 52 
L 19.703125 -0.453125 
L 16.5 -8.71875 
C 15.203125 -12.40625 13.296875 -13.8125 9.796875 -13.8125 
C 8.59375 -13.8125 7.203125 -13.609375 5.40625 -13.203125 
L 5.40625 -20.703125 
C 7.09375 -21.609375 8.796875 -22 11 -22 
C 13.703125 -22 16.59375 -21.109375 18.796875 -19.5 
C 21.40625 -17.609375 22.90625 -15.40625 24.5 -11.21875 
L 47.796875 52 
z
" id="Nimbus_Sans_L_Regular-121"/>
       <path d="M 43.796875 37.9375 
C 43.703125 48.1875 36.90625 54 24.796875 54 
C 12.59375 54 4.703125 47.6875 4.703125 38.03125 
C 4.703125 29.875 8.90625 25.984375 21.296875 23 
L 29.09375 21.109375 
C 34.90625 19.71875 37.203125 17.640625 37.203125 13.859375 
C 37.203125 8.96875 32.296875 5.6875 25 5.6875 
C 20.5 5.6875 16.703125 6.984375 14.59375 9.171875 
C 13.296875 10.671875 12.703125 12.15625 12.203125 15.84375 
L 3.40625 15.84375 
C 3.796875 3.796875 10.59375 -2 24.296875 -2 
C 37.5 -2 45.90625 4.5 45.90625 14.546875 
C 45.90625 22.3125 41.5 26.59375 31.09375 29.078125 
L 23.09375 30.96875 
C 16.296875 32.5625 13.40625 34.75 13.40625 38.421875 
C 13.40625 43.203125 17.703125 46.296875 24.5 46.296875 
C 31.203125 46.296875 34.796875 43.40625 35 37.9375 
z
" id="Nimbus_Sans_L_Regular-115"/>
       <path d="M 41.203125 52.484375 
L 41.203125 44.890625 
C 37 51.09375 31.90625 54 25.203125 54 
C 11.90625 54 2.90625 42.40625 2.90625 25.5 
C 2.90625 16.9375 5.203125 9.96875 9.5 5 
C 13.40625 0.59375 19 -2 24.5 -2 
C 31.09375 -2 35.703125 0.796875 40.40625 7.390625 
L 40.40625 4.6875 
C 40.40625 -2.421875 39.5 -6.890625 37.40625 -9.90625 
C 35.203125 -13.140625 30.90625 -15 25.796875 -15 
C 22 -15 18.59375 -13.96875 16.296875 -12.09375 
C 14.40625 -10.53125 13.59375 -9.078125 13.09375 -5.859375 
L 4.59375 -5.859375 
C 5.5 -16.109375 13.203125 -22 25.5 -22 
C 33.296875 -22 40 -19.5 43.40625 -15.3125 
C 47.40625 -10.328125 48.90625 -3.46875 48.90625 8.875 
L 48.90625 52.484375 
z
M 26.09375 46.296875 
C 35.09375 46.296875 40.40625 38.734375 40.40625 25.6875 
C 40.40625 13.25 35 5.6875 26.203125 5.6875 
C 17.09375 5.6875 11.59375 13.359375 11.59375 25.984375 
C 11.59375 38.53125 17.203125 46.296875 26.09375 46.296875 
z
" id="Nimbus_Sans_L_Regular-103"/>
       <path d="M 53.5 5.1875 
C 52.59375 5 52.203125 5 51.703125 5 
C 48.796875 5 47.203125 6.484375 47.203125 9.078125 
L 47.203125 39.71875 
C 47.203125 48.984375 40.40625 54 27.5 54 
C 19.90625 54 13.59375 51.796875 10.09375 47.890625 
C 7.703125 45.203125 6.703125 42.21875 6.5 37.03125 
L 14.90625 37.03125 
C 15.59375 43.40625 19.40625 46.296875 27.203125 46.296875 
C 34.703125 46.296875 38.90625 43.5 38.90625 38.53125 
L 38.90625 36.34375 
C 38.90625 32.859375 36.796875 31.359375 30.203125 30.5625 
C 18.40625 29.078125 16.59375 28.671875 13.40625 27.390625 
C 7.296875 24.890625 4.203125 20.21875 4.203125 13.453125 
C 4.203125 4 10.796875 -2 21.40625 -2 
C 28 -2 33.296875 0.296875 39.203125 5.6875 
C 39.796875 0.390625 42.40625 -2 47.796875 -2 
C 49.5 -2 50.796875 -1.8125 53.5 -1.109375 
z
M 38.90625 16.734375 
C 38.90625 13.953125 38.09375 12.265625 35.59375 9.96875 
C 32.203125 6.890625 28.09375 5.296875 23.203125 5.296875 
C 16.703125 5.296875 12.90625 8.375 12.90625 13.65625 
C 12.90625 19.125 16.59375 21.90625 25.5 23.203125 
C 34.296875 24.40625 36.09375 24.796875 38.90625 26.09375 
z
" id="Nimbus_Sans_L_Regular-97"/>
      </defs>
      <use transform="scale(0.996264)" xlink:href="#Nimbus_Roman_No9_L_Regular_Italic-120"/>
      <use transform="translate(44.233569 -14.943915)scale(0.697382)" xlink:href="#Nimbus_Roman_No9_L_Regular-49"/>
      <use transform="translate(104.52627 0)scale(0.896632)" xlink:href="#Nimbus_Sans_L_Regular-40"/>
      <use transform="translate(134.383771 0)scale(0.896632)" xlink:href="#Nimbus_Sans_L_Regular-108"/>
      <use transform="translate(154.288742 0)scale(0.896632)" xlink:href="#Nimbus_Sans_L_Regular-111"/>
      <use transform="translate(202.79687 0)scale(0.896632)" xlink:href="#Nimbus_Sans_L_Regular-119"/>
      <use transform="translate(267.533417 0)scale(0.896632)" xlink:href="#Nimbus_Sans_L_Regular-45"/>
      <use transform="translate(297.390918 0)scale(0.896632)" xlink:href="#Nimbus_Sans_L_Regular-102"/>
      <use transform="translate(322.316399 0)scale(0.896632)" xlink:href="#Nimbus_Sans_L_Regular-114"/>
      <use transform="translate(352.1739 0)scale(0.896632)" xlink:href="#Nimbus_Sans_L_Regular-101"/>
      <use transform="translate(402.026078 0)scale(0.896632)" xlink:href="#Nimbus_Sans_L_Regular-113"/>
      <use transform="translate(451.878256 0)scale(0.896632)" xlink:href="#Nimbus_Sans_L_Regular-117"/>
      <use transform="translate(501.730434 0)scale(0.896632)" xlink:href="#Nimbus_Sans_L_Regular-101"/>
      <use transform="translate(551.582612 0)scale(0.896632)" xlink:href="#Nimbus_Sans_L_Regular-110"/>
      <use transform="translate(601.43479 0)scale(0.896632)" xlink:href="#Nimbus_Sans_L_Regular-99"/>
      <use transform="translate(646.266366 0)scale(0.896632)" xlink:href="#Nimbus_Sans_L_Regular-121"/>
      <use transform="translate(716.023424 0)scale(0.896632)" xlink:href="#Nimbus_Sans_L_Regular-115"/>
      <use transform="translate(760.855 0)scale(0.896632)" xlink:href="#Nimbus_Sans_L_Regular-105"/>
      <use transform="translate(780.759971 0)scale(0.896632)" xlink:href="#Nimbus_Sans_L_Regular-103"/>
      <use transform="translate(830.612148 0)scale(0.896632)" xlink:href="#Nimbus_Sans_L_Regular-110"/>
      <use transform="translate(880.464326 0)scale(0.896632)" xlink:href="#Nimbus_Sans_L_Regular-97"/>
      <use transform="translate(930.316504 0)scale(0.896632)" xlink:href="#Nimbus_Sans_L_Regular-108"/>
      <use transform="translate(950.221475 0)scale(0.896632)" xlink:href="#Nimbus_Sans_L_Regular-41"/>
     </g>
    </g>
   </g>
  </g>
  <g id="axes_2">
   <g id="patch_8">
    <path d="M 40.884829 224.64 
L 375.684829 224.64 
L 375.684829 125.803636 
L 40.884829 125.803636 
z
" style="fill:#ffffff;"/>
   </g>
   <g id="matplotlib.axis_3">
    <g id="xtick_9">
     <g id="line2d_18">
      <g>
       <use style="stroke:#000000;stroke-width:0.8;" x="56.103011" xlink:href="#m371d4e9cd2" y="224.64"/>
      </g>
     </g>
     <g id="text_7">
      <!-- $\mathdefault{0}$ -->
      <g transform="translate(53.612351 238.028443)scale(0.1 -0.1)">
       <use transform="scale(0.996264)" xlink:href="#Nimbus_Roman_No9_L_Regular-48"/>
      </g>
     </g>
    </g>
    <g id="xtick_10">
     <g id="line2d_19">
      <g>
       <use style="stroke:#000000;stroke-width:0.8;" x="96.711902" xlink:href="#m371d4e9cd2" y="224.64"/>
      </g>
     </g>
     <g id="text_8">
      <!-- $\mathdefault{2}$ -->
      <g transform="translate(94.221242 238.028443)scale(0.1 -0.1)">
       <use transform="scale(0.996264)" xlink:href="#Nimbus_Roman_No9_L_Regular-50"/>
      </g>
     </g>
    </g>
    <g id="xtick_11">
     <g id="line2d_20">
      <g>
       <use style="stroke:#000000;stroke-width:0.8;" x="137.320793" xlink:href="#m371d4e9cd2" y="224.64"/>
      </g>
     </g>
     <g id="text_9">
      <!-- $\mathdefault{4}$ -->
      <g transform="translate(134.830133 238.028443)scale(0.1 -0.1)">
       <defs>
        <path d="M 47.203125 23.390625 
L 37 23.390625 
L 37 68 
L 32.59375 68 
L 1.203125 23.390625 
L 1.203125 17 
L 29.296875 17 
L 29.296875 0 
L 37 0 
L 37 17 
L 47.203125 17 
z
M 29.203125 23.390625 
L 5.203125 23.390625 
L 29.203125 57.765625 
z
" id="Nimbus_Roman_No9_L_Regular-52"/>
       </defs>
       <use transform="scale(0.996264)" xlink:href="#Nimbus_Roman_No9_L_Regular-52"/>
      </g>
     </g>
    </g>
    <g id="xtick_12">
     <g id="line2d_21">
      <g>
       <use style="stroke:#000000;stroke-width:0.8;" x="177.929683" xlink:href="#m371d4e9cd2" y="224.64"/>
      </g>
     </g>
     <g id="text_10">
      <!-- $\mathdefault{6}$ -->
      <g transform="translate(175.439023 238.028443)scale(0.1 -0.1)">
       <defs>
        <path d="M 44.59375 68.59375 
C 33.203125 67.59375 27.40625 65.6875 20.09375 60.59375 
C 9.296875 52.890625 3.40625 41.484375 3.40625 28.140625 
C 3.40625 19.5 6.09375 10.75 10.40625 5.765625 
C 14.203125 1.390625 19.59375 -1 25.796875 -1 
C 38.203125 -1 46.796875 8.453125 46.796875 22.1875 
C 46.796875 34.90625 39.5 43 28 43 
C 23.59375 43 21.5 42.296875 15.203125 38.484375 
C 17.90625 53.59375 29.09375 64.390625 44.796875 67 
z
M 24.203125 38.390625 
C 32.796875 38.390625 37.796875 31.234375 37.796875 18.796875 
C 37.796875 7.859375 33.90625 1.796875 26.90625 1.796875 
C 18.09375 1.796875 12.703125 11.140625 12.703125 26.5625 
C 12.703125 31.625 13.5 34.421875 15.5 35.90625 
C 17.59375 37.5 20.703125 38.390625 24.203125 38.390625 
z
" id="Nimbus_Roman_No9_L_Regular-54"/>
       </defs>
       <use transform="scale(0.996264)" xlink:href="#Nimbus_Roman_No9_L_Regular-54"/>
      </g>
     </g>
    </g>
    <g id="xtick_13">
     <g id="line2d_22">
      <g>
       <use style="stroke:#000000;stroke-width:0.8;" x="218.538574" xlink:href="#m371d4e9cd2" y="224.64"/>
      </g>
     </g>
     <g id="text_11">
      <!-- $\mathdefault{8}$ -->
      <g transform="translate(216.047914 238.028443)scale(0.1 -0.1)">
       <defs>
        <path d="M 29 37.5 
C 38.90625 42.796875 42.40625 47 42.40625 53.796875 
C 42.40625 62 35.203125 68 25.203125 68 
C 14.296875 68 6.203125 61.296875 6.203125 52.203125 
C 6.203125 45.6875 8.09375 42.796875 18.59375 33.59375 
C 7.796875 25.390625 5.59375 22.296875 5.59375 15.5 
C 5.59375 5.796875 13.5 -1 24.796875 -1 
C 36.796875 -1 44.5 5.59375 44.5 15.890625 
C 44.5 23.59375 41.09375 28.5 29 37.5 
z
M 27.203125 27.1875 
C 34.5 22 36.90625 18.390625 36.90625 12.796875 
C 36.90625 6.296875 32.40625 1.796875 25.90625 1.796875 
C 18.296875 1.796875 13.203125 7.59375 13.203125 16.296875 
C 13.203125 22.6875 15.40625 26.890625 21.203125 31.59375 
z
M 26.09375 39.296875 
C 17.203125 45.09375 13.59375 49.6875 13.59375 55.296875 
C 13.59375 61.09375 18.09375 65.1875 24.40625 65.1875 
C 31.203125 65.1875 35.5 60.796875 35.5 53.890625 
C 35.5 48.1875 32.703125 43.6875 27 39.890625 
C 26.5 39.59375 26.5 39.59375 26.09375 39.296875 
z
" id="Nimbus_Roman_No9_L_Regular-56"/>
       </defs>
       <use transform="scale(0.996264)" xlink:href="#Nimbus_Roman_No9_L_Regular-56"/>
      </g>
     </g>
    </g>
    <g id="xtick_14">
     <g id="line2d_23">
      <g>
       <use style="stroke:#000000;stroke-width:0.8;" x="259.147465" xlink:href="#m371d4e9cd2" y="224.64"/>
      </g>
     </g>
     <g id="text_12">
      <!-- $\mathdefault{10}$ -->
      <g transform="translate(254.166145 238.028443)scale(0.1 -0.1)">
       <use transform="scale(0.996264)" xlink:href="#Nimbus_Roman_No9_L_Regular-49"/>
       <use transform="translate(49.8132 0)scale(0.996264)" xlink:href="#Nimbus_Roman_No9_L_Regular-48"/>
      </g>
     </g>
    </g>
    <g id="xtick_15">
     <g id="line2d_24">
      <g>
       <use style="stroke:#000000;stroke-width:0.8;" x="299.756356" xlink:href="#m371d4e9cd2" y="224.64"/>
      </g>
     </g>
     <g id="text_13">
      <!-- $\mathdefault{12}$ -->
      <g transform="translate(294.775036 238.028443)scale(0.1 -0.1)">
       <use transform="scale(0.996264)" xlink:href="#Nimbus_Roman_No9_L_Regular-49"/>
       <use transform="translate(49.8132 0)scale(0.996264)" xlink:href="#Nimbus_Roman_No9_L_Regular-50"/>
      </g>
     </g>
    </g>
    <g id="xtick_16">
     <g id="line2d_25">
      <g>
       <use style="stroke:#000000;stroke-width:0.8;" x="340.365247" xlink:href="#m371d4e9cd2" y="224.64"/>
      </g>
     </g>
     <g id="text_14">
      <!-- $\mathdefault{14}$ -->
      <g transform="translate(335.383927 238.028443)scale(0.1 -0.1)">
       <use transform="scale(0.996264)" xlink:href="#Nimbus_Roman_No9_L_Regular-49"/>
       <use transform="translate(49.8132 0)scale(0.996264)" xlink:href="#Nimbus_Roman_No9_L_Regular-52"/>
      </g>
     </g>
    </g>
    <g id="text_15">
     <!-- $t$ [s] -->
     <g transform="translate(200.580984 250.326655)scale(0.1 -0.1)">
      <defs>
       <path d="M 25 73 
L 6.40625 73 
L 6.40625 -21.203125 
L 25 -21.203125 
L 25 -14 
L 14.703125 -14 
L 14.703125 65.796875 
L 25 65.796875 
z
" id="Nimbus_Sans_L_Regular-91"/>
       <path d="M 2.296875 -21.203125 
L 20.90625 -21.203125 
L 20.90625 73 
L 2.296875 73 
L 2.296875 65.796875 
L 12.59375 65.796875 
L 12.59375 -14 
L 2.296875 -14 
z
" id="Nimbus_Sans_L_Regular-93"/>
      </defs>
      <use transform="scale(0.996264)" xlink:href="#Nimbus_Roman_No9_L_Regular_Italic-116"/>
      <use transform="translate(59.394473 0)scale(0.896632)" xlink:href="#Nimbus_Sans_L_Regular-91"/>
      <use transform="translate(84.319954 0)scale(0.896632)" xlink:href="#Nimbus_Sans_L_Regular-115"/>
      <use transform="translate(129.151531 0)scale(0.896632)" xlink:href="#Nimbus_Sans_L_Regular-93"/>
     </g>
    </g>
   </g>
   <g id="matplotlib.axis_4">
    <g id="ytick_4">
     <g id="line2d_26">
      <g>
       <use style="stroke:#000000;stroke-width:0.8;" x="40.884829" xlink:href="#mf09b502c90" y="212.075421"/>
      </g>
     </g>
     <g id="text_16">
      <!-- $\mathdefault{−1}$ -->
      <g transform="translate(21.16264 215.269642)scale(0.1 -0.1)">
       <use transform="scale(0.996264)" xlink:href="#CMSY10-0"/>
       <use transform="translate(77.408707 0)scale(0.996264)" xlink:href="#Nimbus_Roman_No9_L_Regular-49"/>
      </g>
     </g>
    </g>
    <g id="ytick_5">
     <g id="line2d_27">
      <g>
       <use style="stroke:#000000;stroke-width:0.8;" x="40.884829" xlink:href="#mf09b502c90" y="175.313595"/>
      </g>
     </g>
     <g id="text_17">
      <!-- $\mathdefault{0}$ -->
      <g transform="translate(28.903509 178.507816)scale(0.1 -0.1)">
       <use transform="scale(0.996264)" xlink:href="#Nimbus_Roman_No9_L_Regular-48"/>
      </g>
     </g>
    </g>
    <g id="ytick_6">
     <g id="line2d_28">
      <g>
       <use style="stroke:#000000;stroke-width:0.8;" x="40.884829" xlink:href="#mf09b502c90" y="138.551769"/>
      </g>
     </g>
     <g id="text_18">
      <!-- $\mathdefault{1}$ -->
      <g transform="translate(28.903509 141.74599)scale(0.1 -0.1)">
       <use transform="scale(0.996264)" xlink:href="#Nimbus_Roman_No9_L_Regular-49"/>
      </g>
     </g>
    </g>
    <g id="text_19">
     <!-- $y(t)$ -->
     <g transform="translate(14.67198 182.902283)rotate(-90)scale(0.1 -0.1)">
      <defs>
       <path d="M 1.5 39.890625 
C 2.796875 40.1875 3.5 40.296875 4.59375 40.296875 
C 10.296875 40.296875 11.796875 37.796875 16.40625 20.59375 
C 18.09375 14.09375 20.5 2.390625 20.5 0.6875 
C 20.5 -0.90625 19.90625 -2.515625 18.40625 -4.3125 
C 15.296875 -8.40625 13.296875 -11.015625 12.203125 -12.21875 
C 10.09375 -14.40625 8.90625 -15.21875 7.59375 -15.21875 
C 7 -15.21875 6.296875 -14.90625 5.203125 -14.109375 
C 3.703125 -12.90625 2.59375 -12.40625 1.5 -12.40625 
C -0.703125 -12.40625 -2.40625 -14.109375 -2.40625 -16.3125 
C -2.40625 -18.8125 -0.203125 -20.71875 2.703125 -20.71875 
C 9.09375 -20.71875 22.203125 -5.703125 33 14.09375 
C 39.796875 26.390625 42.59375 33.59375 42.59375 38.484375 
C 42.59375 41.484375 40.09375 44 37.09375 44 
C 34.796875 44 33.203125 42.484375 33.203125 40.296875 
C 33.203125 38.796875 34 37.6875 36 36.390625 
C 37.90625 35.296875 38.59375 34.390625 38.59375 32.984375 
C 38.59375 28.984375 34.90625 21.1875 26.40625 7.09375 
L 24.40625 18.6875 
C 22.90625 27.484375 17.296875 44 15.796875 44 
L 15.40625 44 
C 15.296875 43.890625 14.90625 43.890625 14.5 43.890625 
C 13.59375 43.796875 10 43.1875 4.703125 42.1875 
C 4.203125 42.09375 2.90625 41.796875 1.5 41.59375 
z
" id="Nimbus_Roman_No9_L_Regular_Italic-121"/>
      </defs>
      <use transform="scale(0.996264)" xlink:href="#Nimbus_Roman_No9_L_Regular_Italic-121"/>
      <use transform="translate(44.233569 0)scale(0.996264)" xlink:href="#CMR10-40"/>
      <use transform="translate(80.396785 0)scale(0.996264)" xlink:href="#Nimbus_Roman_No9_L_Regular_Italic-116"/>
      <use transform="translate(114.865777 0)scale(0.996264)" xlink:href="#CMR10-41"/>
     </g>
    </g>
   </g>
   <g id="line2d_29">
    <path clip-path="url(#p13bc362d4e)" d="M 56.103011 175.313595 
L 56.306056 174.40415 
L 56.712145 170.537677 
L 57.524322 161.741375 
L 57.727367 160.778154 
L 57.930411 160.625453 
L 58.133456 161.306335 
L 58.539545 164.835385 
L 59.554767 176.294377 
L 59.757811 177.084487 
L 59.960856 176.991517 
L 60.1639 175.998232 
L 60.569989 171.665413 
L 61.585211 157.363259 
L 61.788256 155.892132 
L 61.9913 155.274162 
L 62.194345 155.529372 
L 62.397389 156.591554 
L 62.803478 160.488045 
L 63.412612 167.079733 
L 63.615656 168.435181 
L 63.8187 169.031189 
L 64.021745 168.764864 
L 64.224789 167.617582 
L 64.630878 163.029813 
L 65.646101 148.350207 
L 65.849145 146.841009 
L 66.052189 146.195694 
L 66.255234 146.433644 
L 66.458278 147.488059 
L 66.864367 151.395331 
L 67.473501 158.06186 
L 67.879589 160.097539 
L 68.082634 159.882564 
L 68.285678 158.792376 
L 68.691767 154.334906 
L 69.70699 140.063814 
L 69.910034 138.648852 
L 70.113078 138.101536 
L 70.316123 138.441091 
L 70.519167 139.600568 
L 70.925256 143.727789 
L 71.53439 150.746936 
L 71.940479 153.031522 
L 72.143523 152.944846 
L 72.346567 151.985396 
L 72.752656 147.796375 
L 73.767879 134.233375 
L 73.970923 132.965784 
L 74.173968 132.567597 
L 74.377012 133.057977 
L 74.783101 136.356778 
L 75.798323 147.979506 
L 76.001368 148.908835 
L 76.204412 148.98559 
L 76.407457 148.190699 
L 76.813545 144.333965 
L 77.828768 131.617819 
L 78.031812 130.521969 
L 78.234857 130.296198 
L 78.437901 130.959623 
L 78.84399 134.606206 
L 79.859212 147.106058 
L 80.062257 148.211753 
L 80.265301 148.465078 
L 80.468346 147.846916 
L 80.874435 144.343934 
L 81.889657 132.511753 
L 82.092701 131.592263 
L 82.295746 131.542604 
L 82.49879 132.381846 
L 82.904879 136.379005 
L 83.920101 149.747068 
L 84.123146 151.024645 
L 84.32619 151.449166 
L 84.529235 151.001469 
L 84.935324 147.837059 
L 85.950546 136.835581 
L 86.15359 136.079204 
L 86.356635 136.191555 
L 86.559679 137.191663 
L 86.965768 141.506962 
L 87.98099 155.647595 
L 88.184035 157.075475 
L 88.387079 157.648807 
L 88.590124 157.348392 
L 88.793168 156.241202 
L 89.199257 152.258057 
L 89.808391 145.553859 
L 90.214479 143.545077 
L 90.417524 143.789364 
L 90.620568 144.919534 
L 91.026657 149.489207 
L 92.04188 164.230789 
L 92.244924 165.772622 
L 92.447968 166.457762 
L 92.651013 166.266982 
L 92.854057 165.267227 
L 93.260146 161.492244 
L 93.86928 155.083142 
L 94.072324 153.790654 
L 94.275368 153.259376 
L 94.478413 153.592588 
L 94.681457 154.809263 
L 95.087546 159.544606 
L 96.102769 174.656617 
L 96.508857 177.013878 
L 96.711902 176.884344 
L 96.914946 175.943214 
L 97.321035 172.277567 
L 97.930169 166.012481 
L 98.133213 164.762619 
L 98.336258 164.271262 
L 98.539302 164.641676 
L 98.742346 165.892828 
L 99.148435 170.688913 
L 100.163658 185.904557 
L 100.569747 188.283876 
L 100.772791 188.1612 
L 100.975835 187.224148 
L 101.381924 183.558303 
L 101.991058 177.27205 
L 102.194102 176.009574 
L 102.397147 175.502826 
L 102.600191 175.855079 
L 102.803236 177.085304 
L 103.209324 181.831254 
L 104.224547 196.873589 
L 104.630636 199.164574 
L 104.83368 198.993699 
L 105.036725 198.005775 
L 105.442813 194.230219 
L 106.051947 187.759688 
L 106.254991 186.430589 
L 106.458036 185.854649 
L 106.66108 186.135154 
L 106.864125 187.291094 
L 107.270214 191.880942 
L 108.285436 206.489989 
L 108.48848 207.973995 
L 108.691525 208.590896 
L 108.894569 208.321482 
L 109.097614 207.232716 
L 109.503703 203.248674 
L 110.112836 196.448792 
L 110.518925 194.313421 
L 110.721969 194.475616 
L 110.925014 195.511187 
L 111.331103 199.854242 
L 112.346325 213.812436 
L 112.549369 215.160721 
L 112.752414 215.640127 
L 112.955458 215.231479 
L 113.361547 212.097621 
L 114.376769 200.895182 
L 114.579814 200.05114 
L 114.782858 200.060041 
L 114.985903 200.940942 
L 115.391992 204.970674 
L 116.407214 218.12416 
L 116.610258 219.308151 
L 116.813303 219.62224 
L 117.016347 219.047292 
L 117.422436 215.578052 
L 118.437659 203.522863 
L 118.640703 202.506157 
L 118.843747 202.341789 
L 119.046792 203.048856 
L 119.452881 206.729406 
L 120.468103 219.003097 
L 120.671148 220.010305 
L 120.874192 220.147438 
L 121.077236 219.395404 
L 121.483325 215.571777 
L 122.498548 202.631415 
L 122.701592 201.438159 
L 122.904636 201.097504 
L 123.107681 201.628593 
L 123.51377 204.958279 
L 124.528992 216.363213 
L 124.732037 217.198452 
L 124.935081 217.16431 
L 125.138125 216.241738 
L 125.544214 212.07941 
L 126.559437 198.308097 
L 126.762481 196.951688 
L 126.965526 196.448988 
L 127.16857 196.819178 
L 127.371614 197.995268 
L 127.777703 202.113526 
L 128.386837 209.013423 
L 128.792926 211.147836 
L 128.99597 210.964867 
L 129.199015 209.894997 
L 129.605103 205.442808 
L 130.620326 190.976106 
L 130.82337 189.485912 
L 131.026415 188.851268 
L 131.229459 189.091389 
L 131.432504 190.139317 
L 131.838592 194.007097 
L 132.447726 200.546351 
L 132.65077 201.879769 
L 132.853815 202.450732 
L 133.056859 202.155952 
L 133.259904 200.976444 
L 133.665993 196.311608 
L 134.681215 181.353149 
L 135.087304 179.048063 
L 135.290348 179.201677 
L 135.493393 180.165538 
L 135.899482 183.872587 
L 136.508615 190.189545 
L 136.711659 191.453951 
L 136.914704 191.958475 
L 137.117748 191.599844 
L 137.320793 190.35909 
L 137.726882 185.579636 
L 138.742104 170.381188 
L 139.148193 167.998978 
L 139.351237 168.118115 
L 139.554282 169.050234 
L 139.960371 172.702033 
L 140.569504 178.9568 
L 140.772548 180.206013 
L 140.975593 180.698118 
L 141.178637 180.329848 
L 141.381682 179.082235 
L 141.787771 174.29741 
L 142.802993 159.134235 
L 143.209082 156.785576 
L 143.412126 156.92564 
L 143.615171 157.881449 
L 144.02126 161.588887 
L 144.630393 167.947657 
L 144.833438 169.236982 
L 145.036482 169.771906 
L 145.239526 169.44915 
L 145.442571 168.249736 
L 145.84866 163.569316 
L 146.863882 148.713219 
L 147.066927 147.176365 
L 147.269971 146.505501 
L 147.473015 146.719849 
L 147.67606 147.75246 
L 148.082149 151.62098 
L 148.691282 158.239766 
L 149.097371 160.24937 
L 149.300415 160.022828 
L 149.50346 158.921954 
L 149.909549 154.445492 
L 150.924771 140.138223 
L 151.127816 138.717593 
L 151.33086 138.16504 
L 151.533904 138.499757 
L 151.736949 139.654764 
L 152.143038 143.774042 
L 152.752171 150.783403 
L 153.15826 153.062644 
L 153.361305 152.973597 
L 153.564349 152.011957 
L 153.970438 147.819043 
L 154.98566 134.248627 
L 155.188705 132.979874 
L 155.391749 132.580614 
L 155.594794 133.070002 
L 156.000882 136.367041 
L 157.016105 147.986411 
L 157.219149 148.915214 
L 157.422194 148.991484 
L 157.625238 148.196143 
L 158.031327 144.338612 
L 159.046549 131.620945 
L 159.249594 130.524857 
L 159.452638 130.298867 
L 159.655683 130.962088 
L 160.061772 134.60831 
L 161.076994 147.107474 
L 161.280038 148.21306 
L 161.483083 148.466286 
L 161.686127 147.848032 
L 162.092216 144.344887 
L 163.107438 132.512394 
L 163.310483 131.592855 
L 163.513527 131.543151 
L 163.716572 132.382351 
L 164.122661 136.379436 
L 165.137883 149.747358 
L 165.340927 151.024913 
L 165.543972 151.449414 
L 165.747016 151.001698 
L 166.153105 147.837254 
L 167.168327 136.835712 
L 167.371372 136.079326 
L 167.574416 136.191667 
L 167.777461 137.191766 
L 168.18355 141.50705 
L 169.198772 155.647655 
L 169.401816 157.07553 
L 169.604861 157.648857 
L 169.807905 157.348439 
L 170.01095 156.241246 
L 170.417039 152.258094 
L 171.026172 145.553888 
L 171.432261 143.545102 
L 171.635305 143.789387 
L 171.83835 144.919555 
L 172.244439 149.489225 
L 173.259661 164.230801 
L 173.462706 165.772633 
L 173.66575 166.457772 
L 173.868794 166.266991 
L 174.071839 165.267236 
L 174.477928 161.492252 
L 175.087061 155.083148 
L 175.290106 153.790659 
L 175.49315 153.259381 
L 175.696195 153.592592 
L 175.899239 154.809267 
L 176.305328 159.54461 
L 177.32055 174.656619 
L 177.726639 177.01388 
L 177.929683 176.884346 
L 178.132728 175.943216 
L 178.538817 172.277569 
L 179.14795 166.012482 
L 179.350995 164.76262 
L 179.554039 164.271263 
L 179.757084 164.641677 
L 179.960128 165.892829 
L 180.366217 170.688914 
L 181.381439 185.904558 
L 181.787528 188.283876 
L 181.990573 188.161201 
L 182.193617 187.224148 
L 182.599706 183.558303 
L 183.208839 177.27205 
L 183.411884 176.009574 
L 183.614928 175.502826 
L 183.817973 175.85508 
L 184.021017 177.085304 
L 184.427106 181.831254 
L 185.442328 196.873589 
L 185.848417 199.164574 
L 186.051462 198.9937 
L 186.254506 198.005775 
L 186.660595 194.230219 
L 187.269728 187.759688 
L 187.472773 186.430589 
L 187.675817 185.854649 
L 187.878862 186.135154 
L 188.081906 187.291095 
L 188.487995 191.880942 
L 189.503217 206.489989 
L 189.706262 207.973995 
L 189.909306 208.590896 
L 190.112351 208.321482 
L 190.315395 207.232716 
L 190.721484 203.248674 
L 191.330617 196.448792 
L 191.736706 194.313421 
L 191.939751 194.475616 
L 192.142795 195.511187 
L 192.548884 199.854242 
L 193.564106 213.812436 
L 193.767151 215.160721 
L 193.970195 215.640127 
L 194.17324 215.231479 
L 194.579329 212.097621 
L 195.594551 200.895182 
L 195.797595 200.05114 
L 196.00064 200.060041 
L 196.203684 200.940942 
L 196.609773 204.970674 
L 197.624996 218.12416 
L 197.82804 219.308151 
L 198.031084 219.62224 
L 198.234129 219.047292 
L 198.640218 215.578052 
L 199.65544 203.522863 
L 199.858485 202.506157 
L 200.061529 202.341789 
L 200.264573 203.048856 
L 200.670662 206.729406 
L 201.685885 219.003097 
L 201.888929 220.010305 
L 202.091974 220.147438 
L 202.295018 219.395404 
L 202.701107 215.571777 
L 203.716329 202.631415 
L 203.919374 201.438159 
L 204.122418 201.097504 
L 204.325463 201.628593 
L 204.731551 204.958279 
L 205.746774 216.363213 
L 205.949818 217.198452 
L 206.152863 217.16431 
L 206.355907 216.241738 
L 206.761996 212.07941 
L 207.777218 198.308097 
L 207.980263 196.951688 
L 208.183307 196.448988 
L 208.386352 196.819178 
L 208.589396 197.995268 
L 208.995485 202.113526 
L 209.604618 209.013423 
L 210.010707 211.147836 
L 210.213752 210.964867 
L 210.416796 209.894997 
L 210.822885 205.442808 
L 211.838107 190.976106 
L 212.041152 189.485912 
L 212.244196 188.851268 
L 212.447241 189.091389 
L 212.650285 190.139317 
L 213.056374 194.007097 
L 213.665507 200.546351 
L 213.868552 201.879769 
L 214.071596 202.450732 
L 214.274641 202.155952 
L 214.477685 200.976444 
L 214.883774 196.311608 
L 215.898996 181.353149 
L 216.305085 179.048063 
L 216.50813 179.201677 
L 216.711174 180.165538 
L 217.117263 183.872587 
L 217.726396 190.189545 
L 217.929441 191.453951 
L 218.132485 191.958475 
L 218.33553 191.599844 
L 218.538574 190.35909 
L 218.944663 185.579636 
L 219.959885 170.381188 
L 220.365974 167.998978 
L 220.569019 168.118115 
L 220.772063 169.050234 
L 221.178152 172.702033 
L 221.787286 178.9568 
L 221.99033 180.206013 
L 222.193374 180.698118 
L 222.396419 180.329848 
L 222.599463 179.082235 
L 223.005552 174.29741 
L 224.020775 159.134235 
L 224.426863 156.785576 
L 224.629908 156.92564 
L 224.832952 157.881449 
L 225.239041 161.588887 
L 225.848175 167.947657 
L 226.051219 169.236982 
L 226.254264 169.771906 
L 226.457308 169.44915 
L 226.660352 168.249736 
L 227.066441 163.569316 
L 228.081664 148.713219 
L 228.284708 147.176365 
L 228.487753 146.505501 
L 228.690797 146.719849 
L 228.893841 147.75246 
L 229.29993 151.62098 
L 229.909064 158.239766 
L 230.315153 160.24937 
L 230.518197 160.022828 
L 230.721242 158.921954 
L 231.12733 154.445492 
L 232.142553 140.138223 
L 232.345597 138.717593 
L 232.548642 138.16504 
L 232.751686 138.499757 
L 232.95473 139.654764 
L 233.360819 143.774042 
L 233.969953 150.783403 
L 234.376042 153.062644 
L 234.579086 152.973597 
L 234.782131 152.011957 
L 235.188219 147.819043 
L 236.203442 134.248627 
L 236.406486 132.979874 
L 236.609531 132.580614 
L 236.812575 133.070002 
L 237.218664 136.367041 
L 238.233886 147.986411 
L 238.436931 148.915214 
L 238.639975 148.991484 
L 238.84302 148.196143 
L 239.249109 144.338612 
L 240.264331 131.620945 
L 240.467375 130.524857 
L 240.67042 130.298867 
L 240.873464 130.962088 
L 241.279553 134.60831 
L 242.294775 147.107474 
L 242.49782 148.21306 
L 242.700864 148.466286 
L 242.903909 147.848032 
L 243.309998 144.344887 
L 244.32522 132.512394 
L 244.528264 131.592855 
L 244.731309 131.543151 
L 244.934353 132.382351 
L 245.340442 136.379436 
L 246.355664 149.747358 
L 246.558709 151.024913 
L 246.761753 151.449414 
L 246.964798 151.001698 
L 247.370887 147.837254 
L 248.386109 136.835712 
L 248.589153 136.079326 
L 248.792198 136.191667 
L 248.995242 137.191766 
L 249.401331 141.50705 
L 250.416554 155.647655 
L 250.619598 157.07553 
L 250.822642 157.648857 
L 251.025687 157.348439 
L 251.228731 156.241246 
L 251.63482 152.258094 
L 252.243954 145.553888 
L 252.650043 143.545102 
L 252.853087 143.789387 
L 253.056131 144.919555 
L 253.46222 149.489225 
L 254.477443 164.230801 
L 254.680487 165.772633 
L 254.883532 166.457772 
L 255.086576 166.266991 
L 255.28962 165.267236 
L 255.695709 161.492252 
L 256.304843 155.083148 
L 256.507887 153.790659 
L 256.710932 153.259381 
L 256.913976 153.592592 
L 257.117021 154.809267 
L 257.523109 159.54461 
L 258.538332 174.656619 
L 258.944421 177.01388 
L 259.147465 176.884346 
L 259.35051 175.943216 
L 259.756598 172.277569 
L 260.365732 166.012482 
L 260.568776 164.76262 
L 260.771821 164.271263 
L 260.974865 164.641677 
L 261.17791 165.892829 
L 261.583998 170.688914 
L 262.599221 185.904558 
L 263.00531 188.283876 
L 263.208354 188.161201 
L 263.411399 187.224148 
L 263.817487 183.558303 
L 264.426621 177.27205 
L 264.629665 176.009574 
L 264.83271 175.502826 
L 265.035754 175.85508 
L 265.238799 177.085304 
L 265.644888 181.831254 
L 266.66011 196.873589 
L 267.066199 199.164574 
L 267.269243 198.9937 
L 267.472288 198.005775 
L 267.878377 194.230219 
L 268.48751 187.759688 
L 268.690554 186.430589 
L 268.893599 185.854649 
L 269.096643 186.135154 
L 269.299688 187.291095 
L 269.705777 191.880942 
L 270.720999 206.489989 
L 270.924043 207.973995 
L 271.127088 208.590896 
L 271.330132 208.321482 
L 271.533177 207.232716 
L 271.939266 203.248674 
L 272.548399 196.448792 
L 272.954488 194.313421 
L 273.157532 194.475616 
L 273.360577 195.511187 
L 273.766666 199.854242 
L 274.781888 213.812436 
L 274.984932 215.160721 
L 275.187977 215.640127 
L 275.391021 215.231479 
L 275.79711 212.097621 
L 276.812333 200.895182 
L 277.015377 200.05114 
L 277.218421 200.060041 
L 277.421466 200.940942 
L 277.827555 204.970674 
L 278.842777 218.12416 
L 279.045822 219.308151 
L 279.248866 219.62224 
L 279.45191 219.047292 
L 279.857999 215.578052 
L 280.873222 203.522863 
L 281.076266 202.506157 
L 281.279311 202.341789 
L 281.482355 203.048856 
L 281.888444 206.729406 
L 282.903666 219.003097 
L 283.106711 220.010305 
L 283.309755 220.147438 
L 283.5128 219.395404 
L 283.918888 215.571777 
L 284.934111 202.631415 
L 285.137155 201.438159 
L 285.3402 201.097504 
L 285.543244 201.628593 
L 285.949333 204.958279 
L 286.964555 216.363213 
L 287.1676 217.198452 
L 287.370644 217.16431 
L 287.573689 216.241738 
L 287.979777 212.07941 
L 288.995 198.308097 
L 289.198044 196.951688 
L 289.401089 196.448988 
L 289.604133 196.819178 
L 289.807178 197.995268 
L 290.213266 202.113526 
L 290.8224 209.013423 
L 291.228489 211.147836 
L 291.431533 210.964867 
L 291.634578 209.894997 
L 292.040667 205.442808 
L 293.055889 190.976106 
L 293.258933 189.485912 
L 293.461978 188.851268 
L 293.665022 189.091389 
L 293.868067 190.139317 
L 294.274156 194.007097 
L 294.883289 200.546351 
L 295.086333 201.879769 
L 295.289378 202.450732 
L 295.492422 202.155952 
L 295.695467 200.976444 
L 296.101556 196.311608 
L 297.116778 181.353149 
L 297.522867 179.048063 
L 297.725911 179.201677 
L 297.928956 180.165538 
L 298.335045 183.872587 
L 298.944178 190.189545 
L 299.147222 191.453951 
L 299.350267 191.958475 
L 299.553311 191.599844 
L 299.756356 190.35909 
L 300.162445 185.579636 
L 301.177667 170.381188 
L 301.583756 167.998978 
L 301.7868 168.118115 
L 301.989845 169.050234 
L 302.395934 172.702033 
L 303.005067 178.9568 
L 303.208112 180.206013 
L 303.411156 180.698118 
L 303.6142 180.329848 
L 303.817245 179.082235 
L 304.223334 174.29741 
L 305.238556 159.134235 
L 305.644645 156.785576 
L 305.847689 156.92564 
L 306.050734 157.881449 
L 306.456823 161.588887 
L 307.065956 167.947657 
L 307.269001 169.236982 
L 307.472045 169.771906 
L 307.67509 169.44915 
L 307.878134 168.249736 
L 308.284223 163.569316 
L 309.299445 148.713219 
L 309.50249 147.176365 
L 309.705534 146.505501 
L 309.908579 146.719849 
L 310.111623 147.75246 
L 310.517712 151.62098 
L 311.126845 158.239766 
L 311.532934 160.24937 
L 311.735979 160.022828 
L 311.939023 158.921954 
L 312.345112 154.445492 
L 313.360334 140.138223 
L 313.563379 138.717593 
L 313.766423 138.16504 
L 313.969468 138.499757 
L 314.172512 139.654764 
L 314.578601 143.774042 
L 315.187734 150.783403 
L 315.593823 153.062644 
L 315.796868 152.973597 
L 315.999912 152.011957 
L 316.406001 147.819043 
L 317.421223 134.248627 
L 317.624268 132.979874 
L 317.827312 132.580614 
L 318.030357 133.070002 
L 318.436446 136.367041 
L 319.451668 147.986411 
L 319.654712 148.915214 
L 319.857757 148.991484 
L 320.060801 148.196143 
L 320.46689 144.338612 
L 321.482112 131.620945 
L 321.685157 130.524857 
L 321.888201 130.298867 
L 322.091246 130.962088 
L 322.497335 134.60831 
L 323.512557 147.107474 
L 323.715601 148.21306 
L 323.918646 148.466286 
L 324.12169 147.848032 
L 324.527779 144.344887 
L 325.543001 132.512394 
L 325.746046 131.592855 
L 325.94909 131.543151 
L 326.152135 132.382351 
L 326.558224 136.379436 
L 327.573446 149.747358 
L 327.77649 151.024913 
L 327.979535 151.449414 
L 328.182579 151.001698 
L 328.588668 147.837254 
L 329.603891 136.835712 
L 329.806935 136.079326 
L 330.009979 136.191667 
L 330.213024 137.191766 
L 330.619113 141.50705 
L 331.634335 155.647655 
L 331.83738 157.07553 
L 332.040424 157.648857 
L 332.243468 157.348439 
L 332.446513 156.241246 
L 332.852602 152.258094 
L 333.461735 145.553888 
L 333.867824 143.545102 
L 334.070869 143.789387 
L 334.273913 144.919555 
L 334.680002 149.489225 
L 335.695224 164.230801 
L 335.898269 165.772633 
L 336.101313 166.457772 
L 336.304358 166.266991 
L 336.507402 165.267236 
L 336.913491 161.492252 
L 337.522624 155.083148 
L 337.725669 153.790659 
L 337.928713 153.259381 
L 338.131758 153.592592 
L 338.334802 154.809267 
L 338.740891 159.54461 
L 339.756113 174.656619 
L 340.162202 177.01388 
L 340.365247 176.884346 
L 340.568291 175.943216 
L 340.97438 172.277569 
L 341.583513 166.012482 
L 341.786558 164.76262 
L 341.989602 164.271263 
L 342.192647 164.641677 
L 342.395691 165.892829 
L 342.80178 170.688914 
L 343.817002 185.904558 
L 344.223091 188.283876 
L 344.426136 188.161201 
L 344.62918 187.224148 
L 345.035269 183.558303 
L 345.644402 177.27205 
L 345.847447 176.009574 
L 346.050491 175.502826 
L 346.253536 175.85508 
L 346.45658 177.085304 
L 346.862669 181.831254 
L 347.877891 196.873589 
L 348.28398 199.164574 
L 348.487025 198.9937 
L 348.690069 198.005775 
L 349.096158 194.230219 
L 349.705291 187.759688 
L 349.908336 186.430589 
L 350.11138 185.854649 
L 350.314425 186.135154 
L 350.517469 187.291095 
L 350.923558 191.880942 
L 351.93878 206.489989 
L 352.141825 207.973995 
L 352.344869 208.590896 
L 352.547914 208.321482 
L 352.750958 207.232716 
L 353.157047 203.248674 
L 353.766181 196.448792 
L 354.172269 194.313421 
L 354.375314 194.475616 
L 354.578358 195.511187 
L 354.984447 199.854242 
L 355.99967 213.812436 
L 356.202714 215.160721 
L 356.405758 215.640127 
L 356.608803 215.231479 
L 357.014892 212.097621 
L 358.030114 200.895182 
L 358.233159 200.05114 
L 358.436203 200.060041 
L 358.639247 200.940942 
L 359.045336 204.970674 
L 360.060559 218.12416 
L 360.263603 219.308151 
L 360.466648 219.62224 
L 360.466648 219.62224 
" style="fill:none;stroke:#1f77b4;stroke-linecap:square;stroke-opacity:0.5;stroke-width:1.5;"/>
   </g>
   <g id="line2d_30">
    <path clip-path="url(#p13bc362d4e)" d="M 56.103011 175.313595 
L 60.976078 161.780664 
L 63.615656 155.130513 
L 65.646101 150.572426 
L 67.473501 146.988121 
L 69.097856 144.274558 
L 70.519167 142.300461 
L 71.940479 140.725099 
L 73.158745 139.706709 
L 74.377012 139.004368 
L 75.392234 138.665093 
L 76.407457 138.551769 
L 77.422679 138.665093 
L 78.437901 139.004368 
L 79.453123 139.567501 
L 80.67139 140.533769 
L 81.889657 141.808746 
L 83.310968 143.671146 
L 84.732279 145.915726 
L 86.356635 148.913961 
L 88.184035 152.782012 
L 90.214479 157.60345 
L 92.854057 164.504135 
L 96.914946 175.891025 
L 101.584969 188.846526 
L 104.224547 195.496676 
L 106.254991 200.054764 
L 108.082391 203.639069 
L 109.706747 206.352631 
L 111.128058 208.326729 
L 112.549369 209.90209 
L 113.767636 210.920481 
L 114.985903 211.622822 
L 116.001125 211.962097 
L 117.016347 212.075421 
L 118.03157 211.962097 
L 119.046792 211.622822 
L 120.062014 211.059689 
L 121.280281 210.09342 
L 122.498548 208.818444 
L 123.919859 206.956044 
L 125.34117 204.711463 
L 126.965526 201.713229 
L 128.792926 197.845178 
L 130.82337 193.02374 
L 133.462948 186.123054 
L 137.523837 174.736165 
L 142.19386 161.780664 
L 144.833438 155.130513 
L 146.863882 150.572426 
L 148.691282 146.988121 
L 150.315638 144.274558 
L 151.736949 142.300461 
L 153.15826 140.725099 
L 154.376527 139.706709 
L 155.594794 139.004368 
L 156.610016 138.665093 
L 157.625238 138.551769 
L 158.64046 138.665093 
L 159.655683 139.004368 
L 160.670905 139.567501 
L 161.889172 140.533769 
L 163.107438 141.808746 
L 164.52875 143.671146 
L 165.950061 145.915726 
L 167.574416 148.913961 
L 169.401816 152.782012 
L 171.432261 157.60345 
L 174.071839 164.504135 
L 178.132728 175.891025 
L 182.80275 188.846526 
L 185.442328 195.496676 
L 187.472773 200.054764 
L 189.300173 203.639069 
L 190.924529 206.352631 
L 192.34584 208.326729 
L 193.767151 209.90209 
L 194.985418 210.920481 
L 196.203684 211.622822 
L 197.218907 211.962097 
L 198.234129 212.075421 
L 199.249351 211.962097 
L 200.264573 211.622822 
L 201.279796 211.059689 
L 202.498062 210.09342 
L 203.716329 208.818444 
L 205.13764 206.956044 
L 206.558951 204.711463 
L 208.183307 201.713229 
L 210.010707 197.845178 
L 212.041152 193.02374 
L 214.68073 186.123054 
L 218.741619 174.736165 
L 223.411641 161.780664 
L 226.051219 155.130513 
L 228.081664 150.572426 
L 229.909064 146.988121 
L 231.533419 144.274558 
L 232.95473 142.300461 
L 234.376042 140.725099 
L 235.594308 139.706709 
L 236.812575 139.004368 
L 237.827797 138.665093 
L 238.84302 138.551769 
L 239.858242 138.665093 
L 240.873464 139.004368 
L 241.888686 139.567501 
L 243.106953 140.533769 
L 244.32522 141.808746 
L 245.746531 143.671146 
L 247.167842 145.915726 
L 248.792198 148.913961 
L 250.619598 152.782012 
L 252.650043 157.60345 
L 255.28962 164.504135 
L 259.35051 175.891025 
L 264.020532 188.846526 
L 266.66011 195.496676 
L 268.690554 200.054764 
L 270.517954 203.639069 
L 272.14231 206.352631 
L 273.563621 208.326729 
L 274.984932 209.90209 
L 276.203199 210.920481 
L 277.421466 211.622822 
L 278.436688 211.962097 
L 279.45191 212.075421 
L 280.467133 211.962097 
L 281.482355 211.622822 
L 282.497577 211.059689 
L 283.715844 210.09342 
L 284.934111 208.818444 
L 286.355422 206.956044 
L 287.776733 204.711463 
L 289.401089 201.713229 
L 291.228489 197.845178 
L 293.258933 193.02374 
L 295.898511 186.123054 
L 299.9594 174.736165 
L 304.629423 161.780664 
L 307.269001 155.130513 
L 309.299445 150.572426 
L 311.126845 146.988121 
L 312.751201 144.274558 
L 314.172512 142.300461 
L 315.593823 140.725099 
L 316.81209 139.706709 
L 318.030357 139.004368 
L 319.045579 138.665093 
L 320.060801 138.551769 
L 321.076023 138.665093 
L 322.091246 139.004368 
L 323.106468 139.567501 
L 324.324735 140.533769 
L 325.543001 141.808746 
L 326.964313 143.671146 
L 328.385624 145.915726 
L 330.009979 148.913961 
L 331.83738 152.782012 
L 333.867824 157.60345 
L 336.507402 164.504135 
L 340.568291 175.891025 
L 345.238313 188.846526 
L 347.877891 195.496676 
L 349.908336 200.054764 
L 351.735736 203.639069 
L 353.360092 206.352631 
L 354.781403 208.326729 
L 356.202714 209.90209 
L 357.420981 210.920481 
L 358.639247 211.622822 
L 359.65447 211.962097 
L 360.466648 212.070886 
L 360.466648 212.070886 
" style="fill:none;stroke:#ff7f0e;stroke-linecap:square;stroke-width:1.5;"/>
   </g>
   <g id="patch_9">
    <path d="M 40.884829 224.64 
L 40.884829 125.803636 
" style="fill:none;stroke:#000000;stroke-linecap:square;stroke-linejoin:miter;stroke-width:0.8;"/>
   </g>
   <g id="patch_10">
    <path d="M 375.684829 224.64 
L 375.684829 125.803636 
" style="fill:none;stroke:#000000;stroke-linecap:square;stroke-linejoin:miter;stroke-width:0.8;"/>
   </g>
   <g id="patch_11">
    <path d="M 40.884829 224.64 
L 375.684829 224.64 
" style="fill:none;stroke:#000000;stroke-linecap:square;stroke-linejoin:miter;stroke-width:0.8;"/>
   </g>
   <g id="patch_12">
    <path d="M 40.884829 125.803636 
L 375.684829 125.803636 
" style="fill:none;stroke:#000000;stroke-linecap:square;stroke-linejoin:miter;stroke-width:0.8;"/>
   </g>
   <g id="legend_2">
    <g id="patch_13">
     <path d="M 47.884829 219.64 
L 178.540156 219.64 
Q 180.540156 219.64 180.540156 217.64 
L 180.540156 189.453668 
Q 180.540156 187.453668 178.540156 187.453668 
L 47.884829 187.453668 
Q 45.884829 187.453668 45.884829 189.453668 
L 45.884829 217.64 
Q 45.884829 219.64 47.884829 219.64 
z
" style="fill:#ffffff;opacity:0.8;stroke:#cccccc;stroke-linejoin:miter;"/>
    </g>
    <g id="line2d_31">
     <path d="M 49.884829 195.552105 
L 69.884829 195.552105 
" style="fill:none;stroke:#1f77b4;stroke-linecap:square;stroke-opacity:0.5;stroke-width:1.5;"/>
    </g>
    <g id="line2d_32"/>
    <g id="text_20">
     <!-- $y$ (filtered output) -->
     <g transform="translate(77.884829 199.052105)scale(0.1 -0.1)">
      <defs>
       <path d="M 25.203125 52 
L 16.5 52 
L 16.5 60.3125 
C 16.5 63.859375 18.5 65.6875 22.296875 65.6875 
C 23 65.6875 23.296875 65.6875 25.203125 65.59375 
L 25.203125 72.484375 
C 23.296875 72.890625 22.203125 73 20.5 73 
C 12.796875 73 8.203125 68.59375 8.203125 61.015625 
L 8.203125 52 
L 1.203125 52 
L 1.203125 45.1875 
L 8.203125 45.1875 
L 8.203125 0 
L 16.5 0 
L 16.5 45.1875 
L 25.203125 45.1875 
z
M 43.59375 52 
L 35.296875 52 
L 35.296875 0 
L 43.59375 0 
z
M 43.59375 73 
L 35.296875 73 
L 35.296875 62.484375 
L 43.59375 62.484375 
z
" id="Nimbus_Sans_L_Regular-2"/>
       <path d="M 49.5 73 
L 41.203125 73 
L 41.203125 45.890625 
C 37.703125 51.1875 32.09375 54 25.09375 54 
C 11.5 54 2.59375 43.109375 2.59375 26.484375 
C 2.59375 8.875 11.296875 -2 25.40625 -2 
C 32.59375 -2 37.59375 0.6875 42.09375 7.1875 
L 42.09375 0.296875 
L 49.5 0.296875 
z
M 26.5 46.1875 
C 35.5 46.1875 41.203125 38.234375 41.203125 25.796875 
C 41.203125 13.75 35.40625 5.796875 26.59375 5.796875 
C 17.40625 5.796875 11.296875 13.859375 11.296875 25.984375 
C 11.296875 38.125 17.40625 46.1875 26.5 46.1875 
z
" id="Nimbus_Sans_L_Regular-100"/>
      </defs>
      <use transform="scale(0.996264)" xlink:href="#Nimbus_Roman_No9_L_Regular_Italic-121"/>
      <use transform="translate(69.15905 0)scale(0.896632)" xlink:href="#Nimbus_Sans_L_Regular-40"/>
      <use transform="translate(99.016551 0)scale(0.896632)" xlink:href="#Nimbus_Sans_L_Regular-2"/>
      <use transform="translate(143.848128 0)scale(0.896632)" xlink:href="#Nimbus_Sans_L_Regular-108"/>
      <use transform="translate(163.753098 0)scale(0.896632)" xlink:href="#Nimbus_Sans_L_Regular-116"/>
      <use transform="translate(188.678579 0)scale(0.896632)" xlink:href="#Nimbus_Sans_L_Regular-101"/>
      <use transform="translate(238.530757 0)scale(0.896632)" xlink:href="#Nimbus_Sans_L_Regular-114"/>
      <use transform="translate(268.388258 0)scale(0.896632)" xlink:href="#Nimbus_Sans_L_Regular-101"/>
      <use transform="translate(318.240436 0)scale(0.896632)" xlink:href="#Nimbus_Sans_L_Regular-100"/>
      <use transform="translate(393.018095 0)scale(0.896632)" xlink:href="#Nimbus_Sans_L_Regular-111"/>
      <use transform="translate(442.870273 0)scale(0.896632)" xlink:href="#Nimbus_Sans_L_Regular-117"/>
      <use transform="translate(492.722451 0)scale(0.896632)" xlink:href="#Nimbus_Sans_L_Regular-116"/>
      <use transform="translate(517.647932 0)scale(0.896632)" xlink:href="#Nimbus_Sans_L_Regular-112"/>
      <use transform="translate(567.500109 0)scale(0.896632)" xlink:href="#Nimbus_Sans_L_Regular-117"/>
      <use transform="translate(617.352287 0)scale(0.896632)" xlink:href="#Nimbus_Sans_L_Regular-116"/>
      <use transform="translate(642.277768 0)scale(0.896632)" xlink:href="#Nimbus_Sans_L_Regular-41"/>
     </g>
    </g>
    <g id="line2d_33">
     <path d="M 49.884829 210.23023 
L 69.884829 210.23023 
" style="fill:none;stroke:#ff7f0e;stroke-linecap:square;stroke-width:1.5;"/>
    </g>
    <g id="line2d_34"/>
    <g id="text_21">
     <!-- $x_1$ (low-frequency signal) -->
     <g transform="translate(77.884829 213.73023)scale(0.1 -0.1)">
      <use transform="scale(0.996264)" xlink:href="#Nimbus_Roman_No9_L_Regular_Italic-120"/>
      <use transform="translate(44.233569 -14.943915)scale(0.697382)" xlink:href="#Nimbus_Roman_No9_L_Regular-49"/>
      <use transform="translate(104.52627 0)scale(0.896632)" xlink:href="#Nimbus_Sans_L_Regular-40"/>
      <use transform="translate(134.383771 0)scale(0.896632)" xlink:href="#Nimbus_Sans_L_Regular-108"/>
      <use transform="translate(154.288742 0)scale(0.896632)" xlink:href="#Nimbus_Sans_L_Regular-111"/>
      <use transform="translate(202.79687 0)scale(0.896632)" xlink:href="#Nimbus_Sans_L_Regular-119"/>
      <use transform="translate(267.533417 0)scale(0.896632)" xlink:href="#Nimbus_Sans_L_Regular-45"/>
      <use transform="translate(297.390918 0)scale(0.896632)" xlink:href="#Nimbus_Sans_L_Regular-102"/>
      <use transform="translate(322.316399 0)scale(0.896632)" xlink:href="#Nimbus_Sans_L_Regular-114"/>
      <use transform="translate(352.1739 0)scale(0.896632)" xlink:href="#Nimbus_Sans_L_Regular-101"/>
      <use transform="translate(402.026078 0)scale(0.896632)" xlink:href="#Nimbus_Sans_L_Regular-113"/>
      <use transform="translate(451.878256 0)scale(0.896632)" xlink:href="#Nimbus_Sans_L_Regular-117"/>
      <use transform="translate(501.730434 0)scale(0.896632)" xlink:href="#Nimbus_Sans_L_Regular-101"/>
      <use transform="translate(551.582612 0)scale(0.896632)" xlink:href="#Nimbus_Sans_L_Regular-110"/>
      <use transform="translate(601.43479 0)scale(0.896632)" xlink:href="#Nimbus_Sans_L_Regular-99"/>
      <use transform="translate(646.266366 0)scale(0.896632)" xlink:href="#Nimbus_Sans_L_Regular-121"/>
      <use transform="translate(716.023424 0)scale(0.896632)" xlink:href="#Nimbus_Sans_L_Regular-115"/>
      <use transform="translate(760.855 0)scale(0.896632)" xlink:href="#Nimbus_Sans_L_Regular-105"/>
      <use transform="translate(780.759971 0)scale(0.896632)" xlink:href="#Nimbus_Sans_L_Regular-103"/>
      <use transform="translate(830.612148 0)scale(0.896632)" xlink:href="#Nimbus_Sans_L_Regular-110"/>
      <use transform="translate(880.464326 0)scale(0.896632)" xlink:href="#Nimbus_Sans_L_Regular-97"/>
      <use transform="translate(930.316504 0)scale(0.896632)" xlink:href="#Nimbus_Sans_L_Regular-108"/>
      <use transform="translate(950.221475 0)scale(0.896632)" xlink:href="#Nimbus_Sans_L_Regular-41"/>
     </g>
    </g>
   </g>
  </g>
 </g>
 <defs>
  <clipPath id="p7dcc5af6bd">
   <rect height="98.836364" width="334.8" x="40.884829" y="7.2"/>
  </clipPath>
  <clipPath id="p13bc362d4e">
   <rect height="98.836364" width="334.8" x="40.884829" y="125.803636"/>
  </clipPath>
 </defs>
</svg>
